<ttFont>
<head>
    <!-- Most of this table will be recalculated by the compiler -->
    <tableVersion value="1.0"/>
    <fontRevision value="1.00700378418"/>
    <checkSumAdjustment value="0x9993231b"/>
    <magicNumber value="0x5f0f3cf5"/>
    <flags value="00000000 00011001"/>
    <unitsPerEm value="1000"/>
    <created value="Sun Mar 25 09:16:00 2012"/>
    <modified value="Sun Mar 25 06:52:03 2012"/>
    <xMin value="-138"/>
    <yMin value="-237"/>
    <xMax value="1010"/>
    <yMax value="1025"/>
    <macStyle value="00000000 00000000"/>
    <lowestRecPPEM value="9"/>
    <fontDirectionHint value="2"/>
    <indexToLocFormat value="1"/>
    <glyphDataFormat value="0"/>
  </head>
    <TTGlyph name=".notdef" xMin="56" yMin="85" xMax="271" yMax="388">
      <contour>
        <pt x="137" y="236" on="1"/>
        <pt x="60" y="354" on="1"/>
        <pt x="56" y="362" on="0"/>
        <pt x="56" y="366" on="1"/>
        <pt x="56" y="375" on="0"/>
        <pt x="70" y="388" on="0"/>
        <pt x="80" y="388" on="1"/>
        <pt x="90" y="388" on="0"/>
        <pt x="98" y="378" on="1"/>
        <pt x="164" y="275" on="1"/>
        <pt x="230" y="378" on="1"/>
        <pt x="237" y="388" on="0"/>
        <pt x="248" y="388" on="1"/>
        <pt x="257" y="388" on="0"/>
        <pt x="271" y="376" on="0"/>
        <pt x="271" y="366" on="1"/>
        <pt x="271" y="359" on="0"/>
        <pt x="267" y="354" on="1"/>
        <pt x="191" y="236" on="1"/>
        <pt x="266" y="119" on="1"/>
        <pt x="270" y="114" on="0"/>
        <pt x="270" y="106" on="1"/>
        <pt x="270" y="98" on="0"/>
        <pt x="257" y="85" on="0"/>
        <pt x="247" y="85" on="1"/>
        <pt x="236" y="85" on="0"/>
        <pt x="230" y="95" on="1"/>
        <pt x="164" y="196" on="1"/>
        <pt x="98" y="95" on="1"/>
        <pt x="91" y="85" on="0"/>
        <pt x="80" y="85" on="1"/>
        <pt x="70" y="85" on="0"/>
        <pt x="56" y="98" on="0"/>
        <pt x="56" y="106" on="1"/>
        <pt x="56" y="111" on="0"/>
        <pt x="60" y="119" on="1"/>
      </contour>
    </TTGlyph>
    <TTGlyph name="A" xMin="23" yMin="0" xMax="507" yMax="737">
      <contour>
        <pt x="51" y="0" on="1"/>
        <pt x="41" y="0" on="0"/>
        <pt x="23" y="11" on="0"/>
        <pt x="23" y="22" on="1"/>
        <pt x="23" y="26" on="0"/>
        <pt x="24" y="28" on="1"/>
        <pt x="238" y="719" on="1"/>
        <pt x="244" y="737" on="0"/>
        <pt x="266" y="737" on="1"/>
        <pt x="275" y="737" on="0"/>
        <pt x="291" y="728" on="0"/>
        <pt x="294" y="719" on="1"/>
        <pt x="506" y="28" on="1"/>
        <pt x="506" y="26" on="0"/>
        <pt x="507" y="24" on="0"/>
        <pt x="507" y="22" on="1"/>
        <pt x="507" y="13" on="0"/>
        <pt x="489" y="0" on="0"/>
        <pt x="478" y="0" on="1"/>
        <pt x="462" y="0" on="0"/>
        <pt x="458" y="15" on="1"/>
        <pt x="409" y="174" on="1"/>
        <pt x="121" y="174" on="1"/>
        <pt x="73" y="15" on="1"/>
        <pt x="68" y="0" on="0"/>
      </contour>
      <contour>
        <pt x="395" y="220" on="1"/>
        <pt x="266" y="647" on="1"/>
        <pt x="134" y="220" on="1"/>
      </contour>
    </TTGlyph>
    <TTGlyph name="AE" xMin="76" yMin="0" xMax="670" yMax="731">
      <contour>
        <pt x="414" y="389" on="1"/>
        <pt x="568" y="389" on="1"/>
        <pt x="578" y="389" on="0"/>
        <pt x="589" y="375" on="0"/>
        <pt x="589" y="365" on="1"/>
        <pt x="589" y="357" on="0"/>
        <pt x="579" y="343" on="0"/>
        <pt x="568" y="343" on="1"/>
        <pt x="414" y="343" on="1"/>
        <pt x="414" y="48" on="1"/>
        <pt x="650" y="48" on="1"/>
        <pt x="660" y="48" on="0"/>
        <pt x="670" y="33" on="0"/>
        <pt x="670" y="23" on="1"/>
        <pt x="670" y="15" on="0"/>
        <pt x="661" y="0" on="0"/>
        <pt x="650" y="0" on="1"/>
        <pt x="388" y="0" on="1"/>
        <pt x="379" y="0" on="0"/>
        <pt x="364" y="11" on="0"/>
        <pt x="364" y="22" on="1"/>
        <pt x="364" y="343" on="1"/>
        <pt x="125" y="343" on="1"/>
        <pt x="125" y="27" on="1"/>
        <pt x="125" y="16" on="0"/>
        <pt x="117" y="0" on="0"/>
        <pt x="100" y="0" on="1"/>
        <pt x="87" y="0" on="0"/>
        <pt x="76" y="16" on="0"/>
        <pt x="76" y="27" on="1"/>
        <pt x="76" y="521" on="1"/>
        <pt x="76" y="578" on="0"/>
        <pt x="107" y="658" on="0"/>
        <pt x="162" y="708" on="0"/>
        <pt x="235" y="731" on="0"/>
        <pt x="277" y="731" on="1"/>
        <pt x="650" y="731" on="1"/>
        <pt x="661" y="731" on="0"/>
        <pt x="670" y="716" on="0"/>
        <pt x="670" y="708" on="1"/>
        <pt x="670" y="698" on="0"/>
        <pt x="660" y="683" on="0"/>
        <pt x="650" y="683" on="1"/>
        <pt x="414" y="683" on="1"/>
      </contour>
      <contour>
        <pt x="125" y="389" on="1"/>
        <pt x="364" y="389" on="1"/>
        <pt x="364" y="683" on="1"/>
        <pt x="277" y="683" on="1"/>
        <pt x="205" y="683" on="0"/>
        <pt x="125" y="605" on="0"/>
        <pt x="125" y="521" on="1"/>
      </contour>
    </TTGlyph>
    <TTGlyph name="AEacute" xMin="76" yMin="0" xMax="670" yMax="953">
      <contour>
        <pt x="321" y="855" on="1"/>
        <pt x="316" y="852" on="0"/>
        <pt x="311" y="852" on="1"/>
        <pt x="302" y="852" on="0"/>
        <pt x="289" y="866" on="0"/>
        <pt x="289" y="875" on="1"/>
        <pt x="289" y="886" on="0"/>
        <pt x="298" y="890" on="1"/>
        <pt x="405" y="951" on="1"/>
        <pt x="409" y="953" on="0"/>
        <pt x="413" y="953" on="1"/>
        <pt x="422" y="953" on="0"/>
        <pt x="432" y="938" on="0"/>
        <pt x="432" y="930" on="1"/>
        <pt x="432" y="917" on="0"/>
        <pt x="421" y="910" on="1"/>
      </contour>
      <contour>
        <pt x="414" y="389" on="1"/>
        <pt x="568" y="389" on="1"/>
        <pt x="578" y="389" on="0"/>
        <pt x="589" y="375" on="0"/>
        <pt x="589" y="365" on="1"/>
        <pt x="589" y="357" on="0"/>
        <pt x="579" y="343" on="0"/>
        <pt x="568" y="343" on="1"/>
        <pt x="414" y="343" on="1"/>
        <pt x="414" y="48" on="1"/>
        <pt x="650" y="48" on="1"/>
        <pt x="660" y="48" on="0"/>
        <pt x="670" y="33" on="0"/>
        <pt x="670" y="23" on="1"/>
        <pt x="670" y="15" on="0"/>
        <pt x="661" y="0" on="0"/>
        <pt x="650" y="0" on="1"/>
        <pt x="388" y="0" on="1"/>
        <pt x="379" y="0" on="0"/>
        <pt x="364" y="11" on="0"/>
        <pt x="364" y="22" on="1"/>
        <pt x="364" y="343" on="1"/>
        <pt x="125" y="343" on="1"/>
        <pt x="125" y="27" on="1"/>
        <pt x="125" y="16" on="0"/>
        <pt x="117" y="0" on="0"/>
        <pt x="100" y="0" on="1"/>
        <pt x="87" y="0" on="0"/>
        <pt x="76" y="16" on="0"/>
        <pt x="76" y="27" on="1"/>
        <pt x="76" y="521" on="1"/>
        <pt x="76" y="578" on="0"/>
        <pt x="107" y="658" on="0"/>
        <pt x="162" y="708" on="0"/>
        <pt x="235" y="731" on="0"/>
        <pt x="277" y="731" on="1"/>
        <pt x="650" y="731" on="1"/>
        <pt x="661" y="731" on="0"/>
        <pt x="670" y="716" on="0"/>
        <pt x="670" y="708" on="1"/>
        <pt x="670" y="698" on="0"/>
        <pt x="660" y="683" on="0"/>
        <pt x="650" y="683" on="1"/>
        <pt x="414" y="683" on="1"/>
      </contour>
      <contour>
        <pt x="125" y="389" on="1"/>
        <pt x="364" y="389" on="1"/>
        <pt x="364" y="683" on="1"/>
        <pt x="277" y="683" on="1"/>
        <pt x="205" y="683" on="0"/>
        <pt x="125" y="605" on="0"/>
        <pt x="125" y="521" on="1"/>
      </contour>
    </TTGlyph>
    <TTGlyph name="Aacute" xMin="23" yMin="0" xMax="507" yMax="954">
      <contour>
        <pt x="51" y="0" on="1"/>
        <pt x="41" y="0" on="0"/>
        <pt x="23" y="11" on="0"/>
        <pt x="23" y="22" on="1"/>
        <pt x="23" y="26" on="0"/>
        <pt x="24" y="28" on="1"/>
        <pt x="238" y="719" on="1"/>
        <pt x="244" y="737" on="0"/>
        <pt x="266" y="737" on="1"/>
        <pt x="275" y="737" on="0"/>
        <pt x="291" y="728" on="0"/>
        <pt x="294" y="719" on="1"/>
        <pt x="506" y="28" on="1"/>
        <pt x="506" y="26" on="0"/>
        <pt x="507" y="24" on="0"/>
        <pt x="507" y="22" on="1"/>
        <pt x="507" y="13" on="0"/>
        <pt x="489" y="0" on="0"/>
        <pt x="478" y="0" on="1"/>
        <pt x="462" y="0" on="0"/>
        <pt x="458" y="15" on="1"/>
        <pt x="409" y="174" on="1"/>
        <pt x="121" y="174" on="1"/>
        <pt x="73" y="15" on="1"/>
        <pt x="68" y="0" on="0"/>
      </contour>
      <contour>
        <pt x="395" y="220" on="1"/>
        <pt x="266" y="647" on="1"/>
        <pt x="134" y="220" on="1"/>
      </contour>
      <contour>
        <pt x="230" y="856" on="1"/>
        <pt x="225" y="853" on="0"/>
        <pt x="220" y="853" on="1"/>
        <pt x="211" y="853" on="0"/>
        <pt x="198" y="867" on="0"/>
        <pt x="198" y="876" on="1"/>
        <pt x="198" y="887" on="0"/>
        <pt x="207" y="891" on="1"/>
        <pt x="314" y="952" on="1"/>
        <pt x="318" y="954" on="0"/>
        <pt x="322" y="954" on="1"/>
        <pt x="331" y="954" on="0"/>
        <pt x="341" y="939" on="0"/>
        <pt x="341" y="931" on="1"/>
        <pt x="341" y="918" on="0"/>
        <pt x="330" y="911" on="1"/>
      </contour>
    </TTGlyph>
    <TTGlyph name="Abreve" xMin="23" yMin="0" xMax="507" yMax="969">
      <contour>
        <pt x="51" y="0" on="1"/>
        <pt x="41" y="0" on="0"/>
        <pt x="23" y="11" on="0"/>
        <pt x="23" y="22" on="1"/>
        <pt x="23" y="26" on="0"/>
        <pt x="24" y="28" on="1"/>
        <pt x="238" y="719" on="1"/>
        <pt x="244" y="737" on="0"/>
        <pt x="266" y="737" on="1"/>
        <pt x="275" y="737" on="0"/>
        <pt x="291" y="728" on="0"/>
        <pt x="294" y="719" on="1"/>
        <pt x="506" y="28" on="1"/>
        <pt x="506" y="26" on="0"/>
        <pt x="507" y="24" on="0"/>
        <pt x="507" y="22" on="1"/>
        <pt x="507" y="13" on="0"/>
        <pt x="489" y="0" on="0"/>
        <pt x="478" y="0" on="1"/>
        <pt x="462" y="0" on="0"/>
        <pt x="458" y="15" on="1"/>
        <pt x="409" y="174" on="1"/>
        <pt x="121" y="174" on="1"/>
        <pt x="73" y="15" on="1"/>
        <pt x="68" y="0" on="0"/>
      </contour>
      <contour>
        <pt x="395" y="220" on="1"/>
        <pt x="266" y="647" on="1"/>
        <pt x="134" y="220" on="1"/>
      </contour>
      <contour>
        <pt x="378" y="969" on="1"/>
        <pt x="378" y="946" on="0"/>
        <pt x="359" y="905" on="0"/>
        <pt x="328" y="874" on="0"/>
        <pt x="288" y="856" on="0"/>
        <pt x="266" y="856" on="1"/>
        <pt x="243" y="856" on="0"/>
        <pt x="203" y="874" on="0"/>
        <pt x="171" y="905" on="0"/>
        <pt x="153" y="946" on="0"/>
        <pt x="153" y="969" on="1"/>
        <pt x="191" y="969" on="1"/>
        <pt x="191" y="934" on="0"/>
        <pt x="235" y="887" on="0"/>
        <pt x="266" y="887" on="1"/>
        <pt x="281" y="887" on="0"/>
        <pt x="307" y="900" on="0"/>
        <pt x="328" y="922" on="0"/>
        <pt x="340" y="952" on="0"/>
        <pt x="340" y="969" on="1"/>
      </contour>
    </TTGlyph>
    <TTGlyph name="Acircumflex" xMin="23" yMin="0" xMax="507" yMax="954">
      <contour>
        <pt x="51" y="0" on="1"/>
        <pt x="41" y="0" on="0"/>
        <pt x="23" y="11" on="0"/>
        <pt x="23" y="22" on="1"/>
        <pt x="23" y="26" on="0"/>
        <pt x="24" y="28" on="1"/>
        <pt x="238" y="719" on="1"/>
        <pt x="244" y="737" on="0"/>
        <pt x="266" y="737" on="1"/>
        <pt x="275" y="737" on="0"/>
        <pt x="291" y="728" on="0"/>
        <pt x="294" y="719" on="1"/>
        <pt x="506" y="28" on="1"/>
        <pt x="506" y="26" on="0"/>
        <pt x="507" y="24" on="0"/>
        <pt x="507" y="22" on="1"/>
        <pt x="507" y="13" on="0"/>
        <pt x="489" y="0" on="0"/>
        <pt x="478" y="0" on="1"/>
        <pt x="462" y="0" on="0"/>
        <pt x="458" y="15" on="1"/>
        <pt x="409" y="174" on="1"/>
        <pt x="121" y="174" on="1"/>
        <pt x="73" y="15" on="1"/>
        <pt x="68" y="0" on="0"/>
      </contour>
      <contour>
        <pt x="395" y="220" on="1"/>
        <pt x="266" y="647" on="1"/>
        <pt x="134" y="220" on="1"/>
      </contour>
      <contour>
        <pt x="161" y="856" on="1"/>
        <pt x="159" y="855" on="0"/>
        <pt x="155" y="853" on="0"/>
        <pt x="153" y="853" on="1"/>
        <pt x="145" y="853" on="0"/>
        <pt x="133" y="866" on="0"/>
        <pt x="133" y="876" on="1"/>
        <pt x="133" y="887" on="0"/>
        <pt x="144" y="893" on="1"/>
        <pt x="248" y="949" on="1"/>
        <pt x="256" y="954" on="0"/>
        <pt x="265" y="954" on="1"/>
        <pt x="274" y="954" on="0"/>
        <pt x="282" y="949" on="1"/>
        <pt x="386" y="894" on="1"/>
        <pt x="397" y="888" on="0"/>
        <pt x="397" y="874" on="1"/>
        <pt x="397" y="866" on="0"/>
        <pt x="386" y="854" on="0"/>
        <pt x="378" y="854" on="1"/>
        <pt x="376" y="854" on="0"/>
        <pt x="371" y="856" on="0"/>
        <pt x="369" y="857" on="1"/>
        <pt x="265" y="912" on="1"/>
      </contour>
    </TTGlyph>
    <TTGlyph name="Adieresis" xMin="23" yMin="0" xMax="507" yMax="919">
      <contour>
        <pt x="51" y="0" on="1"/>
        <pt x="41" y="0" on="0"/>
        <pt x="23" y="11" on="0"/>
        <pt x="23" y="22" on="1"/>
        <pt x="23" y="26" on="0"/>
        <pt x="24" y="28" on="1"/>
        <pt x="238" y="719" on="1"/>
        <pt x="244" y="737" on="0"/>
        <pt x="266" y="737" on="1"/>
        <pt x="275" y="737" on="0"/>
        <pt x="291" y="728" on="0"/>
        <pt x="294" y="719" on="1"/>
        <pt x="506" y="28" on="1"/>
        <pt x="506" y="26" on="0"/>
        <pt x="507" y="24" on="0"/>
        <pt x="507" y="22" on="1"/>
        <pt x="507" y="13" on="0"/>
        <pt x="489" y="0" on="0"/>
        <pt x="478" y="0" on="1"/>
        <pt x="462" y="0" on="0"/>
        <pt x="458" y="15" on="1"/>
        <pt x="409" y="174" on="1"/>
        <pt x="121" y="174" on="1"/>
        <pt x="73" y="15" on="1"/>
        <pt x="68" y="0" on="0"/>
      </contour>
      <contour>
        <pt x="395" y="220" on="1"/>
        <pt x="266" y="647" on="1"/>
        <pt x="134" y="220" on="1"/>
      </contour>
      <contour>
        <pt x="207" y="919" on="1"/>
        <pt x="221" y="919" on="0"/>
        <pt x="239" y="901" on="0"/>
        <pt x="239" y="887" on="1"/>
        <pt x="239" y="873" on="0"/>
        <pt x="221" y="854" on="0"/>
        <pt x="207" y="854" on="1"/>
        <pt x="193" y="854" on="0"/>
        <pt x="174" y="873" on="0"/>
        <pt x="174" y="887" on="1"/>
        <pt x="174" y="901" on="0"/>
        <pt x="193" y="919" on="0"/>
      </contour>
      <contour>
        <pt x="324" y="919" on="1"/>
        <pt x="338" y="919" on="0"/>
        <pt x="356" y="901" on="0"/>
        <pt x="356" y="887" on="1"/>
        <pt x="356" y="873" on="0"/>
        <pt x="338" y="854" on="0"/>
        <pt x="324" y="854" on="1"/>
        <pt x="309" y="854" on="0"/>
        <pt x="291" y="873" on="0"/>
        <pt x="291" y="887" on="1"/>
        <pt x="291" y="901" on="0"/>
        <pt x="309" y="919" on="0"/>
      </contour>
    </TTGlyph>
    <TTGlyph name="Agrave" xMin="23" yMin="0" xMax="507" yMax="954">
      <contour>
        <pt x="51" y="0" on="1"/>
        <pt x="41" y="0" on="0"/>
        <pt x="23" y="11" on="0"/>
        <pt x="23" y="22" on="1"/>
        <pt x="23" y="26" on="0"/>
        <pt x="24" y="28" on="1"/>
        <pt x="238" y="719" on="1"/>
        <pt x="244" y="737" on="0"/>
        <pt x="266" y="737" on="1"/>
        <pt x="275" y="737" on="0"/>
        <pt x="291" y="728" on="0"/>
        <pt x="294" y="719" on="1"/>
        <pt x="506" y="28" on="1"/>
        <pt x="506" y="26" on="0"/>
        <pt x="507" y="24" on="0"/>
        <pt x="507" y="22" on="1"/>
        <pt x="507" y="13" on="0"/>
        <pt x="489" y="0" on="0"/>
        <pt x="478" y="0" on="1"/>
        <pt x="462" y="0" on="0"/>
        <pt x="458" y="15" on="1"/>
        <pt x="409" y="174" on="1"/>
        <pt x="121" y="174" on="1"/>
        <pt x="73" y="15" on="1"/>
        <pt x="68" y="0" on="0"/>
      </contour>
      <contour>
        <pt x="395" y="220" on="1"/>
        <pt x="266" y="647" on="1"/>
        <pt x="134" y="220" on="1"/>
      </contour>
      <contour>
        <pt x="203" y="911" on="1"/>
        <pt x="192" y="918" on="0"/>
        <pt x="192" y="931" on="1"/>
        <pt x="192" y="939" on="0"/>
        <pt x="203" y="954" on="0"/>
        <pt x="212" y="954" on="1"/>
        <pt x="215" y="954" on="0"/>
        <pt x="219" y="952" on="1"/>
        <pt x="326" y="891" on="1"/>
        <pt x="335" y="887" on="0"/>
        <pt x="335" y="876" on="1"/>
        <pt x="335" y="867" on="0"/>
        <pt x="322" y="853" on="0"/>
        <pt x="313" y="853" on="1"/>
        <pt x="309" y="853" on="0"/>
        <pt x="303" y="856" on="1"/>
      </contour>
    </TTGlyph>
    <TTGlyph name="Amacron" xMin="23" yMin="0" xMax="507" yMax="941">
      <contour>
        <pt x="51" y="0" on="1"/>
        <pt x="41" y="0" on="0"/>
        <pt x="23" y="11" on="0"/>
        <pt x="23" y="22" on="1"/>
        <pt x="23" y="26" on="0"/>
        <pt x="24" y="28" on="1"/>
        <pt x="238" y="719" on="1"/>
        <pt x="244" y="737" on="0"/>
        <pt x="266" y="737" on="1"/>
        <pt x="275" y="737" on="0"/>
        <pt x="291" y="728" on="0"/>
        <pt x="294" y="719" on="1"/>
        <pt x="506" y="28" on="1"/>
        <pt x="506" y="26" on="0"/>
        <pt x="507" y="24" on="0"/>
        <pt x="507" y="22" on="1"/>
        <pt x="507" y="13" on="0"/>
        <pt x="489" y="0" on="0"/>
        <pt x="478" y="0" on="1"/>
        <pt x="462" y="0" on="0"/>
        <pt x="458" y="15" on="1"/>
        <pt x="409" y="174" on="1"/>
        <pt x="121" y="174" on="1"/>
        <pt x="73" y="15" on="1"/>
        <pt x="68" y="0" on="0"/>
      </contour>
      <contour>
        <pt x="395" y="220" on="1"/>
        <pt x="266" y="647" on="1"/>
        <pt x="134" y="220" on="1"/>
      </contour>
      <contour>
        <pt x="136" y="919" on="1"/>
        <pt x="136" y="928" on="0"/>
        <pt x="147" y="941" on="0"/>
        <pt x="157" y="941" on="1"/>
        <pt x="374" y="941" on="1"/>
        <pt x="382" y="941" on="0"/>
        <pt x="396" y="928" on="0"/>
        <pt x="396" y="919" on="1"/>
        <pt x="396" y="910" on="0"/>
        <pt x="382" y="899" on="0"/>
        <pt x="374" y="899" on="1"/>
        <pt x="157" y="899" on="1"/>
        <pt x="136" y="899" on="0"/>
      </contour>
    </TTGlyph>
    <TTGlyph name="Aogonek" xMin="23" yMin="-198" xMax="507" yMax="737">
      <contour>
        <pt x="481" y="-167" on="1"/>
        <pt x="499" y="-167" on="0"/>
        <pt x="499" y="-183" on="1"/>
        <pt x="499" y="-191" on="0"/>
        <pt x="489" y="-198" on="0"/>
        <pt x="475" y="-198" on="1"/>
        <pt x="459" y="-198" on="0"/>
        <pt x="427" y="-191" on="0"/>
        <pt x="401" y="-175" on="0"/>
        <pt x="384" y="-147" on="0"/>
        <pt x="384" y="-127" on="1"/>
        <pt x="384" y="-85" on="0"/>
        <pt x="425" y="-14" on="0"/>
        <pt x="458" y="15" on="1"/>
        <pt x="409" y="174" on="1"/>
        <pt x="121" y="174" on="1"/>
        <pt x="73" y="15" on="1"/>
        <pt x="68" y="0" on="0"/>
        <pt x="51" y="0" on="1"/>
        <pt x="41" y="0" on="0"/>
        <pt x="23" y="11" on="0"/>
        <pt x="23" y="22" on="1"/>
        <pt x="23" y="26" on="0"/>
        <pt x="24" y="28" on="1"/>
        <pt x="238" y="719" on="1"/>
        <pt x="244" y="737" on="0"/>
        <pt x="266" y="737" on="1"/>
        <pt x="275" y="737" on="0"/>
        <pt x="291" y="728" on="0"/>
        <pt x="294" y="719" on="1"/>
        <pt x="506" y="28" on="1"/>
        <pt x="506" y="26" on="0"/>
        <pt x="507" y="24" on="0"/>
        <pt x="507" y="22" on="1"/>
        <pt x="507" y="10" on="0"/>
        <pt x="491" y="3" on="1"/>
        <pt x="460" y="-26" on="0"/>
        <pt x="418" y="-86" on="0"/>
        <pt x="418" y="-124" on="1"/>
        <pt x="418" y="-148" on="0"/>
        <pt x="452" y="-167" on="0"/>
      </contour>
      <contour>
        <pt x="395" y="220" on="1"/>
        <pt x="266" y="647" on="1"/>
        <pt x="134" y="220" on="1"/>
      </contour>
    </TTGlyph>
    <TTGlyph name="Aring" xMin="23" yMin="0" xMax="507" yMax="1025">
      <contour>
        <pt x="51" y="0" on="1"/>
        <pt x="41" y="0" on="0"/>
        <pt x="23" y="11" on="0"/>
        <pt x="23" y="22" on="1"/>
        <pt x="23" y="26" on="0"/>
        <pt x="24" y="28" on="1"/>
        <pt x="238" y="719" on="1"/>
        <pt x="244" y="737" on="0"/>
        <pt x="266" y="737" on="1"/>
        <pt x="275" y="737" on="0"/>
        <pt x="291" y="728" on="0"/>
        <pt x="294" y="719" on="1"/>
        <pt x="506" y="28" on="1"/>
        <pt x="506" y="26" on="0"/>
        <pt x="507" y="24" on="0"/>
        <pt x="507" y="22" on="1"/>
        <pt x="507" y="13" on="0"/>
        <pt x="489" y="0" on="0"/>
        <pt x="478" y="0" on="1"/>
        <pt x="462" y="0" on="0"/>
        <pt x="458" y="15" on="1"/>
        <pt x="409" y="174" on="1"/>
        <pt x="121" y="174" on="1"/>
        <pt x="73" y="15" on="1"/>
        <pt x="68" y="0" on="0"/>
      </contour>
      <contour>
        <pt x="395" y="220" on="1"/>
        <pt x="266" y="647" on="1"/>
        <pt x="134" y="220" on="1"/>
      </contour>
      <contour>
        <pt x="265" y="1025" on="1"/>
        <pt x="283" y="1025" on="0"/>
        <pt x="316" y="1010" on="0"/>
        <pt x="341" y="985" on="0"/>
        <pt x="356" y="951" on="0"/>
        <pt x="356" y="933" on="1"/>
        <pt x="356" y="914" on="0"/>
        <pt x="341" y="880" on="0"/>
        <pt x="316" y="854" on="0"/>
        <pt x="283" y="839" on="0"/>
        <pt x="265" y="839" on="1"/>
        <pt x="246" y="839" on="0"/>
        <pt x="213" y="854" on="0"/>
        <pt x="188" y="880" on="0"/>
        <pt x="174" y="914" on="0"/>
        <pt x="174" y="933" on="1"/>
        <pt x="174" y="951" on="0"/>
        <pt x="188" y="984" on="0"/>
        <pt x="213" y="1010" on="0"/>
        <pt x="246" y="1025" on="0"/>
      </contour>
      <contour>
        <pt x="327" y="933" on="1"/>
        <pt x="327" y="956" on="0"/>
        <pt x="291" y="995" on="0"/>
        <pt x="265" y="995" on="1"/>
        <pt x="252" y="995" on="0"/>
        <pt x="229" y="984" on="0"/>
        <pt x="212" y="966" on="0"/>
        <pt x="202" y="944" on="0"/>
        <pt x="202" y="933" on="1"/>
        <pt x="202" y="908" on="0"/>
        <pt x="239" y="866" on="0"/>
        <pt x="265" y="866" on="1"/>
        <pt x="291" y="866" on="0"/>
        <pt x="327" y="907" on="0"/>
      </contour>
    </TTGlyph>
    <TTGlyph name="Atilde" xMin="23" yMin="0" xMax="507" yMax="949">
      <contour>
        <pt x="51" y="0" on="1"/>
        <pt x="41" y="0" on="0"/>
        <pt x="23" y="11" on="0"/>
        <pt x="23" y="22" on="1"/>
        <pt x="23" y="26" on="0"/>
        <pt x="24" y="28" on="1"/>
        <pt x="238" y="719" on="1"/>
        <pt x="244" y="737" on="0"/>
        <pt x="266" y="737" on="1"/>
        <pt x="275" y="737" on="0"/>
        <pt x="291" y="728" on="0"/>
        <pt x="294" y="719" on="1"/>
        <pt x="506" y="28" on="1"/>
        <pt x="506" y="26" on="0"/>
        <pt x="507" y="24" on="0"/>
        <pt x="507" y="22" on="1"/>
        <pt x="507" y="13" on="0"/>
        <pt x="489" y="0" on="0"/>
        <pt x="478" y="0" on="1"/>
        <pt x="462" y="0" on="0"/>
        <pt x="458" y="15" on="1"/>
        <pt x="409" y="174" on="1"/>
        <pt x="121" y="174" on="1"/>
        <pt x="73" y="15" on="1"/>
        <pt x="68" y="0" on="0"/>
      </contour>
      <contour>
        <pt x="395" y="220" on="1"/>
        <pt x="266" y="647" on="1"/>
        <pt x="134" y="220" on="1"/>
      </contour>
      <contour>
        <pt x="202" y="907" on="1"/>
        <pt x="186" y="907" on="0"/>
        <pt x="164" y="897" on="0"/>
        <pt x="148" y="884" on="0"/>
        <pt x="137" y="874" on="0"/>
        <pt x="131" y="874" on="1"/>
        <pt x="123" y="874" on="0"/>
        <pt x="115" y="887" on="0"/>
        <pt x="115" y="895" on="1"/>
        <pt x="115" y="907" on="0"/>
        <pt x="133" y="926" on="0"/>
        <pt x="160" y="941" on="0"/>
        <pt x="191" y="949" on="0"/>
        <pt x="204" y="949" on="1"/>
        <pt x="223" y="949" on="0"/>
        <pt x="253" y="938" on="0"/>
        <pt x="282" y="924" on="0"/>
        <pt x="313" y="913" on="0"/>
        <pt x="333" y="913" on="1"/>
        <pt x="350" y="913" on="0"/>
        <pt x="370" y="923" on="0"/>
        <pt x="384" y="934" on="0"/>
        <pt x="394" y="944" on="0"/>
        <pt x="400" y="944" on="1"/>
        <pt x="408" y="944" on="0"/>
        <pt x="417" y="932" on="0"/>
        <pt x="417" y="925" on="1"/>
        <pt x="417" y="911" on="0"/>
        <pt x="399" y="891" on="0"/>
        <pt x="373" y="878" on="0"/>
        <pt x="344" y="871" on="0"/>
        <pt x="333" y="871" on="1"/>
        <pt x="314" y="871" on="0"/>
        <pt x="284" y="882" on="0"/>
        <pt x="254" y="896" on="0"/>
        <pt x="223" y="907" on="0"/>
      </contour>
    </TTGlyph>
    <TTGlyph name="B" xMin="79" yMin="0" xMax="482" yMax="731">
      <contour>
        <pt x="79" y="709" on="1"/>
        <pt x="79" y="720" on="0"/>
        <pt x="94" y="731" on="0"/>
        <pt x="103" y="731" on="1"/>
        <pt x="259" y="731" on="1"/>
        <pt x="302" y="731" on="0"/>
        <pt x="377" y="718" on="0"/>
        <pt x="432" y="681" on="0"/>
        <pt x="464" y="615" on="0"/>
        <pt x="464" y="563" on="1"/>
        <pt x="464" y="498" on="0"/>
        <pt x="417" y="413" on="0"/>
        <pt x="379" y="396" on="1"/>
        <pt x="402" y="386" on="0"/>
        <pt x="440" y="358" on="0"/>
        <pt x="467" y="317" on="0"/>
        <pt x="482" y="261" on="0"/>
        <pt x="482" y="222" on="1"/>
        <pt x="482" y="204" on="1"/>
        <pt x="482" y="147" on="0"/>
        <pt x="452" y="69" on="0"/>
        <pt x="399" y="21" on="0"/>
        <pt x="327" y="0" on="0"/>
        <pt x="285" y="0" on="1"/>
        <pt x="103" y="0" on="1"/>
        <pt x="92" y="0" on="0"/>
        <pt x="79" y="13" on="0"/>
        <pt x="79" y="21" on="1"/>
      </contour>
      <contour>
        <pt x="281" y="48" on="1"/>
        <pt x="352" y="48" on="0"/>
        <pt x="432" y="123" on="0"/>
        <pt x="432" y="206" on="1"/>
        <pt x="432" y="223" on="1"/>
        <pt x="432" y="264" on="0"/>
        <pt x="411" y="321" on="0"/>
        <pt x="372" y="357" on="0"/>
        <pt x="316" y="373" on="0"/>
        <pt x="281" y="373" on="1"/>
        <pt x="129" y="373" on="1"/>
        <pt x="129" y="48" on="1"/>
      </contour>
      <contour>
        <pt x="129" y="419" on="1"/>
        <pt x="264" y="419" on="1"/>
        <pt x="302" y="419" on="0"/>
        <pt x="359" y="433" on="0"/>
        <pt x="396" y="466" on="0"/>
        <pt x="414" y="519" on="0"/>
        <pt x="414" y="559" on="1"/>
        <pt x="414" y="598" on="0"/>
        <pt x="391" y="646" on="0"/>
        <pt x="350" y="673" on="0"/>
        <pt x="294" y="683" on="0"/>
        <pt x="260" y="683" on="1"/>
        <pt x="129" y="683" on="1"/>
      </contour>
    </TTGlyph>
    <TTGlyph name="C" xMin="72" yMin="-6" xMax="475" yMax="731">
      <contour>
        <pt x="425" y="557" on="1"/>
        <pt x="424" y="574" on="0"/>
        <pt x="412" y="618" on="0"/>
        <pt x="380" y="657" on="0"/>
        <pt x="322" y="683" on="0"/>
        <pt x="276" y="683" on="1"/>
        <pt x="201" y="683" on="0"/>
        <pt x="122" y="605" on="0"/>
        <pt x="122" y="521" on="1"/>
        <pt x="122" y="204" on="1"/>
        <pt x="122" y="119" on="0"/>
        <pt x="201" y="42" on="0"/>
        <pt x="279" y="42" on="1"/>
        <pt x="326" y="42" on="0"/>
        <pt x="381" y="68" on="0"/>
        <pt x="411" y="106" on="0"/>
        <pt x="422" y="150" on="0"/>
        <pt x="425" y="169" on="1"/>
        <pt x="426" y="178" on="0"/>
        <pt x="436" y="190" on="0"/>
        <pt x="449" y="190" on="1"/>
        <pt x="462" y="190" on="0"/>
        <pt x="475" y="177" on="0"/>
        <pt x="475" y="156" on="1"/>
        <pt x="475" y="125" on="0"/>
        <pt x="448" y="66" on="0"/>
        <pt x="397" y="21" on="0"/>
        <pt x="322" y="-6" on="0"/>
        <pt x="273" y="-6" on="1"/>
        <pt x="232" y="-6" on="0"/>
        <pt x="159" y="17" on="0"/>
        <pt x="104" y="67" on="0"/>
        <pt x="72" y="147" on="0"/>
        <pt x="72" y="204" on="1"/>
        <pt x="72" y="521" on="1"/>
        <pt x="72" y="578" on="0"/>
        <pt x="105" y="658" on="0"/>
        <pt x="160" y="708" on="0"/>
        <pt x="234" y="731" on="0"/>
        <pt x="276" y="731" on="1"/>
        <pt x="324" y="731" on="0"/>
        <pt x="399" y="704" on="0"/>
        <pt x="449" y="659" on="0"/>
        <pt x="475" y="600" on="0"/>
        <pt x="475" y="569" on="1"/>
        <pt x="475" y="549" on="0"/>
        <pt x="462" y="536" on="0"/>
        <pt x="450" y="536" on="1"/>
        <pt x="435" y="536" on="0"/>
        <pt x="425" y="549" on="0"/>
      </contour>
    </TTGlyph>
    <TTGlyph name="Cacute" xMin="72" yMin="-6" xMax="475" yMax="954">
      <contour>
        <pt x="236" y="856" on="1"/>
        <pt x="231" y="853" on="0"/>
        <pt x="226" y="853" on="1"/>
        <pt x="217" y="853" on="0"/>
        <pt x="204" y="867" on="0"/>
        <pt x="204" y="876" on="1"/>
        <pt x="204" y="887" on="0"/>
        <pt x="213" y="891" on="1"/>
        <pt x="320" y="952" on="1"/>
        <pt x="324" y="954" on="0"/>
        <pt x="328" y="954" on="1"/>
        <pt x="337" y="954" on="0"/>
        <pt x="347" y="939" on="0"/>
        <pt x="347" y="931" on="1"/>
        <pt x="347" y="918" on="0"/>
        <pt x="336" y="911" on="1"/>
      </contour>
      <contour>
        <pt x="425" y="557" on="1"/>
        <pt x="424" y="574" on="0"/>
        <pt x="412" y="618" on="0"/>
        <pt x="380" y="657" on="0"/>
        <pt x="322" y="683" on="0"/>
        <pt x="276" y="683" on="1"/>
        <pt x="201" y="683" on="0"/>
        <pt x="122" y="605" on="0"/>
        <pt x="122" y="521" on="1"/>
        <pt x="122" y="204" on="1"/>
        <pt x="122" y="119" on="0"/>
        <pt x="201" y="42" on="0"/>
        <pt x="279" y="42" on="1"/>
        <pt x="326" y="42" on="0"/>
        <pt x="381" y="68" on="0"/>
        <pt x="411" y="106" on="0"/>
        <pt x="422" y="150" on="0"/>
        <pt x="425" y="169" on="1"/>
        <pt x="426" y="178" on="0"/>
        <pt x="436" y="190" on="0"/>
        <pt x="449" y="190" on="1"/>
        <pt x="462" y="190" on="0"/>
        <pt x="475" y="177" on="0"/>
        <pt x="475" y="156" on="1"/>
        <pt x="475" y="125" on="0"/>
        <pt x="448" y="66" on="0"/>
        <pt x="397" y="21" on="0"/>
        <pt x="322" y="-6" on="0"/>
        <pt x="273" y="-6" on="1"/>
        <pt x="232" y="-6" on="0"/>
        <pt x="159" y="17" on="0"/>
        <pt x="104" y="67" on="0"/>
        <pt x="72" y="147" on="0"/>
        <pt x="72" y="204" on="1"/>
        <pt x="72" y="521" on="1"/>
        <pt x="72" y="578" on="0"/>
        <pt x="105" y="658" on="0"/>
        <pt x="160" y="708" on="0"/>
        <pt x="234" y="731" on="0"/>
        <pt x="276" y="731" on="1"/>
        <pt x="324" y="731" on="0"/>
        <pt x="399" y="704" on="0"/>
        <pt x="449" y="659" on="0"/>
        <pt x="475" y="600" on="0"/>
        <pt x="475" y="569" on="1"/>
        <pt x="475" y="549" on="0"/>
        <pt x="462" y="536" on="0"/>
        <pt x="450" y="536" on="1"/>
        <pt x="435" y="536" on="0"/>
        <pt x="425" y="549" on="0"/>
      </contour>
    </TTGlyph>
    <TTGlyph name="Ccaron" xMin="72" yMin="-6" xMax="475" yMax="988">
      <contour>
        <pt x="272" y="883" on="1"/>
        <pt x="370" y="981" on="1"/>
        <pt x="377" y="988" on="0"/>
        <pt x="386" y="988" on="1"/>
        <pt x="394" y="988" on="0"/>
        <pt x="403" y="976" on="0"/>
        <pt x="403" y="969" on="1"/>
        <pt x="403" y="962" on="0"/>
        <pt x="393" y="950" on="1"/>
        <pt x="292" y="854" on="1"/>
        <pt x="280" y="844" on="0"/>
        <pt x="272" y="844" on="1"/>
        <pt x="261" y="844" on="0"/>
        <pt x="251" y="854" on="1"/>
        <pt x="151" y="950" on="1"/>
        <pt x="141" y="960" on="0"/>
        <pt x="141" y="969" on="1"/>
        <pt x="141" y="976" on="0"/>
        <pt x="150" y="988" on="0"/>
        <pt x="158" y="988" on="1"/>
        <pt x="166" y="988" on="0"/>
        <pt x="173" y="981" on="1"/>
      </contour>
      <contour>
        <pt x="425" y="557" on="1"/>
        <pt x="424" y="574" on="0"/>
        <pt x="412" y="618" on="0"/>
        <pt x="380" y="657" on="0"/>
        <pt x="322" y="683" on="0"/>
        <pt x="276" y="683" on="1"/>
        <pt x="201" y="683" on="0"/>
        <pt x="122" y="605" on="0"/>
        <pt x="122" y="521" on="1"/>
        <pt x="122" y="204" on="1"/>
        <pt x="122" y="119" on="0"/>
        <pt x="201" y="42" on="0"/>
        <pt x="279" y="42" on="1"/>
        <pt x="326" y="42" on="0"/>
        <pt x="381" y="68" on="0"/>
        <pt x="411" y="106" on="0"/>
        <pt x="422" y="150" on="0"/>
        <pt x="425" y="169" on="1"/>
        <pt x="426" y="178" on="0"/>
        <pt x="436" y="190" on="0"/>
        <pt x="449" y="190" on="1"/>
        <pt x="462" y="190" on="0"/>
        <pt x="475" y="177" on="0"/>
        <pt x="475" y="156" on="1"/>
        <pt x="475" y="125" on="0"/>
        <pt x="448" y="66" on="0"/>
        <pt x="397" y="21" on="0"/>
        <pt x="322" y="-6" on="0"/>
        <pt x="273" y="-6" on="1"/>
        <pt x="232" y="-6" on="0"/>
        <pt x="159" y="17" on="0"/>
        <pt x="104" y="67" on="0"/>
        <pt x="72" y="147" on="0"/>
        <pt x="72" y="204" on="1"/>
        <pt x="72" y="521" on="1"/>
        <pt x="72" y="578" on="0"/>
        <pt x="105" y="658" on="0"/>
        <pt x="160" y="708" on="0"/>
        <pt x="234" y="731" on="0"/>
        <pt x="276" y="731" on="1"/>
        <pt x="324" y="731" on="0"/>
        <pt x="399" y="704" on="0"/>
        <pt x="449" y="659" on="0"/>
        <pt x="475" y="600" on="0"/>
        <pt x="475" y="569" on="1"/>
        <pt x="475" y="549" on="0"/>
        <pt x="462" y="536" on="0"/>
        <pt x="450" y="536" on="1"/>
        <pt x="435" y="536" on="0"/>
        <pt x="425" y="549" on="0"/>
      </contour>
    </TTGlyph>
    <TTGlyph name="Ccedilla" xMin="72" yMin="-208" xMax="475" yMax="731">
      <contour>
        <pt x="425" y="557" on="1"/>
        <pt x="424" y="574" on="0"/>
        <pt x="412" y="618" on="0"/>
        <pt x="380" y="657" on="0"/>
        <pt x="322" y="683" on="0"/>
        <pt x="276" y="683" on="1"/>
        <pt x="201" y="683" on="0"/>
        <pt x="122" y="605" on="0"/>
        <pt x="122" y="521" on="1"/>
        <pt x="122" y="204" on="1"/>
        <pt x="122" y="119" on="0"/>
        <pt x="201" y="42" on="0"/>
        <pt x="279" y="42" on="1"/>
        <pt x="326" y="42" on="0"/>
        <pt x="381" y="68" on="0"/>
        <pt x="411" y="106" on="0"/>
        <pt x="422" y="150" on="0"/>
        <pt x="425" y="169" on="1"/>
        <pt x="426" y="178" on="0"/>
        <pt x="436" y="190" on="0"/>
        <pt x="449" y="190" on="1"/>
        <pt x="462" y="190" on="0"/>
        <pt x="475" y="177" on="0"/>
        <pt x="475" y="156" on="1"/>
        <pt x="475" y="128" on="0"/>
        <pt x="453" y="75" on="0"/>
        <pt x="411" y="31" on="0"/>
        <pt x="349" y="1" on="0"/>
        <pt x="309" y="-3" on="1"/>
        <pt x="294" y="-63" on="1"/>
        <pt x="345" y="-65" on="0"/>
        <pt x="389" y="-108" on="0"/>
        <pt x="389" y="-134" on="1"/>
        <pt x="389" y="-162" on="0"/>
        <pt x="346" y="-208" on="0"/>
        <pt x="304" y="-208" on="1"/>
        <pt x="295" y="-208" on="0"/>
        <pt x="269" y="-205" on="0"/>
        <pt x="245" y="-199" on="0"/>
        <pt x="228" y="-190" on="0"/>
        <pt x="228" y="-184" on="1"/>
        <pt x="228" y="-179" on="0"/>
        <pt x="236" y="-163" on="0"/>
        <pt x="242" y="-163" on="1"/>
        <pt x="247" y="-163" on="0"/>
        <pt x="273" y="-176" on="0"/>
        <pt x="298" y="-176" on="1"/>
        <pt x="328" y="-176" on="0"/>
        <pt x="352" y="-152" on="0"/>
        <pt x="352" y="-136" on="1"/>
        <pt x="352" y="-114" on="0"/>
        <pt x="316" y="-94" on="0"/>
        <pt x="285" y="-92" on="1"/>
        <pt x="252" y="-90" on="1"/>
        <pt x="273" y="-6" on="1"/>
        <pt x="232" y="-6" on="0"/>
        <pt x="159" y="17" on="0"/>
        <pt x="104" y="67" on="0"/>
        <pt x="72" y="147" on="0"/>
        <pt x="72" y="204" on="1"/>
        <pt x="72" y="521" on="1"/>
        <pt x="72" y="578" on="0"/>
        <pt x="105" y="658" on="0"/>
        <pt x="160" y="708" on="0"/>
        <pt x="234" y="731" on="0"/>
        <pt x="276" y="731" on="1"/>
        <pt x="324" y="731" on="0"/>
        <pt x="399" y="704" on="0"/>
        <pt x="449" y="659" on="0"/>
        <pt x="475" y="600" on="0"/>
        <pt x="475" y="569" on="1"/>
        <pt x="475" y="549" on="0"/>
        <pt x="462" y="536" on="0"/>
        <pt x="450" y="536" on="1"/>
        <pt x="435" y="536" on="0"/>
        <pt x="425" y="549" on="0"/>
      </contour>
    </TTGlyph>
    <TTGlyph name="Ccircumflex" xMin="72" yMin="-6" xMax="475" yMax="954">
      <contour>
        <pt x="169" y="856" on="1"/>
        <pt x="167" y="855" on="0"/>
        <pt x="163" y="853" on="0"/>
        <pt x="161" y="853" on="1"/>
        <pt x="153" y="853" on="0"/>
        <pt x="141" y="866" on="0"/>
        <pt x="141" y="876" on="1"/>
        <pt x="141" y="887" on="0"/>
        <pt x="152" y="893" on="1"/>
        <pt x="256" y="949" on="1"/>
        <pt x="264" y="954" on="0"/>
        <pt x="273" y="954" on="1"/>
        <pt x="282" y="954" on="0"/>
        <pt x="290" y="949" on="1"/>
        <pt x="394" y="894" on="1"/>
        <pt x="405" y="888" on="0"/>
        <pt x="405" y="874" on="1"/>
        <pt x="405" y="866" on="0"/>
        <pt x="394" y="854" on="0"/>
        <pt x="386" y="854" on="1"/>
        <pt x="384" y="854" on="0"/>
        <pt x="379" y="856" on="0"/>
        <pt x="377" y="857" on="1"/>
        <pt x="273" y="912" on="1"/>
      </contour>
      <contour>
        <pt x="425" y="557" on="1"/>
        <pt x="424" y="574" on="0"/>
        <pt x="412" y="618" on="0"/>
        <pt x="380" y="657" on="0"/>
        <pt x="322" y="683" on="0"/>
        <pt x="276" y="683" on="1"/>
        <pt x="201" y="683" on="0"/>
        <pt x="122" y="605" on="0"/>
        <pt x="122" y="521" on="1"/>
        <pt x="122" y="204" on="1"/>
        <pt x="122" y="119" on="0"/>
        <pt x="201" y="42" on="0"/>
        <pt x="279" y="42" on="1"/>
        <pt x="326" y="42" on="0"/>
        <pt x="381" y="68" on="0"/>
        <pt x="411" y="106" on="0"/>
        <pt x="422" y="150" on="0"/>
        <pt x="425" y="169" on="1"/>
        <pt x="426" y="178" on="0"/>
        <pt x="436" y="190" on="0"/>
        <pt x="449" y="190" on="1"/>
        <pt x="462" y="190" on="0"/>
        <pt x="475" y="177" on="0"/>
        <pt x="475" y="156" on="1"/>
        <pt x="475" y="125" on="0"/>
        <pt x="448" y="66" on="0"/>
        <pt x="397" y="21" on="0"/>
        <pt x="322" y="-6" on="0"/>
        <pt x="273" y="-6" on="1"/>
        <pt x="232" y="-6" on="0"/>
        <pt x="159" y="17" on="0"/>
        <pt x="104" y="67" on="0"/>
        <pt x="72" y="147" on="0"/>
        <pt x="72" y="204" on="1"/>
        <pt x="72" y="521" on="1"/>
        <pt x="72" y="578" on="0"/>
        <pt x="105" y="658" on="0"/>
        <pt x="160" y="708" on="0"/>
        <pt x="234" y="731" on="0"/>
        <pt x="276" y="731" on="1"/>
        <pt x="324" y="731" on="0"/>
        <pt x="399" y="704" on="0"/>
        <pt x="449" y="659" on="0"/>
        <pt x="475" y="600" on="0"/>
        <pt x="475" y="569" on="1"/>
        <pt x="475" y="549" on="0"/>
        <pt x="462" y="536" on="0"/>
        <pt x="450" y="536" on="1"/>
        <pt x="435" y="536" on="0"/>
        <pt x="425" y="549" on="0"/>
      </contour>
    </TTGlyph>
    <TTGlyph name="Cdotaccent" xMin="72" yMin="-6" xMax="475" yMax="919">
      <contour>
        <pt x="425" y="557" on="1"/>
        <pt x="424" y="574" on="0"/>
        <pt x="412" y="618" on="0"/>
        <pt x="380" y="657" on="0"/>
        <pt x="322" y="683" on="0"/>
        <pt x="276" y="683" on="1"/>
        <pt x="201" y="683" on="0"/>
        <pt x="122" y="605" on="0"/>
        <pt x="122" y="521" on="1"/>
        <pt x="122" y="204" on="1"/>
        <pt x="122" y="119" on="0"/>
        <pt x="201" y="42" on="0"/>
        <pt x="279" y="42" on="1"/>
        <pt x="326" y="42" on="0"/>
        <pt x="381" y="68" on="0"/>
        <pt x="411" y="106" on="0"/>
        <pt x="422" y="150" on="0"/>
        <pt x="425" y="169" on="1"/>
        <pt x="426" y="178" on="0"/>
        <pt x="436" y="190" on="0"/>
        <pt x="449" y="190" on="1"/>
        <pt x="462" y="190" on="0"/>
        <pt x="475" y="177" on="0"/>
        <pt x="475" y="156" on="1"/>
        <pt x="475" y="125" on="0"/>
        <pt x="448" y="66" on="0"/>
        <pt x="397" y="21" on="0"/>
        <pt x="322" y="-6" on="0"/>
        <pt x="273" y="-6" on="1"/>
        <pt x="232" y="-6" on="0"/>
        <pt x="159" y="17" on="0"/>
        <pt x="104" y="67" on="0"/>
        <pt x="72" y="147" on="0"/>
        <pt x="72" y="204" on="1"/>
        <pt x="72" y="521" on="1"/>
        <pt x="72" y="578" on="0"/>
        <pt x="105" y="658" on="0"/>
        <pt x="160" y="708" on="0"/>
        <pt x="234" y="731" on="0"/>
        <pt x="276" y="731" on="1"/>
        <pt x="324" y="731" on="0"/>
        <pt x="399" y="704" on="0"/>
        <pt x="449" y="659" on="0"/>
        <pt x="475" y="600" on="0"/>
        <pt x="475" y="569" on="1"/>
        <pt x="475" y="549" on="0"/>
        <pt x="462" y="536" on="0"/>
        <pt x="450" y="536" on="1"/>
        <pt x="435" y="536" on="0"/>
        <pt x="425" y="549" on="0"/>
      </contour>
      <contour>
        <pt x="273" y="919" on="1"/>
        <pt x="287" y="919" on="0"/>
        <pt x="306" y="901" on="0"/>
        <pt x="306" y="887" on="1"/>
        <pt x="306" y="873" on="0"/>
        <pt x="287" y="854" on="0"/>
        <pt x="273" y="854" on="1"/>
        <pt x="259" y="854" on="0"/>
        <pt x="240" y="873" on="0"/>
        <pt x="240" y="887" on="1"/>
        <pt x="240" y="901" on="0"/>
        <pt x="259" y="919" on="0"/>
      </contour>
    </TTGlyph>
    <TTGlyph name="D" xMin="79" yMin="0" xMax="482" yMax="731">
      <contour>
        <pt x="280" y="731" on="1"/>
        <pt x="322" y="731" on="0"/>
        <pt x="396" y="708" on="0"/>
        <pt x="451" y="658" on="0"/>
        <pt x="482" y="578" on="0"/>
        <pt x="482" y="521" on="1"/>
        <pt x="482" y="210" on="1"/>
        <pt x="482" y="153" on="0"/>
        <pt x="451" y="73" on="0"/>
        <pt x="396" y="23" on="0"/>
        <pt x="322" y="0" on="0"/>
        <pt x="280" y="0" on="1"/>
        <pt x="103" y="0" on="1"/>
        <pt x="92" y="0" on="0"/>
        <pt x="79" y="13" on="0"/>
        <pt x="79" y="21" on="1"/>
        <pt x="79" y="710" on="1"/>
        <pt x="79" y="718" on="0"/>
        <pt x="92" y="731" on="0"/>
        <pt x="103" y="731" on="1"/>
      </contour>
      <contour>
        <pt x="129" y="683" on="1"/>
        <pt x="129" y="48" on="1"/>
        <pt x="280" y="48" on="1"/>
        <pt x="352" y="48" on="0"/>
        <pt x="432" y="126" on="0"/>
        <pt x="432" y="210" on="1"/>
        <pt x="432" y="521" on="1"/>
        <pt x="432" y="605" on="0"/>
        <pt x="352" y="683" on="0"/>
        <pt x="280" y="683" on="1"/>
      </contour>
    </TTGlyph>
    <TTGlyph name="Dcaron" xMin="79" yMin="0" xMax="482" yMax="988">
      <contour>
        <pt x="277" y="883" on="1"/>
        <pt x="375" y="981" on="1"/>
        <pt x="382" y="988" on="0"/>
        <pt x="391" y="988" on="1"/>
        <pt x="399" y="988" on="0"/>
        <pt x="408" y="976" on="0"/>
        <pt x="408" y="969" on="1"/>
        <pt x="408" y="962" on="0"/>
        <pt x="398" y="950" on="1"/>
        <pt x="297" y="854" on="1"/>
        <pt x="285" y="844" on="0"/>
        <pt x="277" y="844" on="1"/>
        <pt x="266" y="844" on="0"/>
        <pt x="256" y="854" on="1"/>
        <pt x="156" y="950" on="1"/>
        <pt x="146" y="960" on="0"/>
        <pt x="146" y="969" on="1"/>
        <pt x="146" y="976" on="0"/>
        <pt x="155" y="988" on="0"/>
        <pt x="163" y="988" on="1"/>
        <pt x="171" y="988" on="0"/>
        <pt x="178" y="981" on="1"/>
      </contour>
      <contour>
        <pt x="280" y="731" on="1"/>
        <pt x="322" y="731" on="0"/>
        <pt x="396" y="708" on="0"/>
        <pt x="451" y="658" on="0"/>
        <pt x="482" y="578" on="0"/>
        <pt x="482" y="521" on="1"/>
        <pt x="482" y="210" on="1"/>
        <pt x="482" y="153" on="0"/>
        <pt x="451" y="73" on="0"/>
        <pt x="396" y="23" on="0"/>
        <pt x="322" y="0" on="0"/>
        <pt x="280" y="0" on="1"/>
        <pt x="103" y="0" on="1"/>
        <pt x="92" y="0" on="0"/>
        <pt x="79" y="13" on="0"/>
        <pt x="79" y="21" on="1"/>
        <pt x="79" y="710" on="1"/>
        <pt x="79" y="718" on="0"/>
        <pt x="92" y="731" on="0"/>
        <pt x="103" y="731" on="1"/>
      </contour>
      <contour>
        <pt x="129" y="683" on="1"/>
        <pt x="129" y="48" on="1"/>
        <pt x="280" y="48" on="1"/>
        <pt x="352" y="48" on="0"/>
        <pt x="432" y="126" on="0"/>
        <pt x="432" y="210" on="1"/>
        <pt x="432" y="521" on="1"/>
        <pt x="432" y="605" on="0"/>
        <pt x="352" y="683" on="0"/>
        <pt x="280" y="683" on="1"/>
      </contour>
    </TTGlyph>
    <TTGlyph name="Dcroat" xMin="1" yMin="0" xMax="492" yMax="731">
      <contour>
        <pt x="290" y="731" on="1"/>
        <pt x="332" y="731" on="0"/>
        <pt x="406" y="708" on="0"/>
        <pt x="461" y="658" on="0"/>
        <pt x="492" y="578" on="0"/>
        <pt x="492" y="521" on="1"/>
        <pt x="492" y="210" on="1"/>
        <pt x="492" y="153" on="0"/>
        <pt x="461" y="73" on="0"/>
        <pt x="406" y="23" on="0"/>
        <pt x="332" y="0" on="0"/>
        <pt x="290" y="0" on="1"/>
        <pt x="113" y="0" on="1"/>
        <pt x="102" y="0" on="0"/>
        <pt x="89" y="13" on="0"/>
        <pt x="89" y="21" on="1"/>
        <pt x="89" y="362" on="1"/>
        <pt x="21" y="362" on="1"/>
        <pt x="12" y="362" on="0"/>
        <pt x="1" y="375" on="0"/>
        <pt x="1" y="384" on="1"/>
        <pt x="1" y="393" on="0"/>
        <pt x="12" y="406" on="0"/>
        <pt x="21" y="406" on="1"/>
        <pt x="89" y="406" on="1"/>
        <pt x="89" y="710" on="1"/>
        <pt x="89" y="718" on="0"/>
        <pt x="102" y="731" on="0"/>
        <pt x="113" y="731" on="1"/>
      </contour>
      <contour>
        <pt x="139" y="683" on="1"/>
        <pt x="139" y="406" on="1"/>
        <pt x="262" y="406" on="1"/>
        <pt x="270" y="406" on="0"/>
        <pt x="282" y="393" on="0"/>
        <pt x="282" y="384" on="1"/>
        <pt x="282" y="375" on="0"/>
        <pt x="270" y="362" on="0"/>
        <pt x="262" y="362" on="1"/>
        <pt x="139" y="362" on="1"/>
        <pt x="139" y="48" on="1"/>
        <pt x="290" y="48" on="1"/>
        <pt x="362" y="48" on="0"/>
        <pt x="442" y="126" on="0"/>
        <pt x="442" y="210" on="1"/>
        <pt x="442" y="521" on="1"/>
        <pt x="442" y="605" on="0"/>
        <pt x="362" y="683" on="0"/>
        <pt x="290" y="683" on="1"/>
      </contour>
    </TTGlyph>
    <TTGlyph name="Delta" xMin="24" yMin="0" xMax="473" yMax="737">
      <contour>
        <pt x="472" y="30" on="1"/>
        <pt x="473" y="26" on="0"/>
        <pt x="473" y="20" on="1"/>
        <pt x="473" y="0" on="0"/>
        <pt x="450" y="0" on="1"/>
        <pt x="47" y="0" on="1"/>
        <pt x="37" y="0" on="0"/>
        <pt x="24" y="10" on="0"/>
        <pt x="24" y="20" on="1"/>
        <pt x="24" y="22" on="0"/>
        <pt x="26" y="30" on="1"/>
        <pt x="221" y="718" on="1"/>
        <pt x="227" y="737" on="0"/>
        <pt x="249" y="737" on="1"/>
        <pt x="272" y="737" on="0"/>
        <pt x="278" y="718" on="1"/>
      </contour>
      <contour>
        <pt x="414" y="48" on="1"/>
        <pt x="249" y="648" on="1"/>
        <pt x="82" y="48" on="1"/>
      </contour>
    </TTGlyph>
    <TTGlyph name="E" xMin="79" yMin="0" xMax="480" yMax="731">
      <contour>
        <pt x="129" y="389" on="1"/>
        <pt x="288" y="389" on="1"/>
        <pt x="298" y="389" on="0"/>
        <pt x="309" y="375" on="0"/>
        <pt x="309" y="365" on="1"/>
        <pt x="309" y="357" on="0"/>
        <pt x="299" y="343" on="0"/>
        <pt x="288" y="343" on="1"/>
        <pt x="129" y="343" on="1"/>
        <pt x="129" y="48" on="1"/>
        <pt x="459" y="48" on="1"/>
        <pt x="469" y="48" on="0"/>
        <pt x="480" y="33" on="0"/>
        <pt x="480" y="23" on="1"/>
        <pt x="480" y="15" on="0"/>
        <pt x="470" y="0" on="0"/>
        <pt x="459" y="0" on="1"/>
        <pt x="103" y="0" on="1"/>
        <pt x="94" y="0" on="0"/>
        <pt x="79" y="11" on="0"/>
        <pt x="79" y="22" on="1"/>
        <pt x="79" y="709" on="1"/>
        <pt x="79" y="720" on="0"/>
        <pt x="94" y="731" on="0"/>
        <pt x="103" y="731" on="1"/>
        <pt x="459" y="731" on="1"/>
        <pt x="470" y="731" on="0"/>
        <pt x="480" y="716" on="0"/>
        <pt x="480" y="708" on="1"/>
        <pt x="480" y="698" on="0"/>
        <pt x="469" y="683" on="0"/>
        <pt x="459" y="683" on="1"/>
        <pt x="129" y="683" on="1"/>
      </contour>
    </TTGlyph>
    <TTGlyph name="Eacute" xMin="79" yMin="0" xMax="480" yMax="954">
      <contour>
        <pt x="242" y="856" on="1"/>
        <pt x="237" y="853" on="0"/>
        <pt x="232" y="853" on="1"/>
        <pt x="223" y="853" on="0"/>
        <pt x="210" y="867" on="0"/>
        <pt x="210" y="876" on="1"/>
        <pt x="210" y="887" on="0"/>
        <pt x="219" y="891" on="1"/>
        <pt x="326" y="952" on="1"/>
        <pt x="330" y="954" on="0"/>
        <pt x="334" y="954" on="1"/>
        <pt x="343" y="954" on="0"/>
        <pt x="353" y="939" on="0"/>
        <pt x="353" y="931" on="1"/>
        <pt x="353" y="918" on="0"/>
        <pt x="342" y="911" on="1"/>
      </contour>
      <contour>
        <pt x="129" y="389" on="1"/>
        <pt x="288" y="389" on="1"/>
        <pt x="298" y="389" on="0"/>
        <pt x="309" y="375" on="0"/>
        <pt x="309" y="365" on="1"/>
        <pt x="309" y="357" on="0"/>
        <pt x="299" y="343" on="0"/>
        <pt x="288" y="343" on="1"/>
        <pt x="129" y="343" on="1"/>
        <pt x="129" y="48" on="1"/>
        <pt x="459" y="48" on="1"/>
        <pt x="469" y="48" on="0"/>
        <pt x="480" y="33" on="0"/>
        <pt x="480" y="23" on="1"/>
        <pt x="480" y="15" on="0"/>
        <pt x="470" y="0" on="0"/>
        <pt x="459" y="0" on="1"/>
        <pt x="103" y="0" on="1"/>
        <pt x="94" y="0" on="0"/>
        <pt x="79" y="11" on="0"/>
        <pt x="79" y="22" on="1"/>
        <pt x="79" y="709" on="1"/>
        <pt x="79" y="720" on="0"/>
        <pt x="94" y="731" on="0"/>
        <pt x="103" y="731" on="1"/>
        <pt x="459" y="731" on="1"/>
        <pt x="470" y="731" on="0"/>
        <pt x="480" y="716" on="0"/>
        <pt x="480" y="708" on="1"/>
        <pt x="480" y="698" on="0"/>
        <pt x="469" y="683" on="0"/>
        <pt x="459" y="683" on="1"/>
        <pt x="129" y="683" on="1"/>
      </contour>
    </TTGlyph>
    <TTGlyph name="Ebreve" xMin="79" yMin="0" xMax="480" yMax="969">
      <contour>
        <pt x="129" y="389" on="1"/>
        <pt x="288" y="389" on="1"/>
        <pt x="298" y="389" on="0"/>
        <pt x="309" y="375" on="0"/>
        <pt x="309" y="365" on="1"/>
        <pt x="309" y="357" on="0"/>
        <pt x="299" y="343" on="0"/>
        <pt x="288" y="343" on="1"/>
        <pt x="129" y="343" on="1"/>
        <pt x="129" y="48" on="1"/>
        <pt x="459" y="48" on="1"/>
        <pt x="469" y="48" on="0"/>
        <pt x="480" y="33" on="0"/>
        <pt x="480" y="23" on="1"/>
        <pt x="480" y="15" on="0"/>
        <pt x="470" y="0" on="0"/>
        <pt x="459" y="0" on="1"/>
        <pt x="103" y="0" on="1"/>
        <pt x="94" y="0" on="0"/>
        <pt x="79" y="11" on="0"/>
        <pt x="79" y="22" on="1"/>
        <pt x="79" y="709" on="1"/>
        <pt x="79" y="720" on="0"/>
        <pt x="94" y="731" on="0"/>
        <pt x="103" y="731" on="1"/>
        <pt x="459" y="731" on="1"/>
        <pt x="470" y="731" on="0"/>
        <pt x="480" y="716" on="0"/>
        <pt x="480" y="708" on="1"/>
        <pt x="480" y="698" on="0"/>
        <pt x="469" y="683" on="0"/>
        <pt x="459" y="683" on="1"/>
        <pt x="129" y="683" on="1"/>
      </contour>
      <contour>
        <pt x="391" y="969" on="1"/>
        <pt x="391" y="946" on="0"/>
        <pt x="372" y="905" on="0"/>
        <pt x="341" y="874" on="0"/>
        <pt x="301" y="856" on="0"/>
        <pt x="279" y="856" on="1"/>
        <pt x="256" y="856" on="0"/>
        <pt x="216" y="874" on="0"/>
        <pt x="184" y="905" on="0"/>
        <pt x="166" y="946" on="0"/>
        <pt x="166" y="969" on="1"/>
        <pt x="204" y="969" on="1"/>
        <pt x="204" y="934" on="0"/>
        <pt x="248" y="887" on="0"/>
        <pt x="279" y="887" on="1"/>
        <pt x="294" y="887" on="0"/>
        <pt x="320" y="900" on="0"/>
        <pt x="341" y="922" on="0"/>
        <pt x="353" y="952" on="0"/>
        <pt x="353" y="969" on="1"/>
      </contour>
    </TTGlyph>
    <TTGlyph name="Ecaron" xMin="79" yMin="0" xMax="480" yMax="988">
      <contour>
        <pt x="278" y="883" on="1"/>
        <pt x="376" y="981" on="1"/>
        <pt x="383" y="988" on="0"/>
        <pt x="392" y="988" on="1"/>
        <pt x="400" y="988" on="0"/>
        <pt x="409" y="976" on="0"/>
        <pt x="409" y="969" on="1"/>
        <pt x="409" y="962" on="0"/>
        <pt x="399" y="950" on="1"/>
        <pt x="298" y="854" on="1"/>
        <pt x="286" y="844" on="0"/>
        <pt x="278" y="844" on="1"/>
        <pt x="267" y="844" on="0"/>
        <pt x="257" y="854" on="1"/>
        <pt x="157" y="950" on="1"/>
        <pt x="147" y="960" on="0"/>
        <pt x="147" y="969" on="1"/>
        <pt x="147" y="976" on="0"/>
        <pt x="156" y="988" on="0"/>
        <pt x="164" y="988" on="1"/>
        <pt x="172" y="988" on="0"/>
        <pt x="179" y="981" on="1"/>
      </contour>
      <contour>
        <pt x="129" y="389" on="1"/>
        <pt x="288" y="389" on="1"/>
        <pt x="298" y="389" on="0"/>
        <pt x="309" y="375" on="0"/>
        <pt x="309" y="365" on="1"/>
        <pt x="309" y="357" on="0"/>
        <pt x="299" y="343" on="0"/>
        <pt x="288" y="343" on="1"/>
        <pt x="129" y="343" on="1"/>
        <pt x="129" y="48" on="1"/>
        <pt x="459" y="48" on="1"/>
        <pt x="469" y="48" on="0"/>
        <pt x="480" y="33" on="0"/>
        <pt x="480" y="23" on="1"/>
        <pt x="480" y="15" on="0"/>
        <pt x="470" y="0" on="0"/>
        <pt x="459" y="0" on="1"/>
        <pt x="103" y="0" on="1"/>
        <pt x="94" y="0" on="0"/>
        <pt x="79" y="11" on="0"/>
        <pt x="79" y="22" on="1"/>
        <pt x="79" y="709" on="1"/>
        <pt x="79" y="720" on="0"/>
        <pt x="94" y="731" on="0"/>
        <pt x="103" y="731" on="1"/>
        <pt x="459" y="731" on="1"/>
        <pt x="470" y="731" on="0"/>
        <pt x="480" y="716" on="0"/>
        <pt x="480" y="708" on="1"/>
        <pt x="480" y="698" on="0"/>
        <pt x="469" y="683" on="0"/>
        <pt x="459" y="683" on="1"/>
        <pt x="129" y="683" on="1"/>
      </contour>
    </TTGlyph>
    <TTGlyph name="Ecircumflex" xMin="79" yMin="0" xMax="480" yMax="954">
      <contour>
        <pt x="176" y="856" on="1"/>
        <pt x="174" y="855" on="0"/>
        <pt x="170" y="853" on="0"/>
        <pt x="168" y="853" on="1"/>
        <pt x="160" y="853" on="0"/>
        <pt x="148" y="866" on="0"/>
        <pt x="148" y="876" on="1"/>
        <pt x="148" y="887" on="0"/>
        <pt x="159" y="893" on="1"/>
        <pt x="263" y="949" on="1"/>
        <pt x="271" y="954" on="0"/>
        <pt x="280" y="954" on="1"/>
        <pt x="289" y="954" on="0"/>
        <pt x="297" y="949" on="1"/>
        <pt x="401" y="894" on="1"/>
        <pt x="412" y="888" on="0"/>
        <pt x="412" y="874" on="1"/>
        <pt x="412" y="866" on="0"/>
        <pt x="401" y="854" on="0"/>
        <pt x="393" y="854" on="1"/>
        <pt x="391" y="854" on="0"/>
        <pt x="386" y="856" on="0"/>
        <pt x="384" y="857" on="1"/>
        <pt x="280" y="912" on="1"/>
      </contour>
      <contour>
        <pt x="129" y="389" on="1"/>
        <pt x="288" y="389" on="1"/>
        <pt x="298" y="389" on="0"/>
        <pt x="309" y="375" on="0"/>
        <pt x="309" y="365" on="1"/>
        <pt x="309" y="357" on="0"/>
        <pt x="299" y="343" on="0"/>
        <pt x="288" y="343" on="1"/>
        <pt x="129" y="343" on="1"/>
        <pt x="129" y="48" on="1"/>
        <pt x="459" y="48" on="1"/>
        <pt x="469" y="48" on="0"/>
        <pt x="480" y="33" on="0"/>
        <pt x="480" y="23" on="1"/>
        <pt x="480" y="15" on="0"/>
        <pt x="470" y="0" on="0"/>
        <pt x="459" y="0" on="1"/>
        <pt x="103" y="0" on="1"/>
        <pt x="94" y="0" on="0"/>
        <pt x="79" y="11" on="0"/>
        <pt x="79" y="22" on="1"/>
        <pt x="79" y="709" on="1"/>
        <pt x="79" y="720" on="0"/>
        <pt x="94" y="731" on="0"/>
        <pt x="103" y="731" on="1"/>
        <pt x="459" y="731" on="1"/>
        <pt x="470" y="731" on="0"/>
        <pt x="480" y="716" on="0"/>
        <pt x="480" y="708" on="1"/>
        <pt x="480" y="698" on="0"/>
        <pt x="469" y="683" on="0"/>
        <pt x="459" y="683" on="1"/>
        <pt x="129" y="683" on="1"/>
      </contour>
    </TTGlyph>
    <TTGlyph name="Edieresis" xMin="79" yMin="0" xMax="480" yMax="919">
      <contour>
        <pt x="221" y="919" on="1"/>
        <pt x="235" y="919" on="0"/>
        <pt x="253" y="901" on="0"/>
        <pt x="253" y="887" on="1"/>
        <pt x="253" y="873" on="0"/>
        <pt x="235" y="854" on="0"/>
        <pt x="221" y="854" on="1"/>
        <pt x="207" y="854" on="0"/>
        <pt x="188" y="873" on="0"/>
        <pt x="188" y="887" on="1"/>
        <pt x="188" y="901" on="0"/>
        <pt x="207" y="919" on="0"/>
      </contour>
      <contour>
        <pt x="338" y="919" on="1"/>
        <pt x="352" y="919" on="0"/>
        <pt x="370" y="901" on="0"/>
        <pt x="370" y="887" on="1"/>
        <pt x="370" y="873" on="0"/>
        <pt x="352" y="854" on="0"/>
        <pt x="338" y="854" on="1"/>
        <pt x="323" y="854" on="0"/>
        <pt x="305" y="873" on="0"/>
        <pt x="305" y="887" on="1"/>
        <pt x="305" y="901" on="0"/>
        <pt x="323" y="919" on="0"/>
      </contour>
      <contour>
        <pt x="129" y="389" on="1"/>
        <pt x="288" y="389" on="1"/>
        <pt x="298" y="389" on="0"/>
        <pt x="309" y="375" on="0"/>
        <pt x="309" y="365" on="1"/>
        <pt x="309" y="357" on="0"/>
        <pt x="299" y="343" on="0"/>
        <pt x="288" y="343" on="1"/>
        <pt x="129" y="343" on="1"/>
        <pt x="129" y="48" on="1"/>
        <pt x="459" y="48" on="1"/>
        <pt x="469" y="48" on="0"/>
        <pt x="480" y="33" on="0"/>
        <pt x="480" y="23" on="1"/>
        <pt x="480" y="15" on="0"/>
        <pt x="470" y="0" on="0"/>
        <pt x="459" y="0" on="1"/>
        <pt x="103" y="0" on="1"/>
        <pt x="94" y="0" on="0"/>
        <pt x="79" y="11" on="0"/>
        <pt x="79" y="22" on="1"/>
        <pt x="79" y="709" on="1"/>
        <pt x="79" y="720" on="0"/>
        <pt x="94" y="731" on="0"/>
        <pt x="103" y="731" on="1"/>
        <pt x="459" y="731" on="1"/>
        <pt x="470" y="731" on="0"/>
        <pt x="480" y="716" on="0"/>
        <pt x="480" y="708" on="1"/>
        <pt x="480" y="698" on="0"/>
        <pt x="469" y="683" on="0"/>
        <pt x="459" y="683" on="1"/>
        <pt x="129" y="683" on="1"/>
      </contour>
    </TTGlyph>
    <TTGlyph name="Edotaccent" xMin="79" yMin="0" xMax="480" yMax="919">
      <contour>
        <pt x="129" y="389" on="1"/>
        <pt x="288" y="389" on="1"/>
        <pt x="298" y="389" on="0"/>
        <pt x="309" y="375" on="0"/>
        <pt x="309" y="365" on="1"/>
        <pt x="309" y="357" on="0"/>
        <pt x="299" y="343" on="0"/>
        <pt x="288" y="343" on="1"/>
        <pt x="129" y="343" on="1"/>
        <pt x="129" y="48" on="1"/>
        <pt x="459" y="48" on="1"/>
        <pt x="469" y="48" on="0"/>
        <pt x="480" y="33" on="0"/>
        <pt x="480" y="23" on="1"/>
        <pt x="480" y="15" on="0"/>
        <pt x="470" y="0" on="0"/>
        <pt x="459" y="0" on="1"/>
        <pt x="103" y="0" on="1"/>
        <pt x="94" y="0" on="0"/>
        <pt x="79" y="11" on="0"/>
        <pt x="79" y="22" on="1"/>
        <pt x="79" y="709" on="1"/>
        <pt x="79" y="720" on="0"/>
        <pt x="94" y="731" on="0"/>
        <pt x="103" y="731" on="1"/>
        <pt x="459" y="731" on="1"/>
        <pt x="470" y="731" on="0"/>
        <pt x="480" y="716" on="0"/>
        <pt x="480" y="708" on="1"/>
        <pt x="480" y="698" on="0"/>
        <pt x="469" y="683" on="0"/>
        <pt x="459" y="683" on="1"/>
        <pt x="129" y="683" on="1"/>
      </contour>
      <contour>
        <pt x="281" y="919" on="1"/>
        <pt x="295" y="919" on="0"/>
        <pt x="314" y="901" on="0"/>
        <pt x="314" y="887" on="1"/>
        <pt x="314" y="873" on="0"/>
        <pt x="295" y="854" on="0"/>
        <pt x="281" y="854" on="1"/>
        <pt x="267" y="854" on="0"/>
        <pt x="248" y="873" on="0"/>
        <pt x="248" y="887" on="1"/>
        <pt x="248" y="901" on="0"/>
        <pt x="267" y="919" on="0"/>
      </contour>
    </TTGlyph>
    <TTGlyph name="Egrave" xMin="79" yMin="0" xMax="480" yMax="954">
      <contour>
        <pt x="129" y="389" on="1"/>
        <pt x="288" y="389" on="1"/>
        <pt x="298" y="389" on="0"/>
        <pt x="309" y="375" on="0"/>
        <pt x="309" y="365" on="1"/>
        <pt x="309" y="357" on="0"/>
        <pt x="299" y="343" on="0"/>
        <pt x="288" y="343" on="1"/>
        <pt x="129" y="343" on="1"/>
        <pt x="129" y="48" on="1"/>
        <pt x="459" y="48" on="1"/>
        <pt x="469" y="48" on="0"/>
        <pt x="480" y="33" on="0"/>
        <pt x="480" y="23" on="1"/>
        <pt x="480" y="15" on="0"/>
        <pt x="470" y="0" on="0"/>
        <pt x="459" y="0" on="1"/>
        <pt x="103" y="0" on="1"/>
        <pt x="94" y="0" on="0"/>
        <pt x="79" y="11" on="0"/>
        <pt x="79" y="22" on="1"/>
        <pt x="79" y="709" on="1"/>
        <pt x="79" y="720" on="0"/>
        <pt x="94" y="731" on="0"/>
        <pt x="103" y="731" on="1"/>
        <pt x="459" y="731" on="1"/>
        <pt x="470" y="731" on="0"/>
        <pt x="480" y="716" on="0"/>
        <pt x="480" y="708" on="1"/>
        <pt x="480" y="698" on="0"/>
        <pt x="469" y="683" on="0"/>
        <pt x="459" y="683" on="1"/>
        <pt x="129" y="683" on="1"/>
      </contour>
      <contour>
        <pt x="218" y="911" on="1"/>
        <pt x="207" y="918" on="0"/>
        <pt x="207" y="931" on="1"/>
        <pt x="207" y="939" on="0"/>
        <pt x="218" y="954" on="0"/>
        <pt x="227" y="954" on="1"/>
        <pt x="230" y="954" on="0"/>
        <pt x="234" y="952" on="1"/>
        <pt x="341" y="891" on="1"/>
        <pt x="350" y="887" on="0"/>
        <pt x="350" y="876" on="1"/>
        <pt x="350" y="867" on="0"/>
        <pt x="337" y="853" on="0"/>
        <pt x="328" y="853" on="1"/>
        <pt x="324" y="853" on="0"/>
        <pt x="318" y="856" on="1"/>
      </contour>
    </TTGlyph>
    <TTGlyph name="Emacron" xMin="79" yMin="0" xMax="480" yMax="941">
      <contour>
        <pt x="129" y="389" on="1"/>
        <pt x="288" y="389" on="1"/>
        <pt x="298" y="389" on="0"/>
        <pt x="309" y="375" on="0"/>
        <pt x="309" y="365" on="1"/>
        <pt x="309" y="357" on="0"/>
        <pt x="299" y="343" on="0"/>
        <pt x="288" y="343" on="1"/>
        <pt x="129" y="343" on="1"/>
        <pt x="129" y="48" on="1"/>
        <pt x="459" y="48" on="1"/>
        <pt x="469" y="48" on="0"/>
        <pt x="480" y="33" on="0"/>
        <pt x="480" y="23" on="1"/>
        <pt x="480" y="15" on="0"/>
        <pt x="470" y="0" on="0"/>
        <pt x="459" y="0" on="1"/>
        <pt x="103" y="0" on="1"/>
        <pt x="94" y="0" on="0"/>
        <pt x="79" y="11" on="0"/>
        <pt x="79" y="22" on="1"/>
        <pt x="79" y="709" on="1"/>
        <pt x="79" y="720" on="0"/>
        <pt x="94" y="731" on="0"/>
        <pt x="103" y="731" on="1"/>
        <pt x="459" y="731" on="1"/>
        <pt x="470" y="731" on="0"/>
        <pt x="480" y="716" on="0"/>
        <pt x="480" y="708" on="1"/>
        <pt x="480" y="698" on="0"/>
        <pt x="469" y="683" on="0"/>
        <pt x="459" y="683" on="1"/>
        <pt x="129" y="683" on="1"/>
      </contour>
      <contour>
        <pt x="150" y="919" on="1"/>
        <pt x="150" y="928" on="0"/>
        <pt x="161" y="941" on="0"/>
        <pt x="171" y="941" on="1"/>
        <pt x="388" y="941" on="1"/>
        <pt x="396" y="941" on="0"/>
        <pt x="410" y="928" on="0"/>
        <pt x="410" y="919" on="1"/>
        <pt x="410" y="910" on="0"/>
        <pt x="396" y="899" on="0"/>
        <pt x="388" y="899" on="1"/>
        <pt x="171" y="899" on="1"/>
        <pt x="150" y="899" on="0"/>
      </contour>
    </TTGlyph>
    <TTGlyph name="Eng" xMin="79" yMin="-235" xMax="484" yMax="731">
      <contour>
        <pt x="355" y="-189" on="1"/>
        <pt x="382" y="-189" on="0"/>
        <pt x="413" y="-167" on="0"/>
        <pt x="430" y="-129" on="0"/>
        <pt x="435" y="-77" on="0"/>
        <pt x="435" y="-46" on="1"/>
        <pt x="435" y="1" on="1"/>
        <pt x="435" y="7" on="0"/>
        <pt x="430" y="24" on="0"/>
        <pt x="423" y="37" on="1"/>
        <pt x="129" y="613" on="1"/>
        <pt x="129" y="22" on="1"/>
        <pt x="129" y="11" on="0"/>
        <pt x="114" y="0" on="0"/>
        <pt x="104" y="0" on="1"/>
        <pt x="95" y="0" on="0"/>
        <pt x="79" y="11" on="0"/>
        <pt x="79" y="22" on="1"/>
        <pt x="79" y="710" on="1"/>
        <pt x="79" y="722" on="0"/>
        <pt x="94" y="731" on="0"/>
        <pt x="104" y="731" on="1"/>
        <pt x="118" y="731" on="0"/>
        <pt x="138" y="703" on="0"/>
        <pt x="145" y="690" on="1"/>
        <pt x="434" y="119" on="1"/>
        <pt x="434" y="710" on="1"/>
        <pt x="434" y="721" on="0"/>
        <pt x="450" y="731" on="0"/>
        <pt x="459" y="731" on="1"/>
        <pt x="469" y="731" on="0"/>
        <pt x="484" y="721" on="0"/>
        <pt x="484" y="710" on="1"/>
        <pt x="484" y="-46" on="1"/>
        <pt x="484" y="-88" on="0"/>
        <pt x="471" y="-157" on="0"/>
        <pt x="441" y="-207" on="0"/>
        <pt x="393" y="-235" on="0"/>
        <pt x="358" y="-235" on="1"/>
        <pt x="345" y="-235" on="0"/>
        <pt x="333" y="-220" on="0"/>
        <pt x="333" y="-211" on="1"/>
        <pt x="333" y="-201" on="0"/>
        <pt x="346" y="-189" on="0"/>
      </contour>
    </TTGlyph>
    <TTGlyph name="Eogonek" xMin="79" yMin="-198" xMax="480" yMax="731">
      <contour>
        <pt x="129" y="389" on="1"/>
        <pt x="288" y="389" on="1"/>
        <pt x="298" y="389" on="0"/>
        <pt x="309" y="375" on="0"/>
        <pt x="309" y="365" on="1"/>
        <pt x="309" y="357" on="0"/>
        <pt x="299" y="343" on="0"/>
        <pt x="288" y="343" on="1"/>
        <pt x="129" y="343" on="1"/>
        <pt x="129" y="48" on="1"/>
        <pt x="459" y="48" on="1"/>
        <pt x="469" y="48" on="0"/>
        <pt x="480" y="33" on="0"/>
        <pt x="480" y="23" on="1"/>
        <pt x="480" y="8" on="0"/>
        <pt x="468" y="2" on="1"/>
        <pt x="437" y="-26" on="0"/>
        <pt x="396" y="-86" on="0"/>
        <pt x="396" y="-124" on="1"/>
        <pt x="396" y="-148" on="0"/>
        <pt x="430" y="-167" on="0"/>
        <pt x="459" y="-167" on="1"/>
        <pt x="477" y="-167" on="0"/>
        <pt x="477" y="-183" on="1"/>
        <pt x="477" y="-191" on="0"/>
        <pt x="467" y="-198" on="0"/>
        <pt x="453" y="-198" on="1"/>
        <pt x="437" y="-198" on="0"/>
        <pt x="405" y="-191" on="0"/>
        <pt x="379" y="-175" on="0"/>
        <pt x="362" y="-147" on="0"/>
        <pt x="362" y="-127" on="1"/>
        <pt x="362" y="-90" on="0"/>
        <pt x="394" y="-27" on="0"/>
        <pt x="420" y="0" on="1"/>
        <pt x="103" y="0" on="1"/>
        <pt x="94" y="0" on="0"/>
        <pt x="79" y="11" on="0"/>
        <pt x="79" y="22" on="1"/>
        <pt x="79" y="709" on="1"/>
        <pt x="79" y="720" on="0"/>
        <pt x="94" y="731" on="0"/>
        <pt x="103" y="731" on="1"/>
        <pt x="459" y="731" on="1"/>
        <pt x="470" y="731" on="0"/>
        <pt x="480" y="716" on="0"/>
        <pt x="480" y="708" on="1"/>
        <pt x="480" y="698" on="0"/>
        <pt x="469" y="683" on="0"/>
        <pt x="459" y="683" on="1"/>
        <pt x="129" y="683" on="1"/>
      </contour>
    </TTGlyph>
    <TTGlyph name="Eth" xMin="1" yMin="0" xMax="492" yMax="731">
      <contour>
        <pt x="290" y="731" on="1"/>
        <pt x="332" y="731" on="0"/>
        <pt x="406" y="708" on="0"/>
        <pt x="461" y="658" on="0"/>
        <pt x="492" y="578" on="0"/>
        <pt x="492" y="521" on="1"/>
        <pt x="492" y="210" on="1"/>
        <pt x="492" y="153" on="0"/>
        <pt x="461" y="73" on="0"/>
        <pt x="406" y="23" on="0"/>
        <pt x="332" y="0" on="0"/>
        <pt x="290" y="0" on="1"/>
        <pt x="113" y="0" on="1"/>
        <pt x="102" y="0" on="0"/>
        <pt x="89" y="13" on="0"/>
        <pt x="89" y="21" on="1"/>
        <pt x="89" y="362" on="1"/>
        <pt x="21" y="362" on="1"/>
        <pt x="12" y="362" on="0"/>
        <pt x="1" y="375" on="0"/>
        <pt x="1" y="384" on="1"/>
        <pt x="1" y="393" on="0"/>
        <pt x="12" y="406" on="0"/>
        <pt x="21" y="406" on="1"/>
        <pt x="89" y="406" on="1"/>
        <pt x="89" y="710" on="1"/>
        <pt x="89" y="718" on="0"/>
        <pt x="102" y="731" on="0"/>
        <pt x="113" y="731" on="1"/>
      </contour>
      <contour>
        <pt x="139" y="683" on="1"/>
        <pt x="139" y="406" on="1"/>
        <pt x="262" y="406" on="1"/>
        <pt x="270" y="406" on="0"/>
        <pt x="282" y="393" on="0"/>
        <pt x="282" y="384" on="1"/>
        <pt x="282" y="375" on="0"/>
        <pt x="270" y="362" on="0"/>
        <pt x="262" y="362" on="1"/>
        <pt x="139" y="362" on="1"/>
        <pt x="139" y="48" on="1"/>
        <pt x="290" y="48" on="1"/>
        <pt x="362" y="48" on="0"/>
        <pt x="442" y="126" on="0"/>
        <pt x="442" y="210" on="1"/>
        <pt x="442" y="521" on="1"/>
        <pt x="442" y="605" on="0"/>
        <pt x="362" y="683" on="0"/>
        <pt x="290" y="683" on="1"/>
      </contour>
    </TTGlyph>
    <TTGlyph name="Euro" xMin="35" yMin="-6" xMax="524" yMax="731">
      <contour>
        <pt x="172" y="201" on="1"/>
        <pt x="172" y="123" on="0"/>
        <pt x="249" y="42" on="0"/>
        <pt x="323" y="42" on="1"/>
        <pt x="356" y="42" on="0"/>
        <pt x="411" y="58" on="0"/>
        <pt x="451" y="90" on="0"/>
        <pt x="474" y="137" on="0"/>
        <pt x="474" y="169" on="1"/>
        <pt x="475" y="180" on="0"/>
        <pt x="488" y="190" on="0"/>
        <pt x="499" y="190" on="1"/>
        <pt x="524" y="190" on="0"/>
        <pt x="524" y="164" on="1"/>
        <pt x="524" y="128" on="0"/>
        <pt x="496" y="65" on="0"/>
        <pt x="444" y="20" on="0"/>
        <pt x="369" y="-6" on="0"/>
        <pt x="322" y="-6" on="1"/>
        <pt x="279" y="-6" on="0"/>
        <pt x="206" y="18" on="0"/>
        <pt x="152" y="68" on="0"/>
        <pt x="122" y="146" on="0"/>
        <pt x="122" y="201" on="1"/>
        <pt x="122" y="258" on="1"/>
        <pt x="55" y="258" on="1"/>
        <pt x="46" y="258" on="0"/>
        <pt x="35" y="270" on="0"/>
        <pt x="35" y="279" on="1"/>
        <pt x="35" y="289" on="0"/>
        <pt x="46" y="302" on="0"/>
        <pt x="55" y="302" on="1"/>
        <pt x="122" y="302" on="1"/>
        <pt x="122" y="404" on="1"/>
        <pt x="55" y="404" on="1"/>
        <pt x="46" y="404" on="0"/>
        <pt x="35" y="416" on="0"/>
        <pt x="35" y="425" on="1"/>
        <pt x="35" y="435" on="0"/>
        <pt x="46" y="448" on="0"/>
        <pt x="55" y="448" on="1"/>
        <pt x="122" y="448" on="1"/>
        <pt x="122" y="521" on="1"/>
        <pt x="122" y="578" on="0"/>
        <pt x="153" y="658" on="0"/>
        <pt x="207" y="708" on="0"/>
        <pt x="280" y="731" on="0"/>
        <pt x="322" y="731" on="1"/>
        <pt x="369" y="731" on="0"/>
        <pt x="444" y="705" on="0"/>
        <pt x="496" y="660" on="0"/>
        <pt x="524" y="598" on="0"/>
        <pt x="524" y="562" on="1"/>
        <pt x="524" y="536" on="0"/>
        <pt x="499" y="536" on="1"/>
        <pt x="488" y="536" on="0"/>
        <pt x="474" y="546" on="0"/>
        <pt x="474" y="557" on="1"/>
        <pt x="474" y="588" on="0"/>
        <pt x="451" y="635" on="0"/>
        <pt x="411" y="667" on="0"/>
        <pt x="356" y="683" on="0"/>
        <pt x="323" y="683" on="1"/>
        <pt x="251" y="683" on="0"/>
        <pt x="172" y="605" on="0"/>
        <pt x="172" y="521" on="1"/>
        <pt x="172" y="448" on="1"/>
        <pt x="359" y="448" on="1"/>
        <pt x="367" y="448" on="0"/>
        <pt x="381" y="435" on="0"/>
        <pt x="381" y="425" on="1"/>
        <pt x="381" y="416" on="0"/>
        <pt x="367" y="404" on="0"/>
        <pt x="359" y="404" on="1"/>
        <pt x="172" y="404" on="1"/>
        <pt x="172" y="302" on="1"/>
        <pt x="359" y="302" on="1"/>
        <pt x="367" y="302" on="0"/>
        <pt x="381" y="289" on="0"/>
        <pt x="381" y="280" on="1"/>
        <pt x="381" y="270" on="0"/>
        <pt x="367" y="258" on="0"/>
        <pt x="359" y="258" on="1"/>
        <pt x="172" y="258" on="1"/>
      </contour>
    </TTGlyph>
    <TTGlyph name="F" xMin="79" yMin="0" xMax="479" yMax="731">
      <contour>
        <pt x="79" y="709" on="1"/>
        <pt x="79" y="720" on="0"/>
        <pt x="94" y="731" on="0"/>
        <pt x="103" y="731" on="1"/>
        <pt x="458" y="731" on="1"/>
        <pt x="469" y="731" on="0"/>
        <pt x="479" y="716" on="0"/>
        <pt x="479" y="708" on="1"/>
        <pt x="479" y="698" on="0"/>
        <pt x="468" y="683" on="0"/>
        <pt x="458" y="683" on="1"/>
        <pt x="129" y="683" on="1"/>
        <pt x="129" y="389" on="1"/>
        <pt x="288" y="389" on="1"/>
        <pt x="298" y="389" on="0"/>
        <pt x="309" y="375" on="0"/>
        <pt x="309" y="365" on="1"/>
        <pt x="309" y="357" on="0"/>
        <pt x="299" y="343" on="0"/>
        <pt x="288" y="343" on="1"/>
        <pt x="129" y="343" on="1"/>
        <pt x="129" y="21" on="1"/>
        <pt x="129" y="10" on="0"/>
        <pt x="114" y="0" on="0"/>
        <pt x="104" y="0" on="1"/>
        <pt x="95" y="0" on="0"/>
        <pt x="79" y="10" on="0"/>
        <pt x="79" y="21" on="1"/>
      </contour>
    </TTGlyph>
    <TTGlyph name="G" xMin="72" yMin="-6" xMax="475" yMax="731">
      <contour>
        <pt x="425" y="557" on="1"/>
        <pt x="417" y="620" on="0"/>
        <pt x="339" y="683" on="0"/>
        <pt x="273" y="683" on="1"/>
        <pt x="201" y="683" on="0"/>
        <pt x="122" y="605" on="0"/>
        <pt x="122" y="521" on="1"/>
        <pt x="122" y="204" on="1"/>
        <pt x="122" y="120" on="0"/>
        <pt x="201" y="42" on="0"/>
        <pt x="273" y="42" on="1"/>
        <pt x="345" y="42" on="0"/>
        <pt x="425" y="120" on="0"/>
        <pt x="425" y="204" on="1"/>
        <pt x="425" y="338" on="1"/>
        <pt x="277" y="338" on="1"/>
        <pt x="267" y="338" on="0"/>
        <pt x="257" y="353" on="0"/>
        <pt x="257" y="361" on="1"/>
        <pt x="257" y="369" on="0"/>
        <pt x="267" y="384" on="0"/>
        <pt x="277" y="384" on="1"/>
        <pt x="454" y="384" on="1"/>
        <pt x="464" y="384" on="0"/>
        <pt x="475" y="370" on="0"/>
        <pt x="475" y="361" on="1"/>
        <pt x="475" y="204" on="1"/>
        <pt x="475" y="147" on="0"/>
        <pt x="444" y="67" on="0"/>
        <pt x="389" y="17" on="0"/>
        <pt x="315" y="-6" on="0"/>
        <pt x="273" y="-6" on="1"/>
        <pt x="230" y="-6" on="0"/>
        <pt x="157" y="17" on="0"/>
        <pt x="103" y="67" on="0"/>
        <pt x="72" y="147" on="0"/>
        <pt x="72" y="204" on="1"/>
        <pt x="72" y="521" on="1"/>
        <pt x="72" y="578" on="0"/>
        <pt x="103" y="658" on="0"/>
        <pt x="157" y="708" on="0"/>
        <pt x="230" y="731" on="0"/>
        <pt x="272" y="731" on="1"/>
        <pt x="319" y="731" on="0"/>
        <pt x="394" y="705" on="0"/>
        <pt x="447" y="660" on="0"/>
        <pt x="475" y="598" on="0"/>
        <pt x="475" y="562" on="1"/>
        <pt x="475" y="548" on="0"/>
        <pt x="461" y="536" on="0"/>
        <pt x="450" y="536" on="1"/>
        <pt x="440" y="536" on="0"/>
        <pt x="426" y="546" on="0"/>
      </contour>
    </TTGlyph>
    <TTGlyph name="Gbreve" xMin="72" yMin="-6" xMax="475" yMax="969">
      <contour>
        <pt x="425" y="557" on="1"/>
        <pt x="417" y="620" on="0"/>
        <pt x="339" y="683" on="0"/>
        <pt x="273" y="683" on="1"/>
        <pt x="201" y="683" on="0"/>
        <pt x="122" y="605" on="0"/>
        <pt x="122" y="521" on="1"/>
        <pt x="122" y="204" on="1"/>
        <pt x="122" y="120" on="0"/>
        <pt x="201" y="42" on="0"/>
        <pt x="273" y="42" on="1"/>
        <pt x="345" y="42" on="0"/>
        <pt x="425" y="120" on="0"/>
        <pt x="425" y="204" on="1"/>
        <pt x="425" y="338" on="1"/>
        <pt x="277" y="338" on="1"/>
        <pt x="267" y="338" on="0"/>
        <pt x="257" y="353" on="0"/>
        <pt x="257" y="361" on="1"/>
        <pt x="257" y="369" on="0"/>
        <pt x="267" y="384" on="0"/>
        <pt x="277" y="384" on="1"/>
        <pt x="454" y="384" on="1"/>
        <pt x="464" y="384" on="0"/>
        <pt x="475" y="370" on="0"/>
        <pt x="475" y="361" on="1"/>
        <pt x="475" y="204" on="1"/>
        <pt x="475" y="147" on="0"/>
        <pt x="444" y="67" on="0"/>
        <pt x="389" y="17" on="0"/>
        <pt x="315" y="-6" on="0"/>
        <pt x="273" y="-6" on="1"/>
        <pt x="230" y="-6" on="0"/>
        <pt x="157" y="17" on="0"/>
        <pt x="103" y="67" on="0"/>
        <pt x="72" y="147" on="0"/>
        <pt x="72" y="204" on="1"/>
        <pt x="72" y="521" on="1"/>
        <pt x="72" y="578" on="0"/>
        <pt x="103" y="658" on="0"/>
        <pt x="157" y="708" on="0"/>
        <pt x="230" y="731" on="0"/>
        <pt x="272" y="731" on="1"/>
        <pt x="319" y="731" on="0"/>
        <pt x="394" y="705" on="0"/>
        <pt x="447" y="660" on="0"/>
        <pt x="475" y="598" on="0"/>
        <pt x="475" y="562" on="1"/>
        <pt x="475" y="548" on="0"/>
        <pt x="461" y="536" on="0"/>
        <pt x="450" y="536" on="1"/>
        <pt x="440" y="536" on="0"/>
        <pt x="426" y="546" on="0"/>
      </contour>
      <contour>
        <pt x="385" y="969" on="1"/>
        <pt x="385" y="946" on="0"/>
        <pt x="366" y="905" on="0"/>
        <pt x="335" y="874" on="0"/>
        <pt x="295" y="856" on="0"/>
        <pt x="273" y="856" on="1"/>
        <pt x="250" y="856" on="0"/>
        <pt x="210" y="874" on="0"/>
        <pt x="178" y="905" on="0"/>
        <pt x="160" y="946" on="0"/>
        <pt x="160" y="969" on="1"/>
        <pt x="198" y="969" on="1"/>
        <pt x="198" y="934" on="0"/>
        <pt x="242" y="887" on="0"/>
        <pt x="273" y="887" on="1"/>
        <pt x="288" y="887" on="0"/>
        <pt x="314" y="900" on="0"/>
        <pt x="335" y="922" on="0"/>
        <pt x="347" y="952" on="0"/>
        <pt x="347" y="969" on="1"/>
      </contour>
    </TTGlyph>
    <TTGlyph name="Gcircumflex" xMin="72" yMin="-6" xMax="475" yMax="954">
      <contour>
        <pt x="167" y="856" on="1"/>
        <pt x="165" y="855" on="0"/>
        <pt x="161" y="853" on="0"/>
        <pt x="159" y="853" on="1"/>
        <pt x="151" y="853" on="0"/>
        <pt x="139" y="866" on="0"/>
        <pt x="139" y="876" on="1"/>
        <pt x="139" y="887" on="0"/>
        <pt x="150" y="893" on="1"/>
        <pt x="254" y="949" on="1"/>
        <pt x="262" y="954" on="0"/>
        <pt x="271" y="954" on="1"/>
        <pt x="280" y="954" on="0"/>
        <pt x="288" y="949" on="1"/>
        <pt x="392" y="894" on="1"/>
        <pt x="403" y="888" on="0"/>
        <pt x="403" y="874" on="1"/>
        <pt x="403" y="866" on="0"/>
        <pt x="392" y="854" on="0"/>
        <pt x="384" y="854" on="1"/>
        <pt x="382" y="854" on="0"/>
        <pt x="377" y="856" on="0"/>
        <pt x="375" y="857" on="1"/>
        <pt x="271" y="912" on="1"/>
      </contour>
      <contour>
        <pt x="425" y="557" on="1"/>
        <pt x="417" y="620" on="0"/>
        <pt x="339" y="683" on="0"/>
        <pt x="273" y="683" on="1"/>
        <pt x="201" y="683" on="0"/>
        <pt x="122" y="605" on="0"/>
        <pt x="122" y="521" on="1"/>
        <pt x="122" y="204" on="1"/>
        <pt x="122" y="120" on="0"/>
        <pt x="201" y="42" on="0"/>
        <pt x="273" y="42" on="1"/>
        <pt x="345" y="42" on="0"/>
        <pt x="425" y="120" on="0"/>
        <pt x="425" y="204" on="1"/>
        <pt x="425" y="338" on="1"/>
        <pt x="277" y="338" on="1"/>
        <pt x="267" y="338" on="0"/>
        <pt x="257" y="353" on="0"/>
        <pt x="257" y="361" on="1"/>
        <pt x="257" y="369" on="0"/>
        <pt x="267" y="384" on="0"/>
        <pt x="277" y="384" on="1"/>
        <pt x="454" y="384" on="1"/>
        <pt x="464" y="384" on="0"/>
        <pt x="475" y="370" on="0"/>
        <pt x="475" y="361" on="1"/>
        <pt x="475" y="204" on="1"/>
        <pt x="475" y="147" on="0"/>
        <pt x="444" y="67" on="0"/>
        <pt x="389" y="17" on="0"/>
        <pt x="315" y="-6" on="0"/>
        <pt x="273" y="-6" on="1"/>
        <pt x="230" y="-6" on="0"/>
        <pt x="157" y="17" on="0"/>
        <pt x="103" y="67" on="0"/>
        <pt x="72" y="147" on="0"/>
        <pt x="72" y="204" on="1"/>
        <pt x="72" y="521" on="1"/>
        <pt x="72" y="578" on="0"/>
        <pt x="103" y="658" on="0"/>
        <pt x="157" y="708" on="0"/>
        <pt x="230" y="731" on="0"/>
        <pt x="272" y="731" on="1"/>
        <pt x="319" y="731" on="0"/>
        <pt x="394" y="705" on="0"/>
        <pt x="447" y="660" on="0"/>
        <pt x="475" y="598" on="0"/>
        <pt x="475" y="562" on="1"/>
        <pt x="475" y="548" on="0"/>
        <pt x="461" y="536" on="0"/>
        <pt x="450" y="536" on="1"/>
        <pt x="440" y="536" on="0"/>
        <pt x="426" y="546" on="0"/>
      </contour>
    </TTGlyph>
    <TTGlyph name="Gcommaaccent" xMin="72" yMin="-149" xMax="475" yMax="731">
      <contour>
        <pt x="230" y="-146" on="1"/>
        <pt x="225" y="-149" on="0"/>
        <pt x="221" y="-149" on="1"/>
        <pt x="212" y="-149" on="0"/>
        <pt x="198" y="-135" on="0"/>
        <pt x="198" y="-126" on="1"/>
        <pt x="198" y="-115" on="0"/>
        <pt x="208" y="-111" on="1"/>
        <pt x="314" y="-50" on="1"/>
        <pt x="320" y="-48" on="0"/>
        <pt x="322" y="-48" on="1"/>
        <pt x="331" y="-48" on="0"/>
        <pt x="342" y="-63" on="0"/>
        <pt x="342" y="-71" on="1"/>
        <pt x="342" y="-84" on="0"/>
        <pt x="330" y="-91" on="1"/>
      </contour>
      <contour>
        <pt x="425" y="557" on="1"/>
        <pt x="417" y="620" on="0"/>
        <pt x="339" y="683" on="0"/>
        <pt x="273" y="683" on="1"/>
        <pt x="201" y="683" on="0"/>
        <pt x="122" y="605" on="0"/>
        <pt x="122" y="521" on="1"/>
        <pt x="122" y="204" on="1"/>
        <pt x="122" y="120" on="0"/>
        <pt x="201" y="42" on="0"/>
        <pt x="273" y="42" on="1"/>
        <pt x="345" y="42" on="0"/>
        <pt x="425" y="120" on="0"/>
        <pt x="425" y="204" on="1"/>
        <pt x="425" y="338" on="1"/>
        <pt x="277" y="338" on="1"/>
        <pt x="267" y="338" on="0"/>
        <pt x="257" y="353" on="0"/>
        <pt x="257" y="361" on="1"/>
        <pt x="257" y="369" on="0"/>
        <pt x="267" y="384" on="0"/>
        <pt x="277" y="384" on="1"/>
        <pt x="454" y="384" on="1"/>
        <pt x="464" y="384" on="0"/>
        <pt x="475" y="370" on="0"/>
        <pt x="475" y="361" on="1"/>
        <pt x="475" y="204" on="1"/>
        <pt x="475" y="147" on="0"/>
        <pt x="444" y="67" on="0"/>
        <pt x="389" y="17" on="0"/>
        <pt x="315" y="-6" on="0"/>
        <pt x="273" y="-6" on="1"/>
        <pt x="230" y="-6" on="0"/>
        <pt x="157" y="17" on="0"/>
        <pt x="103" y="67" on="0"/>
        <pt x="72" y="147" on="0"/>
        <pt x="72" y="204" on="1"/>
        <pt x="72" y="521" on="1"/>
        <pt x="72" y="578" on="0"/>
        <pt x="103" y="658" on="0"/>
        <pt x="157" y="708" on="0"/>
        <pt x="230" y="731" on="0"/>
        <pt x="272" y="731" on="1"/>
        <pt x="319" y="731" on="0"/>
        <pt x="394" y="705" on="0"/>
        <pt x="447" y="660" on="0"/>
        <pt x="475" y="598" on="0"/>
        <pt x="475" y="562" on="1"/>
        <pt x="475" y="548" on="0"/>
        <pt x="461" y="536" on="0"/>
        <pt x="450" y="536" on="1"/>
        <pt x="440" y="536" on="0"/>
        <pt x="426" y="546" on="0"/>
      </contour>
    </TTGlyph>
    <TTGlyph name="Gdotaccent" xMin="72" yMin="-6" xMax="475" yMax="919">
      <contour>
        <pt x="425" y="557" on="1"/>
        <pt x="417" y="620" on="0"/>
        <pt x="339" y="683" on="0"/>
        <pt x="273" y="683" on="1"/>
        <pt x="201" y="683" on="0"/>
        <pt x="122" y="605" on="0"/>
        <pt x="122" y="521" on="1"/>
        <pt x="122" y="204" on="1"/>
        <pt x="122" y="120" on="0"/>
        <pt x="201" y="42" on="0"/>
        <pt x="273" y="42" on="1"/>
        <pt x="345" y="42" on="0"/>
        <pt x="425" y="120" on="0"/>
        <pt x="425" y="204" on="1"/>
        <pt x="425" y="338" on="1"/>
        <pt x="277" y="338" on="1"/>
        <pt x="267" y="338" on="0"/>
        <pt x="257" y="353" on="0"/>
        <pt x="257" y="361" on="1"/>
        <pt x="257" y="369" on="0"/>
        <pt x="267" y="384" on="0"/>
        <pt x="277" y="384" on="1"/>
        <pt x="454" y="384" on="1"/>
        <pt x="464" y="384" on="0"/>
        <pt x="475" y="370" on="0"/>
        <pt x="475" y="361" on="1"/>
        <pt x="475" y="204" on="1"/>
        <pt x="475" y="147" on="0"/>
        <pt x="444" y="67" on="0"/>
        <pt x="389" y="17" on="0"/>
        <pt x="315" y="-6" on="0"/>
        <pt x="273" y="-6" on="1"/>
        <pt x="230" y="-6" on="0"/>
        <pt x="157" y="17" on="0"/>
        <pt x="103" y="67" on="0"/>
        <pt x="72" y="147" on="0"/>
        <pt x="72" y="204" on="1"/>
        <pt x="72" y="521" on="1"/>
        <pt x="72" y="578" on="0"/>
        <pt x="103" y="658" on="0"/>
        <pt x="157" y="708" on="0"/>
        <pt x="230" y="731" on="0"/>
        <pt x="272" y="731" on="1"/>
        <pt x="319" y="731" on="0"/>
        <pt x="394" y="705" on="0"/>
        <pt x="447" y="660" on="0"/>
        <pt x="475" y="598" on="0"/>
        <pt x="475" y="562" on="1"/>
        <pt x="475" y="548" on="0"/>
        <pt x="461" y="536" on="0"/>
        <pt x="450" y="536" on="1"/>
        <pt x="440" y="536" on="0"/>
        <pt x="426" y="546" on="0"/>
      </contour>
      <contour>
        <pt x="273" y="919" on="1"/>
        <pt x="287" y="919" on="0"/>
        <pt x="306" y="901" on="0"/>
        <pt x="306" y="887" on="1"/>
        <pt x="306" y="873" on="0"/>
        <pt x="287" y="854" on="0"/>
        <pt x="273" y="854" on="1"/>
        <pt x="259" y="854" on="0"/>
        <pt x="240" y="873" on="0"/>
        <pt x="240" y="887" on="1"/>
        <pt x="240" y="901" on="0"/>
        <pt x="259" y="919" on="0"/>
      </contour>
    </TTGlyph>
    <TTGlyph name="H" xMin="79" yMin="0" xMax="484" yMax="731">
      <contour>
        <pt x="434" y="356" on="1"/>
        <pt x="129" y="356" on="1"/>
        <pt x="129" y="22" on="1"/>
        <pt x="129" y="11" on="0"/>
        <pt x="114" y="0" on="0"/>
        <pt x="104" y="0" on="1"/>
        <pt x="95" y="0" on="0"/>
        <pt x="79" y="11" on="0"/>
        <pt x="79" y="22" on="1"/>
        <pt x="79" y="710" on="1"/>
        <pt x="79" y="721" on="0"/>
        <pt x="95" y="731" on="0"/>
        <pt x="104" y="731" on="1"/>
        <pt x="114" y="731" on="0"/>
        <pt x="129" y="721" on="0"/>
        <pt x="129" y="710" on="1"/>
        <pt x="129" y="402" on="1"/>
        <pt x="434" y="402" on="1"/>
        <pt x="434" y="710" on="1"/>
        <pt x="434" y="721" on="0"/>
        <pt x="450" y="731" on="0"/>
        <pt x="459" y="731" on="1"/>
        <pt x="469" y="731" on="0"/>
        <pt x="484" y="721" on="0"/>
        <pt x="484" y="710" on="1"/>
        <pt x="484" y="22" on="1"/>
        <pt x="484" y="11" on="0"/>
        <pt x="469" y="0" on="0"/>
        <pt x="459" y="0" on="1"/>
        <pt x="450" y="0" on="0"/>
        <pt x="434" y="11" on="0"/>
        <pt x="434" y="22" on="1"/>
      </contour>
    </TTGlyph>
    <TTGlyph name="Hbar" xMin="20" yMin="0" xMax="544" yMax="731">
      <contour>
        <pt x="435" y="356" on="1"/>
        <pt x="130" y="356" on="1"/>
        <pt x="130" y="22" on="1"/>
        <pt x="130" y="11" on="0"/>
        <pt x="115" y="0" on="0"/>
        <pt x="105" y="0" on="1"/>
        <pt x="96" y="0" on="0"/>
        <pt x="80" y="11" on="0"/>
        <pt x="80" y="22" on="1"/>
        <pt x="80" y="542" on="1"/>
        <pt x="40" y="542" on="1"/>
        <pt x="31" y="542" on="0"/>
        <pt x="20" y="554" on="0"/>
        <pt x="20" y="562" on="1"/>
        <pt x="20" y="571" on="0"/>
        <pt x="31" y="584" on="0"/>
        <pt x="40" y="584" on="1"/>
        <pt x="80" y="584" on="1"/>
        <pt x="80" y="710" on="1"/>
        <pt x="80" y="721" on="0"/>
        <pt x="96" y="731" on="0"/>
        <pt x="105" y="731" on="1"/>
        <pt x="115" y="731" on="0"/>
        <pt x="130" y="721" on="0"/>
        <pt x="130" y="710" on="1"/>
        <pt x="130" y="584" on="1"/>
        <pt x="435" y="584" on="1"/>
        <pt x="435" y="710" on="1"/>
        <pt x="435" y="721" on="0"/>
        <pt x="451" y="731" on="0"/>
        <pt x="460" y="731" on="1"/>
        <pt x="470" y="731" on="0"/>
        <pt x="485" y="721" on="0"/>
        <pt x="485" y="710" on="1"/>
        <pt x="485" y="584" on="1"/>
        <pt x="524" y="584" on="1"/>
        <pt x="532" y="584" on="0"/>
        <pt x="544" y="571" on="0"/>
        <pt x="544" y="562" on="1"/>
        <pt x="544" y="554" on="0"/>
        <pt x="532" y="542" on="0"/>
        <pt x="524" y="542" on="1"/>
        <pt x="485" y="542" on="1"/>
        <pt x="485" y="22" on="1"/>
        <pt x="485" y="11" on="0"/>
        <pt x="470" y="0" on="0"/>
        <pt x="460" y="0" on="1"/>
        <pt x="451" y="0" on="0"/>
        <pt x="435" y="11" on="0"/>
        <pt x="435" y="22" on="1"/>
      </contour>
      <contour>
        <pt x="435" y="402" on="1"/>
        <pt x="435" y="542" on="1"/>
        <pt x="130" y="542" on="1"/>
        <pt x="130" y="402" on="1"/>
      </contour>
    </TTGlyph>
    <TTGlyph name="Hcircumflex" xMin="79" yMin="0" xMax="484" yMax="954">
      <contour>
        <pt x="178" y="856" on="1"/>
        <pt x="176" y="855" on="0"/>
        <pt x="172" y="853" on="0"/>
        <pt x="170" y="853" on="1"/>
        <pt x="162" y="853" on="0"/>
        <pt x="150" y="866" on="0"/>
        <pt x="150" y="876" on="1"/>
        <pt x="150" y="887" on="0"/>
        <pt x="161" y="893" on="1"/>
        <pt x="265" y="949" on="1"/>
        <pt x="273" y="954" on="0"/>
        <pt x="282" y="954" on="1"/>
        <pt x="291" y="954" on="0"/>
        <pt x="299" y="949" on="1"/>
        <pt x="403" y="894" on="1"/>
        <pt x="414" y="888" on="0"/>
        <pt x="414" y="874" on="1"/>
        <pt x="414" y="866" on="0"/>
        <pt x="403" y="854" on="0"/>
        <pt x="395" y="854" on="1"/>
        <pt x="393" y="854" on="0"/>
        <pt x="388" y="856" on="0"/>
        <pt x="386" y="857" on="1"/>
        <pt x="282" y="912" on="1"/>
      </contour>
      <contour>
        <pt x="434" y="356" on="1"/>
        <pt x="129" y="356" on="1"/>
        <pt x="129" y="22" on="1"/>
        <pt x="129" y="11" on="0"/>
        <pt x="114" y="0" on="0"/>
        <pt x="104" y="0" on="1"/>
        <pt x="95" y="0" on="0"/>
        <pt x="79" y="11" on="0"/>
        <pt x="79" y="22" on="1"/>
        <pt x="79" y="710" on="1"/>
        <pt x="79" y="721" on="0"/>
        <pt x="95" y="731" on="0"/>
        <pt x="104" y="731" on="1"/>
        <pt x="114" y="731" on="0"/>
        <pt x="129" y="721" on="0"/>
        <pt x="129" y="710" on="1"/>
        <pt x="129" y="402" on="1"/>
        <pt x="434" y="402" on="1"/>
        <pt x="434" y="710" on="1"/>
        <pt x="434" y="721" on="0"/>
        <pt x="450" y="731" on="0"/>
        <pt x="459" y="731" on="1"/>
        <pt x="469" y="731" on="0"/>
        <pt x="484" y="721" on="0"/>
        <pt x="484" y="710" on="1"/>
        <pt x="484" y="22" on="1"/>
        <pt x="484" y="11" on="0"/>
        <pt x="469" y="0" on="0"/>
        <pt x="459" y="0" on="1"/>
        <pt x="450" y="0" on="0"/>
        <pt x="434" y="11" on="0"/>
        <pt x="434" y="22" on="1"/>
      </contour>
    </TTGlyph>
    <TTGlyph name="I" xMin="79" yMin="0" xMax="129" yMax="731">
      <contour>
        <pt x="79" y="710" on="1"/>
        <pt x="79" y="721" on="0"/>
        <pt x="95" y="731" on="0"/>
        <pt x="104" y="731" on="1"/>
        <pt x="114" y="731" on="0"/>
        <pt x="129" y="721" on="0"/>
        <pt x="129" y="710" on="1"/>
        <pt x="129" y="22" on="1"/>
        <pt x="129" y="11" on="0"/>
        <pt x="114" y="0" on="0"/>
        <pt x="104" y="0" on="1"/>
        <pt x="95" y="0" on="0"/>
        <pt x="79" y="11" on="0"/>
        <pt x="79" y="22" on="1"/>
      </contour>
    </TTGlyph>
    <TTGlyph name="IJ" xMin="79" yMin="-6" xMax="632" yMax="731">
      <contour>
        <pt x="79" y="710" on="1"/>
        <pt x="79" y="721" on="0"/>
        <pt x="95" y="731" on="0"/>
        <pt x="104" y="731" on="1"/>
        <pt x="114" y="731" on="0"/>
        <pt x="129" y="721" on="0"/>
        <pt x="129" y="710" on="1"/>
        <pt x="129" y="22" on="1"/>
        <pt x="129" y="11" on="0"/>
        <pt x="114" y="0" on="0"/>
        <pt x="104" y="0" on="1"/>
        <pt x="95" y="0" on="0"/>
        <pt x="79" y="11" on="0"/>
        <pt x="79" y="22" on="1"/>
      </contour>
      <contour>
        <pt x="432" y="683" on="1"/>
        <pt x="421" y="683" on="0"/>
        <pt x="411" y="698" on="0"/>
        <pt x="411" y="708" on="1"/>
        <pt x="411" y="716" on="0"/>
        <pt x="421" y="731" on="0"/>
        <pt x="432" y="731" on="1"/>
        <pt x="608" y="731" on="1"/>
        <pt x="617" y="731" on="0"/>
        <pt x="632" y="720" on="0"/>
        <pt x="632" y="709" on="1"/>
        <pt x="632" y="204" on="1"/>
        <pt x="632" y="147" on="0"/>
        <pt x="601" y="67" on="0"/>
        <pt x="547" y="17" on="0"/>
        <pt x="474" y="-6" on="0"/>
        <pt x="432" y="-6" on="1"/>
        <pt x="385" y="-6" on="0"/>
        <pt x="310" y="20" on="0"/>
        <pt x="257" y="65" on="0"/>
        <pt x="229" y="128" on="0"/>
        <pt x="229" y="164" on="1"/>
        <pt x="229" y="179" on="0"/>
        <pt x="243" y="190" on="0"/>
        <pt x="254" y="190" on="1"/>
        <pt x="263" y="190" on="0"/>
        <pt x="279" y="180" on="0"/>
        <pt x="279" y="169" on="1"/>
        <pt x="280" y="106" on="0"/>
        <pt x="365" y="42" on="0"/>
        <pt x="431" y="42" on="1"/>
        <pt x="503" y="42" on="0"/>
        <pt x="582" y="120" on="0"/>
        <pt x="582" y="204" on="1"/>
        <pt x="582" y="683" on="1"/>
      </contour>
    </TTGlyph>
    <TTGlyph name="Iacute" xMin="33" yMin="0" xMax="176" yMax="954">
      <contour>
        <pt x="79" y="710" on="1"/>
        <pt x="79" y="721" on="0"/>
        <pt x="95" y="731" on="0"/>
        <pt x="104" y="731" on="1"/>
        <pt x="114" y="731" on="0"/>
        <pt x="129" y="721" on="0"/>
        <pt x="129" y="710" on="1"/>
        <pt x="129" y="22" on="1"/>
        <pt x="129" y="11" on="0"/>
        <pt x="114" y="0" on="0"/>
        <pt x="104" y="0" on="1"/>
        <pt x="95" y="0" on="0"/>
        <pt x="79" y="11" on="0"/>
        <pt x="79" y="22" on="1"/>
      </contour>
      <contour>
        <pt x="65" y="856" on="1"/>
        <pt x="60" y="853" on="0"/>
        <pt x="55" y="853" on="1"/>
        <pt x="46" y="853" on="0"/>
        <pt x="33" y="867" on="0"/>
        <pt x="33" y="876" on="1"/>
        <pt x="33" y="887" on="0"/>
        <pt x="42" y="891" on="1"/>
        <pt x="149" y="952" on="1"/>
        <pt x="153" y="954" on="0"/>
        <pt x="157" y="954" on="1"/>
        <pt x="166" y="954" on="0"/>
        <pt x="176" y="939" on="0"/>
        <pt x="176" y="931" on="1"/>
        <pt x="176" y="918" on="0"/>
        <pt x="165" y="911" on="1"/>
      </contour>
    </TTGlyph>
    <TTGlyph name="Ibreve" xMin="-8" yMin="0" xMax="217" yMax="969">
      <contour>
        <pt x="79" y="710" on="1"/>
        <pt x="79" y="721" on="0"/>
        <pt x="95" y="731" on="0"/>
        <pt x="104" y="731" on="1"/>
        <pt x="114" y="731" on="0"/>
        <pt x="129" y="721" on="0"/>
        <pt x="129" y="710" on="1"/>
        <pt x="129" y="22" on="1"/>
        <pt x="129" y="11" on="0"/>
        <pt x="114" y="0" on="0"/>
        <pt x="104" y="0" on="1"/>
        <pt x="95" y="0" on="0"/>
        <pt x="79" y="11" on="0"/>
        <pt x="79" y="22" on="1"/>
      </contour>
      <contour>
        <pt x="217" y="969" on="1"/>
        <pt x="217" y="946" on="0"/>
        <pt x="198" y="905" on="0"/>
        <pt x="167" y="874" on="0"/>
        <pt x="127" y="856" on="0"/>
        <pt x="105" y="856" on="1"/>
        <pt x="82" y="856" on="0"/>
        <pt x="42" y="874" on="0"/>
        <pt x="10" y="905" on="0"/>
        <pt x="-8" y="946" on="0"/>
        <pt x="-8" y="969" on="1"/>
        <pt x="30" y="969" on="1"/>
        <pt x="30" y="934" on="0"/>
        <pt x="74" y="887" on="0"/>
        <pt x="105" y="887" on="1"/>
        <pt x="120" y="887" on="0"/>
        <pt x="146" y="900" on="0"/>
        <pt x="167" y="922" on="0"/>
        <pt x="179" y="952" on="0"/>
        <pt x="179" y="969" on="1"/>
      </contour>
    </TTGlyph>
    <TTGlyph name="Icircumflex" xMin="-27" yMin="0" xMax="237" yMax="954">
      <contour>
        <pt x="79" y="710" on="1"/>
        <pt x="79" y="721" on="0"/>
        <pt x="95" y="731" on="0"/>
        <pt x="104" y="731" on="1"/>
        <pt x="114" y="731" on="0"/>
        <pt x="129" y="721" on="0"/>
        <pt x="129" y="710" on="1"/>
        <pt x="129" y="22" on="1"/>
        <pt x="129" y="11" on="0"/>
        <pt x="114" y="0" on="0"/>
        <pt x="104" y="0" on="1"/>
        <pt x="95" y="0" on="0"/>
        <pt x="79" y="11" on="0"/>
        <pt x="79" y="22" on="1"/>
      </contour>
      <contour>
        <pt x="1" y="856" on="1"/>
        <pt x="-1" y="855" on="0"/>
        <pt x="-5" y="853" on="0"/>
        <pt x="-7" y="853" on="1"/>
        <pt x="-15" y="853" on="0"/>
        <pt x="-27" y="866" on="0"/>
        <pt x="-27" y="876" on="1"/>
        <pt x="-27" y="887" on="0"/>
        <pt x="-16" y="893" on="1"/>
        <pt x="88" y="949" on="1"/>
        <pt x="96" y="954" on="0"/>
        <pt x="105" y="954" on="1"/>
        <pt x="114" y="954" on="0"/>
        <pt x="122" y="949" on="1"/>
        <pt x="226" y="894" on="1"/>
        <pt x="237" y="888" on="0"/>
        <pt x="237" y="874" on="1"/>
        <pt x="237" y="866" on="0"/>
        <pt x="226" y="854" on="0"/>
        <pt x="218" y="854" on="1"/>
        <pt x="216" y="854" on="0"/>
        <pt x="211" y="856" on="0"/>
        <pt x="209" y="857" on="1"/>
        <pt x="105" y="912" on="1"/>
      </contour>
    </TTGlyph>
    <TTGlyph name="Idieresis" xMin="13" yMin="0" xMax="195" yMax="919">
      <contour>
        <pt x="79" y="710" on="1"/>
        <pt x="79" y="721" on="0"/>
        <pt x="95" y="731" on="0"/>
        <pt x="104" y="731" on="1"/>
        <pt x="114" y="731" on="0"/>
        <pt x="129" y="721" on="0"/>
        <pt x="129" y="710" on="1"/>
        <pt x="129" y="22" on="1"/>
        <pt x="129" y="11" on="0"/>
        <pt x="114" y="0" on="0"/>
        <pt x="104" y="0" on="1"/>
        <pt x="95" y="0" on="0"/>
        <pt x="79" y="11" on="0"/>
        <pt x="79" y="22" on="1"/>
      </contour>
      <contour>
        <pt x="46" y="919" on="1"/>
        <pt x="60" y="919" on="0"/>
        <pt x="78" y="901" on="0"/>
        <pt x="78" y="887" on="1"/>
        <pt x="78" y="873" on="0"/>
        <pt x="60" y="854" on="0"/>
        <pt x="46" y="854" on="1"/>
        <pt x="32" y="854" on="0"/>
        <pt x="13" y="873" on="0"/>
        <pt x="13" y="887" on="1"/>
        <pt x="13" y="901" on="0"/>
        <pt x="32" y="919" on="0"/>
      </contour>
      <contour>
        <pt x="163" y="919" on="1"/>
        <pt x="177" y="919" on="0"/>
        <pt x="195" y="901" on="0"/>
        <pt x="195" y="887" on="1"/>
        <pt x="195" y="873" on="0"/>
        <pt x="177" y="854" on="0"/>
        <pt x="163" y="854" on="1"/>
        <pt x="148" y="854" on="0"/>
        <pt x="130" y="873" on="0"/>
        <pt x="130" y="887" on="1"/>
        <pt x="130" y="901" on="0"/>
        <pt x="148" y="919" on="0"/>
      </contour>
    </TTGlyph>
    <TTGlyph name="Idotaccent" xMin="71" yMin="0" xMax="137" yMax="919">
      <contour>
        <pt x="79" y="710" on="1"/>
        <pt x="79" y="721" on="0"/>
        <pt x="95" y="731" on="0"/>
        <pt x="104" y="731" on="1"/>
        <pt x="114" y="731" on="0"/>
        <pt x="129" y="721" on="0"/>
        <pt x="129" y="710" on="1"/>
        <pt x="129" y="22" on="1"/>
        <pt x="129" y="11" on="0"/>
        <pt x="114" y="0" on="0"/>
        <pt x="104" y="0" on="1"/>
        <pt x="95" y="0" on="0"/>
        <pt x="79" y="11" on="0"/>
        <pt x="79" y="22" on="1"/>
      </contour>
      <contour>
        <pt x="104" y="919" on="1"/>
        <pt x="118" y="919" on="0"/>
        <pt x="137" y="901" on="0"/>
        <pt x="137" y="887" on="1"/>
        <pt x="137" y="873" on="0"/>
        <pt x="118" y="854" on="0"/>
        <pt x="104" y="854" on="1"/>
        <pt x="90" y="854" on="0"/>
        <pt x="71" y="873" on="0"/>
        <pt x="71" y="887" on="1"/>
        <pt x="71" y="901" on="0"/>
        <pt x="90" y="919" on="0"/>
      </contour>
    </TTGlyph>
    <TTGlyph name="Igrave" xMin="31" yMin="0" xMax="174" yMax="954">
      <contour>
        <pt x="79" y="710" on="1"/>
        <pt x="79" y="721" on="0"/>
        <pt x="95" y="731" on="0"/>
        <pt x="104" y="731" on="1"/>
        <pt x="114" y="731" on="0"/>
        <pt x="129" y="721" on="0"/>
        <pt x="129" y="710" on="1"/>
        <pt x="129" y="22" on="1"/>
        <pt x="129" y="11" on="0"/>
        <pt x="114" y="0" on="0"/>
        <pt x="104" y="0" on="1"/>
        <pt x="95" y="0" on="0"/>
        <pt x="79" y="11" on="0"/>
        <pt x="79" y="22" on="1"/>
      </contour>
      <contour>
        <pt x="42" y="911" on="1"/>
        <pt x="31" y="918" on="0"/>
        <pt x="31" y="931" on="1"/>
        <pt x="31" y="939" on="0"/>
        <pt x="42" y="954" on="0"/>
        <pt x="51" y="954" on="1"/>
        <pt x="54" y="954" on="0"/>
        <pt x="58" y="952" on="1"/>
        <pt x="165" y="891" on="1"/>
        <pt x="174" y="887" on="0"/>
        <pt x="174" y="876" on="1"/>
        <pt x="174" y="867" on="0"/>
        <pt x="161" y="853" on="0"/>
        <pt x="152" y="853" on="1"/>
        <pt x="148" y="853" on="0"/>
        <pt x="142" y="856" on="1"/>
      </contour>
    </TTGlyph>
    <TTGlyph name="Imacron" xMin="-25" yMin="0" xMax="235" yMax="941">
      <contour>
        <pt x="79" y="710" on="1"/>
        <pt x="79" y="721" on="0"/>
        <pt x="95" y="731" on="0"/>
        <pt x="104" y="731" on="1"/>
        <pt x="114" y="731" on="0"/>
        <pt x="129" y="721" on="0"/>
        <pt x="129" y="710" on="1"/>
        <pt x="129" y="22" on="1"/>
        <pt x="129" y="11" on="0"/>
        <pt x="114" y="0" on="0"/>
        <pt x="104" y="0" on="1"/>
        <pt x="95" y="0" on="0"/>
        <pt x="79" y="11" on="0"/>
        <pt x="79" y="22" on="1"/>
      </contour>
      <contour>
        <pt x="-25" y="919" on="1"/>
        <pt x="-25" y="928" on="0"/>
        <pt x="-14" y="941" on="0"/>
        <pt x="-4" y="941" on="1"/>
        <pt x="213" y="941" on="1"/>
        <pt x="221" y="941" on="0"/>
        <pt x="235" y="928" on="0"/>
        <pt x="235" y="919" on="1"/>
        <pt x="235" y="910" on="0"/>
        <pt x="221" y="899" on="0"/>
        <pt x="213" y="899" on="1"/>
        <pt x="-4" y="899" on="1"/>
        <pt x="-25" y="899" on="0"/>
      </contour>
    </TTGlyph>
    <TTGlyph name="Iogonek" xMin="16" yMin="-194" xMax="131" yMax="731">
      <contour>
        <pt x="113" y="-163" on="1"/>
        <pt x="131" y="-163" on="0"/>
        <pt x="131" y="-179" on="1"/>
        <pt x="131" y="-187" on="0"/>
        <pt x="121" y="-194" on="0"/>
        <pt x="107" y="-194" on="1"/>
        <pt x="91" y="-194" on="0"/>
        <pt x="59" y="-187" on="0"/>
        <pt x="33" y="-171" on="0"/>
        <pt x="16" y="-143" on="0"/>
        <pt x="16" y="-123" on="1"/>
        <pt x="16" y="-84" on="0"/>
        <pt x="52" y="-17" on="0"/>
        <pt x="82" y="12" on="1"/>
        <pt x="80" y="15" on="0"/>
        <pt x="80" y="22" on="1"/>
        <pt x="80" y="710" on="1"/>
        <pt x="80" y="721" on="0"/>
        <pt x="96" y="731" on="0"/>
        <pt x="105" y="731" on="1"/>
        <pt x="115" y="731" on="0"/>
        <pt x="130" y="721" on="0"/>
        <pt x="130" y="710" on="1"/>
        <pt x="130" y="22" on="1"/>
        <pt x="130" y="8" on="0"/>
        <pt x="118" y="3" on="1"/>
        <pt x="89" y="-24" on="0"/>
        <pt x="50" y="-83" on="0"/>
        <pt x="50" y="-120" on="1"/>
        <pt x="50" y="-144" on="0"/>
        <pt x="84" y="-163" on="0"/>
      </contour>
    </TTGlyph>
    <TTGlyph name="Itilde" xMin="-46" yMin="0" xMax="256" yMax="949">
      <contour>
        <pt x="79" y="710" on="1"/>
        <pt x="79" y="721" on="0"/>
        <pt x="95" y="731" on="0"/>
        <pt x="104" y="731" on="1"/>
        <pt x="114" y="731" on="0"/>
        <pt x="129" y="721" on="0"/>
        <pt x="129" y="710" on="1"/>
        <pt x="129" y="22" on="1"/>
        <pt x="129" y="11" on="0"/>
        <pt x="114" y="0" on="0"/>
        <pt x="104" y="0" on="1"/>
        <pt x="95" y="0" on="0"/>
        <pt x="79" y="11" on="0"/>
        <pt x="79" y="22" on="1"/>
      </contour>
      <contour>
        <pt x="41" y="907" on="1"/>
        <pt x="25" y="907" on="0"/>
        <pt x="3" y="897" on="0"/>
        <pt x="-13" y="884" on="0"/>
        <pt x="-24" y="874" on="0"/>
        <pt x="-30" y="874" on="1"/>
        <pt x="-38" y="874" on="0"/>
        <pt x="-46" y="887" on="0"/>
        <pt x="-46" y="895" on="1"/>
        <pt x="-46" y="907" on="0"/>
        <pt x="-28" y="926" on="0"/>
        <pt x="-1" y="941" on="0"/>
        <pt x="30" y="949" on="0"/>
        <pt x="43" y="949" on="1"/>
        <pt x="62" y="949" on="0"/>
        <pt x="92" y="938" on="0"/>
        <pt x="121" y="924" on="0"/>
        <pt x="152" y="913" on="0"/>
        <pt x="172" y="913" on="1"/>
        <pt x="189" y="913" on="0"/>
        <pt x="209" y="923" on="0"/>
        <pt x="223" y="934" on="0"/>
        <pt x="233" y="944" on="0"/>
        <pt x="239" y="944" on="1"/>
        <pt x="247" y="944" on="0"/>
        <pt x="256" y="932" on="0"/>
        <pt x="256" y="925" on="1"/>
        <pt x="256" y="911" on="0"/>
        <pt x="238" y="891" on="0"/>
        <pt x="212" y="878" on="0"/>
        <pt x="183" y="871" on="0"/>
        <pt x="172" y="871" on="1"/>
        <pt x="153" y="871" on="0"/>
        <pt x="123" y="882" on="0"/>
        <pt x="93" y="896" on="0"/>
        <pt x="62" y="907" on="0"/>
      </contour>
    </TTGlyph>
    <TTGlyph name="J" xMin="24" yMin="-6" xMax="427" yMax="731">
      <contour>
        <pt x="227" y="683" on="1"/>
        <pt x="216" y="683" on="0"/>
        <pt x="206" y="698" on="0"/>
        <pt x="206" y="708" on="1"/>
        <pt x="206" y="716" on="0"/>
        <pt x="216" y="731" on="0"/>
        <pt x="227" y="731" on="1"/>
        <pt x="403" y="731" on="1"/>
        <pt x="412" y="731" on="0"/>
        <pt x="427" y="720" on="0"/>
        <pt x="427" y="709" on="1"/>
        <pt x="427" y="204" on="1"/>
        <pt x="427" y="147" on="0"/>
        <pt x="396" y="67" on="0"/>
        <pt x="342" y="17" on="0"/>
        <pt x="269" y="-6" on="0"/>
        <pt x="227" y="-6" on="1"/>
        <pt x="180" y="-6" on="0"/>
        <pt x="105" y="20" on="0"/>
        <pt x="52" y="65" on="0"/>
        <pt x="24" y="128" on="0"/>
        <pt x="24" y="164" on="1"/>
        <pt x="24" y="179" on="0"/>
        <pt x="38" y="190" on="0"/>
        <pt x="49" y="190" on="1"/>
        <pt x="58" y="190" on="0"/>
        <pt x="74" y="180" on="0"/>
        <pt x="74" y="169" on="1"/>
        <pt x="75" y="106" on="0"/>
        <pt x="160" y="42" on="0"/>
        <pt x="226" y="42" on="1"/>
        <pt x="298" y="42" on="0"/>
        <pt x="377" y="120" on="0"/>
        <pt x="377" y="204" on="1"/>
        <pt x="377" y="683" on="1"/>
      </contour>
    </TTGlyph>
    <TTGlyph name="Jcircumflex" xMin="24" yMin="-6" xMax="427" yMax="954">
      <contour>
        <pt x="148" y="856" on="1"/>
        <pt x="146" y="855" on="0"/>
        <pt x="142" y="853" on="0"/>
        <pt x="140" y="853" on="1"/>
        <pt x="132" y="853" on="0"/>
        <pt x="120" y="866" on="0"/>
        <pt x="120" y="876" on="1"/>
        <pt x="120" y="887" on="0"/>
        <pt x="131" y="893" on="1"/>
        <pt x="235" y="949" on="1"/>
        <pt x="243" y="954" on="0"/>
        <pt x="252" y="954" on="1"/>
        <pt x="261" y="954" on="0"/>
        <pt x="269" y="949" on="1"/>
        <pt x="373" y="894" on="1"/>
        <pt x="384" y="888" on="0"/>
        <pt x="384" y="874" on="1"/>
        <pt x="384" y="866" on="0"/>
        <pt x="373" y="854" on="0"/>
        <pt x="365" y="854" on="1"/>
        <pt x="363" y="854" on="0"/>
        <pt x="358" y="856" on="0"/>
        <pt x="356" y="857" on="1"/>
        <pt x="252" y="912" on="1"/>
      </contour>
      <contour>
        <pt x="227" y="683" on="1"/>
        <pt x="216" y="683" on="0"/>
        <pt x="206" y="698" on="0"/>
        <pt x="206" y="708" on="1"/>
        <pt x="206" y="716" on="0"/>
        <pt x="216" y="731" on="0"/>
        <pt x="227" y="731" on="1"/>
        <pt x="403" y="731" on="1"/>
        <pt x="412" y="731" on="0"/>
        <pt x="427" y="720" on="0"/>
        <pt x="427" y="709" on="1"/>
        <pt x="427" y="204" on="1"/>
        <pt x="427" y="147" on="0"/>
        <pt x="396" y="67" on="0"/>
        <pt x="342" y="17" on="0"/>
        <pt x="269" y="-6" on="0"/>
        <pt x="227" y="-6" on="1"/>
        <pt x="180" y="-6" on="0"/>
        <pt x="105" y="20" on="0"/>
        <pt x="52" y="65" on="0"/>
        <pt x="24" y="128" on="0"/>
        <pt x="24" y="164" on="1"/>
        <pt x="24" y="179" on="0"/>
        <pt x="38" y="190" on="0"/>
        <pt x="49" y="190" on="1"/>
        <pt x="58" y="190" on="0"/>
        <pt x="74" y="180" on="0"/>
        <pt x="74" y="169" on="1"/>
        <pt x="75" y="106" on="0"/>
        <pt x="160" y="42" on="0"/>
        <pt x="226" y="42" on="1"/>
        <pt x="298" y="42" on="0"/>
        <pt x="377" y="120" on="0"/>
        <pt x="377" y="204" on="1"/>
        <pt x="377" y="683" on="1"/>
      </contour>
    </TTGlyph>
    <TTGlyph name="K" xMin="79" yMin="-1" xMax="508" yMax="731">
      <contour>
        <pt x="79" y="710" on="1"/>
        <pt x="79" y="721" on="0"/>
        <pt x="95" y="731" on="0"/>
        <pt x="104" y="731" on="1"/>
        <pt x="114" y="731" on="0"/>
        <pt x="129" y="721" on="0"/>
        <pt x="129" y="710" on="1"/>
        <pt x="129" y="336" on="1"/>
        <pt x="436" y="723" on="1"/>
        <pt x="439" y="728" on="0"/>
        <pt x="448" y="731" on="0"/>
        <pt x="453" y="731" on="1"/>
        <pt x="463" y="731" on="0"/>
        <pt x="480" y="715" on="0"/>
        <pt x="480" y="705" on="1"/>
        <pt x="480" y="697" on="0"/>
        <pt x="475" y="693" on="1"/>
        <pt x="252" y="415" on="1"/>
        <pt x="504" y="35" on="1"/>
        <pt x="508" y="31" on="0"/>
        <pt x="508" y="24" on="1"/>
        <pt x="508" y="14" on="0"/>
        <pt x="491" y="-1" on="0"/>
        <pt x="480" y="-1" on="1"/>
        <pt x="468" y="-1" on="0"/>
        <pt x="461" y="11" on="1"/>
        <pt x="219" y="373" on="1"/>
        <pt x="129" y="261" on="1"/>
        <pt x="129" y="22" on="1"/>
        <pt x="129" y="11" on="0"/>
        <pt x="114" y="0" on="0"/>
        <pt x="104" y="0" on="1"/>
        <pt x="95" y="0" on="0"/>
        <pt x="79" y="11" on="0"/>
        <pt x="79" y="22" on="1"/>
      </contour>
    </TTGlyph>
    <TTGlyph name="Kcommaaccent" xMin="79" yMin="-149" xMax="508" yMax="731">
      <contour>
        <pt x="217" y="-146" on="1"/>
        <pt x="212" y="-149" on="0"/>
        <pt x="208" y="-149" on="1"/>
        <pt x="199" y="-149" on="0"/>
        <pt x="185" y="-135" on="0"/>
        <pt x="185" y="-126" on="1"/>
        <pt x="185" y="-115" on="0"/>
        <pt x="195" y="-111" on="1"/>
        <pt x="301" y="-50" on="1"/>
        <pt x="307" y="-48" on="0"/>
        <pt x="309" y="-48" on="1"/>
        <pt x="318" y="-48" on="0"/>
        <pt x="329" y="-63" on="0"/>
        <pt x="329" y="-71" on="1"/>
        <pt x="329" y="-84" on="0"/>
        <pt x="317" y="-91" on="1"/>
      </contour>
      <contour>
        <pt x="79" y="710" on="1"/>
        <pt x="79" y="721" on="0"/>
        <pt x="95" y="731" on="0"/>
        <pt x="104" y="731" on="1"/>
        <pt x="114" y="731" on="0"/>
        <pt x="129" y="721" on="0"/>
        <pt x="129" y="710" on="1"/>
        <pt x="129" y="336" on="1"/>
        <pt x="436" y="723" on="1"/>
        <pt x="439" y="728" on="0"/>
        <pt x="448" y="731" on="0"/>
        <pt x="453" y="731" on="1"/>
        <pt x="463" y="731" on="0"/>
        <pt x="480" y="715" on="0"/>
        <pt x="480" y="705" on="1"/>
        <pt x="480" y="697" on="0"/>
        <pt x="475" y="693" on="1"/>
        <pt x="252" y="415" on="1"/>
        <pt x="504" y="35" on="1"/>
        <pt x="508" y="31" on="0"/>
        <pt x="508" y="24" on="1"/>
        <pt x="508" y="14" on="0"/>
        <pt x="491" y="-1" on="0"/>
        <pt x="480" y="-1" on="1"/>
        <pt x="468" y="-1" on="0"/>
        <pt x="461" y="11" on="1"/>
        <pt x="219" y="373" on="1"/>
        <pt x="129" y="261" on="1"/>
        <pt x="129" y="22" on="1"/>
        <pt x="129" y="11" on="0"/>
        <pt x="114" y="0" on="0"/>
        <pt x="104" y="0" on="1"/>
        <pt x="95" y="0" on="0"/>
        <pt x="79" y="11" on="0"/>
        <pt x="79" y="22" on="1"/>
      </contour>
    </TTGlyph>
    <TTGlyph name="L" xMin="79" yMin="0" xMax="443" yMax="731">
      <contour>
        <pt x="103" y="0" on="1"/>
        <pt x="94" y="0" on="0"/>
        <pt x="79" y="11" on="0"/>
        <pt x="79" y="22" on="1"/>
        <pt x="79" y="710" on="1"/>
        <pt x="79" y="721" on="0"/>
        <pt x="95" y="731" on="0"/>
        <pt x="104" y="731" on="1"/>
        <pt x="114" y="731" on="0"/>
        <pt x="129" y="721" on="0"/>
        <pt x="129" y="710" on="1"/>
        <pt x="129" y="48" on="1"/>
        <pt x="424" y="48" on="1"/>
        <pt x="434" y="48" on="0"/>
        <pt x="443" y="33" on="0"/>
        <pt x="443" y="24" on="1"/>
        <pt x="443" y="15" on="0"/>
        <pt x="434" y="0" on="0"/>
        <pt x="424" y="0" on="1"/>
      </contour>
    </TTGlyph>
    <TTGlyph name="Lacute" xMin="79" yMin="0" xMax="443" yMax="954">
      <contour>
        <pt x="220" y="856" on="1"/>
        <pt x="215" y="853" on="0"/>
        <pt x="210" y="853" on="1"/>
        <pt x="201" y="853" on="0"/>
        <pt x="188" y="867" on="0"/>
        <pt x="188" y="876" on="1"/>
        <pt x="188" y="887" on="0"/>
        <pt x="197" y="891" on="1"/>
        <pt x="304" y="952" on="1"/>
        <pt x="308" y="954" on="0"/>
        <pt x="312" y="954" on="1"/>
        <pt x="321" y="954" on="0"/>
        <pt x="331" y="939" on="0"/>
        <pt x="331" y="931" on="1"/>
        <pt x="331" y="918" on="0"/>
        <pt x="320" y="911" on="1"/>
      </contour>
      <contour>
        <pt x="103" y="0" on="1"/>
        <pt x="94" y="0" on="0"/>
        <pt x="79" y="11" on="0"/>
        <pt x="79" y="22" on="1"/>
        <pt x="79" y="710" on="1"/>
        <pt x="79" y="721" on="0"/>
        <pt x="95" y="731" on="0"/>
        <pt x="104" y="731" on="1"/>
        <pt x="114" y="731" on="0"/>
        <pt x="129" y="721" on="0"/>
        <pt x="129" y="710" on="1"/>
        <pt x="129" y="48" on="1"/>
        <pt x="424" y="48" on="1"/>
        <pt x="434" y="48" on="0"/>
        <pt x="443" y="33" on="0"/>
        <pt x="443" y="24" on="1"/>
        <pt x="443" y="15" on="0"/>
        <pt x="434" y="0" on="0"/>
        <pt x="424" y="0" on="1"/>
      </contour>
    </TTGlyph>
    <TTGlyph name="Lcaron" xMin="79" yMin="0" xMax="443" yMax="741">
      <contour>
        <pt x="332" y="741" on="1"/>
        <pt x="348" y="741" on="0"/>
        <pt x="372" y="717" on="0"/>
        <pt x="372" y="700" on="1"/>
        <pt x="372" y="689" on="0"/>
        <pt x="351" y="629" on="0"/>
        <pt x="335" y="596" on="1"/>
        <pt x="330" y="585" on="0"/>
        <pt x="319" y="585" on="1"/>
        <pt x="312" y="585" on="0"/>
        <pt x="299" y="595" on="0"/>
        <pt x="299" y="603" on="1"/>
        <pt x="299" y="608" on="0"/>
        <pt x="301" y="610" on="1"/>
        <pt x="320" y="661" on="1"/>
        <pt x="307" y="666" on="0"/>
        <pt x="291" y="687" on="0"/>
        <pt x="291" y="700" on="1"/>
        <pt x="291" y="717" on="0"/>
        <pt x="314" y="741" on="0"/>
      </contour>
      <contour>
        <pt x="103" y="0" on="1"/>
        <pt x="94" y="0" on="0"/>
        <pt x="79" y="11" on="0"/>
        <pt x="79" y="22" on="1"/>
        <pt x="79" y="710" on="1"/>
        <pt x="79" y="721" on="0"/>
        <pt x="95" y="731" on="0"/>
        <pt x="104" y="731" on="1"/>
        <pt x="114" y="731" on="0"/>
        <pt x="129" y="721" on="0"/>
        <pt x="129" y="710" on="1"/>
        <pt x="129" y="48" on="1"/>
        <pt x="424" y="48" on="1"/>
        <pt x="434" y="48" on="0"/>
        <pt x="443" y="33" on="0"/>
        <pt x="443" y="24" on="1"/>
        <pt x="443" y="15" on="0"/>
        <pt x="434" y="0" on="0"/>
        <pt x="424" y="0" on="1"/>
      </contour>
    </TTGlyph>
    <TTGlyph name="Lcommaaccent" xMin="79" yMin="-149" xMax="443" yMax="731">
      <contour>
        <pt x="213" y="-146" on="1"/>
        <pt x="208" y="-149" on="0"/>
        <pt x="204" y="-149" on="1"/>
        <pt x="195" y="-149" on="0"/>
        <pt x="181" y="-135" on="0"/>
        <pt x="181" y="-126" on="1"/>
        <pt x="181" y="-115" on="0"/>
        <pt x="191" y="-111" on="1"/>
        <pt x="297" y="-50" on="1"/>
        <pt x="303" y="-48" on="0"/>
        <pt x="305" y="-48" on="1"/>
        <pt x="314" y="-48" on="0"/>
        <pt x="325" y="-63" on="0"/>
        <pt x="325" y="-71" on="1"/>
        <pt x="325" y="-84" on="0"/>
        <pt x="313" y="-91" on="1"/>
      </contour>
      <contour>
        <pt x="103" y="0" on="1"/>
        <pt x="94" y="0" on="0"/>
        <pt x="79" y="11" on="0"/>
        <pt x="79" y="22" on="1"/>
        <pt x="79" y="710" on="1"/>
        <pt x="79" y="721" on="0"/>
        <pt x="95" y="731" on="0"/>
        <pt x="104" y="731" on="1"/>
        <pt x="114" y="731" on="0"/>
        <pt x="129" y="721" on="0"/>
        <pt x="129" y="710" on="1"/>
        <pt x="129" y="48" on="1"/>
        <pt x="424" y="48" on="1"/>
        <pt x="434" y="48" on="0"/>
        <pt x="443" y="33" on="0"/>
        <pt x="443" y="24" on="1"/>
        <pt x="443" y="15" on="0"/>
        <pt x="434" y="0" on="0"/>
        <pt x="424" y="0" on="1"/>
      </contour>
    </TTGlyph>
    <TTGlyph name="Ldot" xMin="79" yMin="0" xMax="443" yMax="731">
      <contour>
        <pt x="103" y="0" on="1"/>
        <pt x="94" y="0" on="0"/>
        <pt x="79" y="11" on="0"/>
        <pt x="79" y="22" on="1"/>
        <pt x="79" y="710" on="1"/>
        <pt x="79" y="721" on="0"/>
        <pt x="95" y="731" on="0"/>
        <pt x="104" y="731" on="1"/>
        <pt x="114" y="731" on="0"/>
        <pt x="129" y="721" on="0"/>
        <pt x="129" y="710" on="1"/>
        <pt x="129" y="48" on="1"/>
        <pt x="424" y="48" on="1"/>
        <pt x="434" y="48" on="0"/>
        <pt x="443" y="33" on="0"/>
        <pt x="443" y="24" on="1"/>
        <pt x="443" y="15" on="0"/>
        <pt x="434" y="0" on="0"/>
        <pt x="424" y="0" on="1"/>
      </contour>
      <contour>
        <pt x="329" y="461" on="1"/>
        <pt x="346" y="461" on="0"/>
        <pt x="369" y="438" on="0"/>
        <pt x="369" y="421" on="1"/>
        <pt x="369" y="405" on="0"/>
        <pt x="346" y="381" on="0"/>
        <pt x="329" y="381" on="1"/>
        <pt x="311" y="381" on="0"/>
        <pt x="288" y="405" on="0"/>
        <pt x="288" y="421" on="1"/>
        <pt x="288" y="438" on="0"/>
        <pt x="311" y="461" on="0"/>
      </contour>
    </TTGlyph>
    <TTGlyph name="Lslash" xMin="4" yMin="0" xMax="449" yMax="731">
      <contour>
        <pt x="109" y="0" on="1"/>
        <pt x="100" y="0" on="0"/>
        <pt x="85" y="11" on="0"/>
        <pt x="85" y="22" on="1"/>
        <pt x="85" y="296" on="1"/>
        <pt x="34" y="268" on="1"/>
        <pt x="29" y="265" on="0"/>
        <pt x="25" y="265" on="1"/>
        <pt x="17" y="265" on="0"/>
        <pt x="4" y="280" on="0"/>
        <pt x="4" y="290" on="1"/>
        <pt x="4" y="295" on="0"/>
        <pt x="9" y="304" on="0"/>
        <pt x="14" y="306" on="1"/>
        <pt x="85" y="346" on="1"/>
        <pt x="85" y="710" on="1"/>
        <pt x="85" y="721" on="0"/>
        <pt x="101" y="731" on="0"/>
        <pt x="110" y="731" on="1"/>
        <pt x="120" y="731" on="0"/>
        <pt x="135" y="721" on="0"/>
        <pt x="135" y="710" on="1"/>
        <pt x="135" y="374" on="1"/>
        <pt x="242" y="435" on="1"/>
        <pt x="245" y="437" on="0"/>
        <pt x="251" y="437" on="1"/>
        <pt x="260" y="437" on="0"/>
        <pt x="273" y="423" on="0"/>
        <pt x="273" y="414" on="1"/>
        <pt x="273" y="403" on="0"/>
        <pt x="263" y="396" on="1"/>
        <pt x="135" y="324" on="1"/>
        <pt x="135" y="48" on="1"/>
        <pt x="430" y="48" on="1"/>
        <pt x="440" y="48" on="0"/>
        <pt x="449" y="33" on="0"/>
        <pt x="449" y="24" on="1"/>
        <pt x="449" y="15" on="0"/>
        <pt x="440" y="0" on="0"/>
        <pt x="430" y="0" on="1"/>
      </contour>
    </TTGlyph>
    <TTGlyph name="M" xMin="79" yMin="0" xMax="580" yMax="731">
      <contour>
        <pt x="352" y="277" on="1"/>
        <pt x="346" y="266" on="0"/>
        <pt x="333" y="256" on="0"/>
        <pt x="329" y="256" on="1"/>
        <pt x="316" y="256" on="0"/>
        <pt x="306" y="277" on="1"/>
        <pt x="129" y="618" on="1"/>
        <pt x="129" y="22" on="1"/>
        <pt x="129" y="11" on="0"/>
        <pt x="114" y="0" on="0"/>
        <pt x="104" y="0" on="1"/>
        <pt x="95" y="0" on="0"/>
        <pt x="79" y="11" on="0"/>
        <pt x="79" y="22" on="1"/>
        <pt x="79" y="707" on="1"/>
        <pt x="79" y="721" on="0"/>
        <pt x="94" y="731" on="0"/>
        <pt x="104" y="731" on="1"/>
        <pt x="117" y="731" on="0"/>
        <pt x="139" y="703" on="0"/>
        <pt x="146" y="690" on="1"/>
        <pt x="329" y="332" on="1"/>
        <pt x="513" y="690" on="1"/>
        <pt x="520" y="703" on="0"/>
        <pt x="541" y="731" on="0"/>
        <pt x="555" y="731" on="1"/>
        <pt x="565" y="731" on="0"/>
        <pt x="580" y="721" on="0"/>
        <pt x="580" y="707" on="1"/>
        <pt x="580" y="22" on="1"/>
        <pt x="580" y="11" on="0"/>
        <pt x="564" y="0" on="0"/>
        <pt x="555" y="0" on="1"/>
        <pt x="545" y="0" on="0"/>
        <pt x="530" y="11" on="0"/>
        <pt x="530" y="22" on="1"/>
        <pt x="530" y="617" on="1"/>
      </contour>
    </TTGlyph>
    <TTGlyph name="N" xMin="79" yMin="0" xMax="484" yMax="731">
      <contour>
        <pt x="459" y="0" on="1"/>
        <pt x="448" y="0" on="0"/>
        <pt x="430" y="24" on="0"/>
        <pt x="423" y="37" on="1"/>
        <pt x="129" y="613" on="1"/>
        <pt x="129" y="22" on="1"/>
        <pt x="129" y="11" on="0"/>
        <pt x="114" y="0" on="0"/>
        <pt x="104" y="0" on="1"/>
        <pt x="95" y="0" on="0"/>
        <pt x="79" y="11" on="0"/>
        <pt x="79" y="22" on="1"/>
        <pt x="79" y="710" on="1"/>
        <pt x="79" y="722" on="0"/>
        <pt x="94" y="731" on="0"/>
        <pt x="104" y="731" on="1"/>
        <pt x="118" y="731" on="0"/>
        <pt x="138" y="703" on="0"/>
        <pt x="145" y="690" on="1"/>
        <pt x="434" y="119" on="1"/>
        <pt x="434" y="710" on="1"/>
        <pt x="434" y="721" on="0"/>
        <pt x="450" y="731" on="0"/>
        <pt x="459" y="731" on="1"/>
        <pt x="469" y="731" on="0"/>
        <pt x="484" y="721" on="0"/>
        <pt x="484" y="710" on="1"/>
        <pt x="484" y="22" on="1"/>
        <pt x="484" y="11" on="0"/>
        <pt x="469" y="0" on="0"/>
      </contour>
    </TTGlyph>
    <TTGlyph name="Nacute" xMin="79" yMin="0" xMax="484" yMax="954">
      <contour>
        <pt x="240" y="856" on="1"/>
        <pt x="235" y="853" on="0"/>
        <pt x="230" y="853" on="1"/>
        <pt x="221" y="853" on="0"/>
        <pt x="208" y="867" on="0"/>
        <pt x="208" y="876" on="1"/>
        <pt x="208" y="887" on="0"/>
        <pt x="217" y="891" on="1"/>
        <pt x="324" y="952" on="1"/>
        <pt x="328" y="954" on="0"/>
        <pt x="332" y="954" on="1"/>
        <pt x="341" y="954" on="0"/>
        <pt x="351" y="939" on="0"/>
        <pt x="351" y="931" on="1"/>
        <pt x="351" y="918" on="0"/>
        <pt x="340" y="911" on="1"/>
      </contour>
      <contour>
        <pt x="459" y="0" on="1"/>
        <pt x="448" y="0" on="0"/>
        <pt x="430" y="24" on="0"/>
        <pt x="423" y="37" on="1"/>
        <pt x="129" y="613" on="1"/>
        <pt x="129" y="22" on="1"/>
        <pt x="129" y="11" on="0"/>
        <pt x="114" y="0" on="0"/>
        <pt x="104" y="0" on="1"/>
        <pt x="95" y="0" on="0"/>
        <pt x="79" y="11" on="0"/>
        <pt x="79" y="22" on="1"/>
        <pt x="79" y="710" on="1"/>
        <pt x="79" y="722" on="0"/>
        <pt x="94" y="731" on="0"/>
        <pt x="104" y="731" on="1"/>
        <pt x="118" y="731" on="0"/>
        <pt x="138" y="703" on="0"/>
        <pt x="145" y="690" on="1"/>
        <pt x="434" y="119" on="1"/>
        <pt x="434" y="710" on="1"/>
        <pt x="434" y="721" on="0"/>
        <pt x="450" y="731" on="0"/>
        <pt x="459" y="731" on="1"/>
        <pt x="469" y="731" on="0"/>
        <pt x="484" y="721" on="0"/>
        <pt x="484" y="710" on="1"/>
        <pt x="484" y="22" on="1"/>
        <pt x="484" y="11" on="0"/>
        <pt x="469" y="0" on="0"/>
      </contour>
    </TTGlyph>
    <TTGlyph name="Ncaron" xMin="79" yMin="0" xMax="484" yMax="988">
      <contour>
        <pt x="281" y="883" on="1"/>
        <pt x="379" y="981" on="1"/>
        <pt x="386" y="988" on="0"/>
        <pt x="395" y="988" on="1"/>
        <pt x="403" y="988" on="0"/>
        <pt x="412" y="976" on="0"/>
        <pt x="412" y="969" on="1"/>
        <pt x="412" y="962" on="0"/>
        <pt x="402" y="950" on="1"/>
        <pt x="301" y="854" on="1"/>
        <pt x="289" y="844" on="0"/>
        <pt x="281" y="844" on="1"/>
        <pt x="270" y="844" on="0"/>
        <pt x="260" y="854" on="1"/>
        <pt x="160" y="950" on="1"/>
        <pt x="150" y="960" on="0"/>
        <pt x="150" y="969" on="1"/>
        <pt x="150" y="976" on="0"/>
        <pt x="159" y="988" on="0"/>
        <pt x="167" y="988" on="1"/>
        <pt x="175" y="988" on="0"/>
        <pt x="182" y="981" on="1"/>
      </contour>
      <contour>
        <pt x="459" y="0" on="1"/>
        <pt x="448" y="0" on="0"/>
        <pt x="430" y="24" on="0"/>
        <pt x="423" y="37" on="1"/>
        <pt x="129" y="613" on="1"/>
        <pt x="129" y="22" on="1"/>
        <pt x="129" y="11" on="0"/>
        <pt x="114" y="0" on="0"/>
        <pt x="104" y="0" on="1"/>
        <pt x="95" y="0" on="0"/>
        <pt x="79" y="11" on="0"/>
        <pt x="79" y="22" on="1"/>
        <pt x="79" y="710" on="1"/>
        <pt x="79" y="722" on="0"/>
        <pt x="94" y="731" on="0"/>
        <pt x="104" y="731" on="1"/>
        <pt x="118" y="731" on="0"/>
        <pt x="138" y="703" on="0"/>
        <pt x="145" y="690" on="1"/>
        <pt x="434" y="119" on="1"/>
        <pt x="434" y="710" on="1"/>
        <pt x="434" y="721" on="0"/>
        <pt x="450" y="731" on="0"/>
        <pt x="459" y="731" on="1"/>
        <pt x="469" y="731" on="0"/>
        <pt x="484" y="721" on="0"/>
        <pt x="484" y="710" on="1"/>
        <pt x="484" y="22" on="1"/>
        <pt x="484" y="11" on="0"/>
        <pt x="469" y="0" on="0"/>
      </contour>
    </TTGlyph>
    <TTGlyph name="Ncommaaccent" xMin="79" yMin="-149" xMax="484" yMax="731">
      <contour>
        <pt x="239" y="-146" on="1"/>
        <pt x="234" y="-149" on="0"/>
        <pt x="230" y="-149" on="1"/>
        <pt x="221" y="-149" on="0"/>
        <pt x="207" y="-135" on="0"/>
        <pt x="207" y="-126" on="1"/>
        <pt x="207" y="-115" on="0"/>
        <pt x="217" y="-111" on="1"/>
        <pt x="323" y="-50" on="1"/>
        <pt x="329" y="-48" on="0"/>
        <pt x="331" y="-48" on="1"/>
        <pt x="340" y="-48" on="0"/>
        <pt x="351" y="-63" on="0"/>
        <pt x="351" y="-71" on="1"/>
        <pt x="351" y="-84" on="0"/>
        <pt x="339" y="-91" on="1"/>
      </contour>
      <contour>
        <pt x="459" y="0" on="1"/>
        <pt x="448" y="0" on="0"/>
        <pt x="430" y="24" on="0"/>
        <pt x="423" y="37" on="1"/>
        <pt x="129" y="613" on="1"/>
        <pt x="129" y="22" on="1"/>
        <pt x="129" y="11" on="0"/>
        <pt x="114" y="0" on="0"/>
        <pt x="104" y="0" on="1"/>
        <pt x="95" y="0" on="0"/>
        <pt x="79" y="11" on="0"/>
        <pt x="79" y="22" on="1"/>
        <pt x="79" y="710" on="1"/>
        <pt x="79" y="722" on="0"/>
        <pt x="94" y="731" on="0"/>
        <pt x="104" y="731" on="1"/>
        <pt x="118" y="731" on="0"/>
        <pt x="138" y="703" on="0"/>
        <pt x="145" y="690" on="1"/>
        <pt x="434" y="119" on="1"/>
        <pt x="434" y="710" on="1"/>
        <pt x="434" y="721" on="0"/>
        <pt x="450" y="731" on="0"/>
        <pt x="459" y="731" on="1"/>
        <pt x="469" y="731" on="0"/>
        <pt x="484" y="721" on="0"/>
        <pt x="484" y="710" on="1"/>
        <pt x="484" y="22" on="1"/>
        <pt x="484" y="11" on="0"/>
        <pt x="469" y="0" on="0"/>
      </contour>
    </TTGlyph>
    <TTGlyph name="Ntilde" xMin="79" yMin="0" xMax="484" yMax="949">
      <contour>
        <pt x="459" y="0" on="1"/>
        <pt x="448" y="0" on="0"/>
        <pt x="430" y="24" on="0"/>
        <pt x="423" y="37" on="1"/>
        <pt x="129" y="613" on="1"/>
        <pt x="129" y="22" on="1"/>
        <pt x="129" y="11" on="0"/>
        <pt x="114" y="0" on="0"/>
        <pt x="104" y="0" on="1"/>
        <pt x="95" y="0" on="0"/>
        <pt x="79" y="11" on="0"/>
        <pt x="79" y="22" on="1"/>
        <pt x="79" y="710" on="1"/>
        <pt x="79" y="722" on="0"/>
        <pt x="94" y="731" on="0"/>
        <pt x="104" y="731" on="1"/>
        <pt x="118" y="731" on="0"/>
        <pt x="138" y="703" on="0"/>
        <pt x="145" y="690" on="1"/>
        <pt x="434" y="119" on="1"/>
        <pt x="434" y="710" on="1"/>
        <pt x="434" y="721" on="0"/>
        <pt x="450" y="731" on="0"/>
        <pt x="459" y="731" on="1"/>
        <pt x="469" y="731" on="0"/>
        <pt x="484" y="721" on="0"/>
        <pt x="484" y="710" on="1"/>
        <pt x="484" y="22" on="1"/>
        <pt x="484" y="11" on="0"/>
        <pt x="469" y="0" on="0"/>
      </contour>
      <contour>
        <pt x="217" y="907" on="1"/>
        <pt x="201" y="907" on="0"/>
        <pt x="179" y="897" on="0"/>
        <pt x="163" y="884" on="0"/>
        <pt x="152" y="874" on="0"/>
        <pt x="146" y="874" on="1"/>
        <pt x="138" y="874" on="0"/>
        <pt x="130" y="887" on="0"/>
        <pt x="130" y="895" on="1"/>
        <pt x="130" y="907" on="0"/>
        <pt x="148" y="926" on="0"/>
        <pt x="175" y="941" on="0"/>
        <pt x="206" y="949" on="0"/>
        <pt x="219" y="949" on="1"/>
        <pt x="238" y="949" on="0"/>
        <pt x="268" y="938" on="0"/>
        <pt x="297" y="924" on="0"/>
        <pt x="328" y="913" on="0"/>
        <pt x="348" y="913" on="1"/>
        <pt x="365" y="913" on="0"/>
        <pt x="385" y="923" on="0"/>
        <pt x="399" y="934" on="0"/>
        <pt x="409" y="944" on="0"/>
        <pt x="415" y="944" on="1"/>
        <pt x="423" y="944" on="0"/>
        <pt x="432" y="932" on="0"/>
        <pt x="432" y="925" on="1"/>
        <pt x="432" y="911" on="0"/>
        <pt x="414" y="891" on="0"/>
        <pt x="388" y="878" on="0"/>
        <pt x="359" y="871" on="0"/>
        <pt x="348" y="871" on="1"/>
        <pt x="329" y="871" on="0"/>
        <pt x="299" y="882" on="0"/>
        <pt x="269" y="896" on="0"/>
        <pt x="238" y="907" on="0"/>
      </contour>
    </TTGlyph>
    <TTGlyph name="O" xMin="72" yMin="-6" xMax="475" yMax="731">
      <contour>
        <pt x="273" y="-6" on="1"/>
        <pt x="230" y="-6" on="0"/>
        <pt x="157" y="17" on="0"/>
        <pt x="103" y="67" on="0"/>
        <pt x="72" y="147" on="0"/>
        <pt x="72" y="204" on="1"/>
        <pt x="72" y="521" on="1"/>
        <pt x="72" y="578" on="0"/>
        <pt x="103" y="658" on="0"/>
        <pt x="157" y="708" on="0"/>
        <pt x="230" y="731" on="0"/>
        <pt x="273" y="731" on="1"/>
        <pt x="315" y="731" on="0"/>
        <pt x="389" y="708" on="0"/>
        <pt x="444" y="658" on="0"/>
        <pt x="475" y="578" on="0"/>
        <pt x="475" y="521" on="1"/>
        <pt x="475" y="204" on="1"/>
        <pt x="475" y="147" on="0"/>
        <pt x="444" y="67" on="0"/>
        <pt x="389" y="17" on="0"/>
        <pt x="315" y="-6" on="0"/>
      </contour>
      <contour>
        <pt x="425" y="521" on="1"/>
        <pt x="425" y="605" on="0"/>
        <pt x="345" y="683" on="0"/>
        <pt x="273" y="683" on="1"/>
        <pt x="201" y="683" on="0"/>
        <pt x="122" y="605" on="0"/>
        <pt x="122" y="521" on="1"/>
        <pt x="122" y="204" on="1"/>
        <pt x="122" y="120" on="0"/>
        <pt x="201" y="42" on="0"/>
        <pt x="273" y="42" on="1"/>
        <pt x="345" y="42" on="0"/>
        <pt x="425" y="120" on="0"/>
        <pt x="425" y="204" on="1"/>
      </contour>
    </TTGlyph>
    <TTGlyph name="OE" xMin="72" yMin="-6" xMax="819" yMax="731">
      <contour>
        <pt x="269" y="-6" on="1"/>
        <pt x="227" y="-6" on="0"/>
        <pt x="155" y="17" on="0"/>
        <pt x="102" y="67" on="0"/>
        <pt x="72" y="147" on="0"/>
        <pt x="72" y="204" on="1"/>
        <pt x="72" y="521" on="1"/>
        <pt x="72" y="578" on="0"/>
        <pt x="102" y="658" on="0"/>
        <pt x="155" y="708" on="0"/>
        <pt x="227" y="731" on="0"/>
        <pt x="269" y="731" on="1"/>
        <pt x="319" y="731" on="0"/>
        <pt x="402" y="697" on="0"/>
        <pt x="428" y="659" on="1"/>
        <pt x="428" y="709" on="1"/>
        <pt x="428" y="720" on="0"/>
        <pt x="443" y="731" on="0"/>
        <pt x="452" y="731" on="1"/>
        <pt x="799" y="731" on="1"/>
        <pt x="810" y="731" on="0"/>
        <pt x="819" y="716" on="0"/>
        <pt x="819" y="708" on="1"/>
        <pt x="819" y="698" on="0"/>
        <pt x="809" y="683" on="0"/>
        <pt x="799" y="683" on="1"/>
        <pt x="474" y="683" on="1"/>
        <pt x="474" y="389" on="1"/>
        <pt x="628" y="389" on="1"/>
        <pt x="638" y="389" on="0"/>
        <pt x="648" y="375" on="0"/>
        <pt x="648" y="365" on="1"/>
        <pt x="648" y="357" on="0"/>
        <pt x="639" y="343" on="0"/>
        <pt x="628" y="343" on="1"/>
        <pt x="474" y="343" on="1"/>
        <pt x="474" y="48" on="1"/>
        <pt x="799" y="48" on="1"/>
        <pt x="809" y="48" on="0"/>
        <pt x="819" y="33" on="0"/>
        <pt x="819" y="23" on="1"/>
        <pt x="819" y="15" on="0"/>
        <pt x="810" y="0" on="0"/>
        <pt x="799" y="0" on="1"/>
        <pt x="452" y="0" on="1"/>
        <pt x="443" y="0" on="0"/>
        <pt x="428" y="11" on="0"/>
        <pt x="428" y="22" on="1"/>
        <pt x="428" y="66" on="1"/>
        <pt x="402" y="28" on="0"/>
        <pt x="319" y="-6" on="0"/>
      </contour>
      <contour>
        <pt x="425" y="521" on="1"/>
        <pt x="425" y="605" on="0"/>
        <pt x="345" y="683" on="0"/>
        <pt x="273" y="683" on="1"/>
        <pt x="201" y="683" on="0"/>
        <pt x="122" y="605" on="0"/>
        <pt x="122" y="521" on="1"/>
        <pt x="122" y="204" on="1"/>
        <pt x="122" y="120" on="0"/>
        <pt x="201" y="42" on="0"/>
        <pt x="273" y="42" on="1"/>
        <pt x="345" y="42" on="0"/>
        <pt x="425" y="120" on="0"/>
        <pt x="425" y="204" on="1"/>
      </contour>
    </TTGlyph>
    <TTGlyph name="Oacute" xMin="72" yMin="-6" xMax="475" yMax="954">
      <contour>
        <pt x="239" y="856" on="1"/>
        <pt x="234" y="853" on="0"/>
        <pt x="229" y="853" on="1"/>
        <pt x="220" y="853" on="0"/>
        <pt x="207" y="867" on="0"/>
        <pt x="207" y="876" on="1"/>
        <pt x="207" y="887" on="0"/>
        <pt x="216" y="891" on="1"/>
        <pt x="323" y="952" on="1"/>
        <pt x="327" y="954" on="0"/>
        <pt x="331" y="954" on="1"/>
        <pt x="340" y="954" on="0"/>
        <pt x="350" y="939" on="0"/>
        <pt x="350" y="931" on="1"/>
        <pt x="350" y="918" on="0"/>
        <pt x="339" y="911" on="1"/>
      </contour>
      <contour>
        <pt x="273" y="-6" on="1"/>
        <pt x="230" y="-6" on="0"/>
        <pt x="157" y="17" on="0"/>
        <pt x="103" y="67" on="0"/>
        <pt x="72" y="147" on="0"/>
        <pt x="72" y="204" on="1"/>
        <pt x="72" y="521" on="1"/>
        <pt x="72" y="578" on="0"/>
        <pt x="103" y="658" on="0"/>
        <pt x="157" y="708" on="0"/>
        <pt x="230" y="731" on="0"/>
        <pt x="273" y="731" on="1"/>
        <pt x="315" y="731" on="0"/>
        <pt x="389" y="708" on="0"/>
        <pt x="444" y="658" on="0"/>
        <pt x="475" y="578" on="0"/>
        <pt x="475" y="521" on="1"/>
        <pt x="475" y="204" on="1"/>
        <pt x="475" y="147" on="0"/>
        <pt x="444" y="67" on="0"/>
        <pt x="389" y="17" on="0"/>
        <pt x="315" y="-6" on="0"/>
      </contour>
      <contour>
        <pt x="425" y="521" on="1"/>
        <pt x="425" y="605" on="0"/>
        <pt x="345" y="683" on="0"/>
        <pt x="273" y="683" on="1"/>
        <pt x="201" y="683" on="0"/>
        <pt x="122" y="605" on="0"/>
        <pt x="122" y="521" on="1"/>
        <pt x="122" y="204" on="1"/>
        <pt x="122" y="120" on="0"/>
        <pt x="201" y="42" on="0"/>
        <pt x="273" y="42" on="1"/>
        <pt x="345" y="42" on="0"/>
        <pt x="425" y="120" on="0"/>
        <pt x="425" y="204" on="1"/>
      </contour>
    </TTGlyph>
    <TTGlyph name="Obreve" xMin="72" yMin="-6" xMax="475" yMax="969">
      <contour>
        <pt x="273" y="-6" on="1"/>
        <pt x="230" y="-6" on="0"/>
        <pt x="157" y="17" on="0"/>
        <pt x="103" y="67" on="0"/>
        <pt x="72" y="147" on="0"/>
        <pt x="72" y="204" on="1"/>
        <pt x="72" y="521" on="1"/>
        <pt x="72" y="578" on="0"/>
        <pt x="103" y="658" on="0"/>
        <pt x="157" y="708" on="0"/>
        <pt x="230" y="731" on="0"/>
        <pt x="273" y="731" on="1"/>
        <pt x="315" y="731" on="0"/>
        <pt x="389" y="708" on="0"/>
        <pt x="444" y="658" on="0"/>
        <pt x="475" y="578" on="0"/>
        <pt x="475" y="521" on="1"/>
        <pt x="475" y="204" on="1"/>
        <pt x="475" y="147" on="0"/>
        <pt x="444" y="67" on="0"/>
        <pt x="389" y="17" on="0"/>
        <pt x="315" y="-6" on="0"/>
      </contour>
      <contour>
        <pt x="425" y="521" on="1"/>
        <pt x="425" y="605" on="0"/>
        <pt x="345" y="683" on="0"/>
        <pt x="273" y="683" on="1"/>
        <pt x="201" y="683" on="0"/>
        <pt x="122" y="605" on="0"/>
        <pt x="122" y="521" on="1"/>
        <pt x="122" y="204" on="1"/>
        <pt x="122" y="120" on="0"/>
        <pt x="201" y="42" on="0"/>
        <pt x="273" y="42" on="1"/>
        <pt x="345" y="42" on="0"/>
        <pt x="425" y="120" on="0"/>
        <pt x="425" y="204" on="1"/>
      </contour>
      <contour>
        <pt x="385" y="969" on="1"/>
        <pt x="385" y="946" on="0"/>
        <pt x="366" y="905" on="0"/>
        <pt x="335" y="874" on="0"/>
        <pt x="295" y="856" on="0"/>
        <pt x="273" y="856" on="1"/>
        <pt x="250" y="856" on="0"/>
        <pt x="210" y="874" on="0"/>
        <pt x="178" y="905" on="0"/>
        <pt x="160" y="946" on="0"/>
        <pt x="160" y="969" on="1"/>
        <pt x="198" y="969" on="1"/>
        <pt x="198" y="934" on="0"/>
        <pt x="242" y="887" on="0"/>
        <pt x="273" y="887" on="1"/>
        <pt x="288" y="887" on="0"/>
        <pt x="314" y="900" on="0"/>
        <pt x="335" y="922" on="0"/>
        <pt x="347" y="952" on="0"/>
        <pt x="347" y="969" on="1"/>
      </contour>
    </TTGlyph>
    <TTGlyph name="Ocircumflex" xMin="72" yMin="-6" xMax="475" yMax="954">
      <contour>
        <pt x="169" y="856" on="1"/>
        <pt x="167" y="855" on="0"/>
        <pt x="163" y="853" on="0"/>
        <pt x="161" y="853" on="1"/>
        <pt x="153" y="853" on="0"/>
        <pt x="141" y="866" on="0"/>
        <pt x="141" y="876" on="1"/>
        <pt x="141" y="887" on="0"/>
        <pt x="152" y="893" on="1"/>
        <pt x="256" y="949" on="1"/>
        <pt x="264" y="954" on="0"/>
        <pt x="273" y="954" on="1"/>
        <pt x="282" y="954" on="0"/>
        <pt x="290" y="949" on="1"/>
        <pt x="394" y="894" on="1"/>
        <pt x="405" y="888" on="0"/>
        <pt x="405" y="874" on="1"/>
        <pt x="405" y="866" on="0"/>
        <pt x="394" y="854" on="0"/>
        <pt x="386" y="854" on="1"/>
        <pt x="384" y="854" on="0"/>
        <pt x="379" y="856" on="0"/>
        <pt x="377" y="857" on="1"/>
        <pt x="273" y="912" on="1"/>
      </contour>
      <contour>
        <pt x="273" y="-6" on="1"/>
        <pt x="230" y="-6" on="0"/>
        <pt x="157" y="17" on="0"/>
        <pt x="103" y="67" on="0"/>
        <pt x="72" y="147" on="0"/>
        <pt x="72" y="204" on="1"/>
        <pt x="72" y="521" on="1"/>
        <pt x="72" y="578" on="0"/>
        <pt x="103" y="658" on="0"/>
        <pt x="157" y="708" on="0"/>
        <pt x="230" y="731" on="0"/>
        <pt x="273" y="731" on="1"/>
        <pt x="315" y="731" on="0"/>
        <pt x="389" y="708" on="0"/>
        <pt x="444" y="658" on="0"/>
        <pt x="475" y="578" on="0"/>
        <pt x="475" y="521" on="1"/>
        <pt x="475" y="204" on="1"/>
        <pt x="475" y="147" on="0"/>
        <pt x="444" y="67" on="0"/>
        <pt x="389" y="17" on="0"/>
        <pt x="315" y="-6" on="0"/>
      </contour>
      <contour>
        <pt x="425" y="521" on="1"/>
        <pt x="425" y="605" on="0"/>
        <pt x="345" y="683" on="0"/>
        <pt x="273" y="683" on="1"/>
        <pt x="201" y="683" on="0"/>
        <pt x="122" y="605" on="0"/>
        <pt x="122" y="521" on="1"/>
        <pt x="122" y="204" on="1"/>
        <pt x="122" y="120" on="0"/>
        <pt x="201" y="42" on="0"/>
        <pt x="273" y="42" on="1"/>
        <pt x="345" y="42" on="0"/>
        <pt x="425" y="120" on="0"/>
        <pt x="425" y="204" on="1"/>
      </contour>
    </TTGlyph>
    <TTGlyph name="Odieresis" xMin="72" yMin="-6" xMax="475" yMax="919">
      <contour>
        <pt x="215" y="919" on="1"/>
        <pt x="229" y="919" on="0"/>
        <pt x="247" y="901" on="0"/>
        <pt x="247" y="887" on="1"/>
        <pt x="247" y="873" on="0"/>
        <pt x="229" y="854" on="0"/>
        <pt x="215" y="854" on="1"/>
        <pt x="201" y="854" on="0"/>
        <pt x="182" y="873" on="0"/>
        <pt x="182" y="887" on="1"/>
        <pt x="182" y="901" on="0"/>
        <pt x="201" y="919" on="0"/>
      </contour>
      <contour>
        <pt x="332" y="919" on="1"/>
        <pt x="346" y="919" on="0"/>
        <pt x="364" y="901" on="0"/>
        <pt x="364" y="887" on="1"/>
        <pt x="364" y="873" on="0"/>
        <pt x="346" y="854" on="0"/>
        <pt x="332" y="854" on="1"/>
        <pt x="317" y="854" on="0"/>
        <pt x="299" y="873" on="0"/>
        <pt x="299" y="887" on="1"/>
        <pt x="299" y="901" on="0"/>
        <pt x="317" y="919" on="0"/>
      </contour>
      <contour>
        <pt x="273" y="-6" on="1"/>
        <pt x="230" y="-6" on="0"/>
        <pt x="157" y="17" on="0"/>
        <pt x="103" y="67" on="0"/>
        <pt x="72" y="147" on="0"/>
        <pt x="72" y="204" on="1"/>
        <pt x="72" y="521" on="1"/>
        <pt x="72" y="578" on="0"/>
        <pt x="103" y="658" on="0"/>
        <pt x="157" y="708" on="0"/>
        <pt x="230" y="731" on="0"/>
        <pt x="273" y="731" on="1"/>
        <pt x="315" y="731" on="0"/>
        <pt x="389" y="708" on="0"/>
        <pt x="444" y="658" on="0"/>
        <pt x="475" y="578" on="0"/>
        <pt x="475" y="521" on="1"/>
        <pt x="475" y="204" on="1"/>
        <pt x="475" y="147" on="0"/>
        <pt x="444" y="67" on="0"/>
        <pt x="389" y="17" on="0"/>
        <pt x="315" y="-6" on="0"/>
      </contour>
      <contour>
        <pt x="425" y="521" on="1"/>
        <pt x="425" y="605" on="0"/>
        <pt x="345" y="683" on="0"/>
        <pt x="273" y="683" on="1"/>
        <pt x="201" y="683" on="0"/>
        <pt x="122" y="605" on="0"/>
        <pt x="122" y="521" on="1"/>
        <pt x="122" y="204" on="1"/>
        <pt x="122" y="120" on="0"/>
        <pt x="201" y="42" on="0"/>
        <pt x="273" y="42" on="1"/>
        <pt x="345" y="42" on="0"/>
        <pt x="425" y="120" on="0"/>
        <pt x="425" y="204" on="1"/>
      </contour>
    </TTGlyph>
    <TTGlyph name="Ograve" xMin="72" yMin="-6" xMax="475" yMax="954">
      <contour>
        <pt x="273" y="-6" on="1"/>
        <pt x="230" y="-6" on="0"/>
        <pt x="157" y="17" on="0"/>
        <pt x="103" y="67" on="0"/>
        <pt x="72" y="147" on="0"/>
        <pt x="72" y="204" on="1"/>
        <pt x="72" y="521" on="1"/>
        <pt x="72" y="578" on="0"/>
        <pt x="103" y="658" on="0"/>
        <pt x="157" y="708" on="0"/>
        <pt x="230" y="731" on="0"/>
        <pt x="273" y="731" on="1"/>
        <pt x="315" y="731" on="0"/>
        <pt x="389" y="708" on="0"/>
        <pt x="444" y="658" on="0"/>
        <pt x="475" y="578" on="0"/>
        <pt x="475" y="521" on="1"/>
        <pt x="475" y="204" on="1"/>
        <pt x="475" y="147" on="0"/>
        <pt x="444" y="67" on="0"/>
        <pt x="389" y="17" on="0"/>
        <pt x="315" y="-6" on="0"/>
      </contour>
      <contour>
        <pt x="425" y="521" on="1"/>
        <pt x="425" y="605" on="0"/>
        <pt x="345" y="683" on="0"/>
        <pt x="273" y="683" on="1"/>
        <pt x="201" y="683" on="0"/>
        <pt x="122" y="605" on="0"/>
        <pt x="122" y="521" on="1"/>
        <pt x="122" y="204" on="1"/>
        <pt x="122" y="120" on="0"/>
        <pt x="201" y="42" on="0"/>
        <pt x="273" y="42" on="1"/>
        <pt x="345" y="42" on="0"/>
        <pt x="425" y="120" on="0"/>
        <pt x="425" y="204" on="1"/>
      </contour>
      <contour>
        <pt x="211" y="911" on="1"/>
        <pt x="200" y="918" on="0"/>
        <pt x="200" y="931" on="1"/>
        <pt x="200" y="939" on="0"/>
        <pt x="211" y="954" on="0"/>
        <pt x="220" y="954" on="1"/>
        <pt x="223" y="954" on="0"/>
        <pt x="227" y="952" on="1"/>
        <pt x="334" y="891" on="1"/>
        <pt x="343" y="887" on="0"/>
        <pt x="343" y="876" on="1"/>
        <pt x="343" y="867" on="0"/>
        <pt x="330" y="853" on="0"/>
        <pt x="321" y="853" on="1"/>
        <pt x="317" y="853" on="0"/>
        <pt x="311" y="856" on="1"/>
      </contour>
    </TTGlyph>
    <TTGlyph name="Ohungarumlaut" xMin="72" yMin="-6" xMax="475" yMax="954">
      <contour>
        <pt x="202" y="857" on="1"/>
        <pt x="197" y="853" on="0"/>
        <pt x="191" y="853" on="1"/>
        <pt x="183" y="853" on="0"/>
        <pt x="169" y="866" on="0"/>
        <pt x="169" y="874" on="1"/>
        <pt x="169" y="883" on="0"/>
        <pt x="177" y="887" on="1"/>
        <pt x="276" y="951" on="1"/>
        <pt x="280" y="954" on="0"/>
        <pt x="285" y="954" on="1"/>
        <pt x="293" y="954" on="0"/>
        <pt x="304" y="941" on="0"/>
        <pt x="304" y="933" on="1"/>
        <pt x="304" y="922" on="0"/>
        <pt x="295" y="915" on="1"/>
      </contour>
      <contour>
        <pt x="350" y="857" on="1"/>
        <pt x="346" y="853" on="0"/>
        <pt x="340" y="853" on="1"/>
        <pt x="331" y="853" on="0"/>
        <pt x="318" y="866" on="0"/>
        <pt x="318" y="874" on="1"/>
        <pt x="318" y="883" on="0"/>
        <pt x="325" y="887" on="1"/>
        <pt x="425" y="951" on="1"/>
        <pt x="428" y="954" on="0"/>
        <pt x="433" y="954" on="1"/>
        <pt x="442" y="954" on="0"/>
        <pt x="453" y="941" on="0"/>
        <pt x="453" y="933" on="1"/>
        <pt x="453" y="922" on="0"/>
        <pt x="443" y="915" on="1"/>
      </contour>
      <contour>
        <pt x="273" y="-6" on="1"/>
        <pt x="230" y="-6" on="0"/>
        <pt x="157" y="17" on="0"/>
        <pt x="103" y="67" on="0"/>
        <pt x="72" y="147" on="0"/>
        <pt x="72" y="204" on="1"/>
        <pt x="72" y="521" on="1"/>
        <pt x="72" y="578" on="0"/>
        <pt x="103" y="658" on="0"/>
        <pt x="157" y="708" on="0"/>
        <pt x="230" y="731" on="0"/>
        <pt x="273" y="731" on="1"/>
        <pt x="315" y="731" on="0"/>
        <pt x="389" y="708" on="0"/>
        <pt x="444" y="658" on="0"/>
        <pt x="475" y="578" on="0"/>
        <pt x="475" y="521" on="1"/>
        <pt x="475" y="204" on="1"/>
        <pt x="475" y="147" on="0"/>
        <pt x="444" y="67" on="0"/>
        <pt x="389" y="17" on="0"/>
        <pt x="315" y="-6" on="0"/>
      </contour>
      <contour>
        <pt x="425" y="521" on="1"/>
        <pt x="425" y="605" on="0"/>
        <pt x="345" y="683" on="0"/>
        <pt x="273" y="683" on="1"/>
        <pt x="201" y="683" on="0"/>
        <pt x="122" y="605" on="0"/>
        <pt x="122" y="521" on="1"/>
        <pt x="122" y="204" on="1"/>
        <pt x="122" y="120" on="0"/>
        <pt x="201" y="42" on="0"/>
        <pt x="273" y="42" on="1"/>
        <pt x="345" y="42" on="0"/>
        <pt x="425" y="120" on="0"/>
        <pt x="425" y="204" on="1"/>
      </contour>
    </TTGlyph>
    <TTGlyph name="Omacron" xMin="72" yMin="-6" xMax="475" yMax="941">
      <contour>
        <pt x="143" y="919" on="1"/>
        <pt x="143" y="928" on="0"/>
        <pt x="154" y="941" on="0"/>
        <pt x="164" y="941" on="1"/>
        <pt x="381" y="941" on="1"/>
        <pt x="389" y="941" on="0"/>
        <pt x="403" y="928" on="0"/>
        <pt x="403" y="919" on="1"/>
        <pt x="403" y="910" on="0"/>
        <pt x="389" y="899" on="0"/>
        <pt x="381" y="899" on="1"/>
        <pt x="164" y="899" on="1"/>
        <pt x="143" y="899" on="0"/>
      </contour>
      <contour>
        <pt x="273" y="-6" on="1"/>
        <pt x="230" y="-6" on="0"/>
        <pt x="157" y="17" on="0"/>
        <pt x="103" y="67" on="0"/>
        <pt x="72" y="147" on="0"/>
        <pt x="72" y="204" on="1"/>
        <pt x="72" y="521" on="1"/>
        <pt x="72" y="578" on="0"/>
        <pt x="103" y="658" on="0"/>
        <pt x="157" y="708" on="0"/>
        <pt x="230" y="731" on="0"/>
        <pt x="273" y="731" on="1"/>
        <pt x="315" y="731" on="0"/>
        <pt x="389" y="708" on="0"/>
        <pt x="444" y="658" on="0"/>
        <pt x="475" y="578" on="0"/>
        <pt x="475" y="521" on="1"/>
        <pt x="475" y="204" on="1"/>
        <pt x="475" y="147" on="0"/>
        <pt x="444" y="67" on="0"/>
        <pt x="389" y="17" on="0"/>
        <pt x="315" y="-6" on="0"/>
      </contour>
      <contour>
        <pt x="425" y="521" on="1"/>
        <pt x="425" y="605" on="0"/>
        <pt x="345" y="683" on="0"/>
        <pt x="273" y="683" on="1"/>
        <pt x="201" y="683" on="0"/>
        <pt x="122" y="605" on="0"/>
        <pt x="122" y="521" on="1"/>
        <pt x="122" y="204" on="1"/>
        <pt x="122" y="120" on="0"/>
        <pt x="201" y="42" on="0"/>
        <pt x="273" y="42" on="1"/>
        <pt x="345" y="42" on="0"/>
        <pt x="425" y="120" on="0"/>
        <pt x="425" y="204" on="1"/>
      </contour>
    </TTGlyph>
    <TTGlyph name="Omega" xMin="57" yMin="0" xMax="483" yMax="731">
      <contour>
        <pt x="316" y="123" on="1"/>
        <pt x="367" y="134" on="0"/>
        <pt x="421" y="211" on="0"/>
        <pt x="421" y="280" on="1"/>
        <pt x="421" y="521" on="1"/>
        <pt x="421" y="605" on="0"/>
        <pt x="342" y="683" on="0"/>
        <pt x="270" y="683" on="1"/>
        <pt x="198" y="683" on="0"/>
        <pt x="120" y="605" on="0"/>
        <pt x="120" y="521" on="1"/>
        <pt x="120" y="280" on="1"/>
        <pt x="120" y="144" on="0"/>
        <pt x="225" y="123" on="1"/>
        <pt x="225" y="0" on="1"/>
        <pt x="78" y="0" on="1"/>
        <pt x="69" y="0" on="0"/>
        <pt x="57" y="14" on="0"/>
        <pt x="57" y="24" on="1"/>
        <pt x="57" y="34" on="0"/>
        <pt x="70" y="47" on="0"/>
        <pt x="78" y="47" on="1"/>
        <pt x="184" y="47" on="1"/>
        <pt x="184" y="83" on="1"/>
        <pt x="132" y="102" on="0"/>
        <pt x="69" y="196" on="0"/>
        <pt x="69" y="280" on="1"/>
        <pt x="69" y="521" on="1"/>
        <pt x="69" y="578" on="0"/>
        <pt x="100" y="658" on="0"/>
        <pt x="154" y="708" on="0"/>
        <pt x="228" y="731" on="0"/>
        <pt x="270" y="731" on="1"/>
        <pt x="313" y="731" on="0"/>
        <pt x="386" y="708" on="0"/>
        <pt x="440" y="658" on="0"/>
        <pt x="471" y="578" on="0"/>
        <pt x="471" y="521" on="1"/>
        <pt x="471" y="280" on="1"/>
        <pt x="471" y="196" on="0"/>
        <pt x="408" y="102" on="0"/>
        <pt x="357" y="83" on="1"/>
        <pt x="357" y="47" on="1"/>
        <pt x="463" y="47" on="1"/>
        <pt x="471" y="47" on="0"/>
        <pt x="483" y="34" on="0"/>
        <pt x="483" y="24" on="1"/>
        <pt x="483" y="14" on="0"/>
        <pt x="472" y="0" on="0"/>
        <pt x="463" y="0" on="1"/>
        <pt x="316" y="0" on="1"/>
      </contour>
    </TTGlyph>
    <TTGlyph name="Oslash" xMin="60" yMin="-23" xMax="488" yMax="768">
      <contour>
        <pt x="465" y="768" on="1"/>
        <pt x="473" y="768" on="0"/>
        <pt x="488" y="756" on="0"/>
        <pt x="488" y="745" on="1"/>
        <pt x="488" y="739" on="0"/>
        <pt x="484" y="734" on="1"/>
        <pt x="442" y="652" on="1"/>
        <pt x="458" y="628" on="0"/>
        <pt x="475" y="563" on="0"/>
        <pt x="475" y="521" on="1"/>
        <pt x="475" y="204" on="1"/>
        <pt x="475" y="147" on="0"/>
        <pt x="444" y="67" on="0"/>
        <pt x="389" y="17" on="0"/>
        <pt x="315" y="-6" on="0"/>
        <pt x="273" y="-6" on="1"/>
        <pt x="229" y="-6" on="0"/>
        <pt x="155" y="17" on="0"/>
        <pt x="128" y="43" on="1"/>
        <pt x="101" y="-10" on="1"/>
        <pt x="94" y="-23" on="0"/>
        <pt x="80" y="-23" on="1"/>
        <pt x="72" y="-23" on="0"/>
        <pt x="60" y="-12" on="0"/>
        <pt x="60" y="-4" on="1"/>
        <pt x="60" y="3" on="0"/>
        <pt x="62" y="7" on="1"/>
        <pt x="99" y="80" on="1"/>
        <pt x="86" y="103" on="0"/>
        <pt x="72" y="165" on="0"/>
        <pt x="72" y="204" on="1"/>
        <pt x="72" y="521" on="1"/>
        <pt x="72" y="578" on="0"/>
        <pt x="103" y="658" on="0"/>
        <pt x="157" y="708" on="0"/>
        <pt x="230" y="731" on="0"/>
        <pt x="273" y="731" on="1"/>
        <pt x="314" y="731" on="0"/>
        <pt x="384" y="710" on="0"/>
        <pt x="411" y="687" on="1"/>
        <pt x="448" y="758" on="1"/>
        <pt x="453" y="768" on="0"/>
      </contour>
      <contour>
        <pt x="425" y="521" on="1"/>
        <pt x="425" y="564" on="0"/>
        <pt x="413" y="596" on="1"/>
        <pt x="153" y="91" on="1"/>
        <pt x="192" y="42" on="0"/>
        <pt x="273" y="42" on="1"/>
        <pt x="345" y="42" on="0"/>
        <pt x="425" y="120" on="0"/>
        <pt x="425" y="204" on="1"/>
      </contour>
      <contour>
        <pt x="122" y="204" on="1"/>
        <pt x="122" y="169" on="0"/>
        <pt x="130" y="139" on="1"/>
        <pt x="387" y="640" on="1"/>
        <pt x="348" y="683" on="0"/>
        <pt x="273" y="683" on="1"/>
        <pt x="201" y="683" on="0"/>
        <pt x="122" y="605" on="0"/>
        <pt x="122" y="521" on="1"/>
      </contour>
    </TTGlyph>
    <TTGlyph name="Oslashacute" xMin="60" yMin="-23" xMax="488" yMax="954">
      <contour>
        <pt x="465" y="768" on="1"/>
        <pt x="473" y="768" on="0"/>
        <pt x="488" y="756" on="0"/>
        <pt x="488" y="745" on="1"/>
        <pt x="488" y="739" on="0"/>
        <pt x="484" y="734" on="1"/>
        <pt x="442" y="652" on="1"/>
        <pt x="458" y="628" on="0"/>
        <pt x="475" y="563" on="0"/>
        <pt x="475" y="521" on="1"/>
        <pt x="475" y="204" on="1"/>
        <pt x="475" y="147" on="0"/>
        <pt x="444" y="67" on="0"/>
        <pt x="389" y="17" on="0"/>
        <pt x="315" y="-6" on="0"/>
        <pt x="273" y="-6" on="1"/>
        <pt x="229" y="-6" on="0"/>
        <pt x="155" y="17" on="0"/>
        <pt x="128" y="43" on="1"/>
        <pt x="101" y="-10" on="1"/>
        <pt x="94" y="-23" on="0"/>
        <pt x="80" y="-23" on="1"/>
        <pt x="72" y="-23" on="0"/>
        <pt x="60" y="-12" on="0"/>
        <pt x="60" y="-4" on="1"/>
        <pt x="60" y="3" on="0"/>
        <pt x="62" y="7" on="1"/>
        <pt x="99" y="80" on="1"/>
        <pt x="86" y="103" on="0"/>
        <pt x="72" y="165" on="0"/>
        <pt x="72" y="204" on="1"/>
        <pt x="72" y="521" on="1"/>
        <pt x="72" y="578" on="0"/>
        <pt x="103" y="658" on="0"/>
        <pt x="157" y="708" on="0"/>
        <pt x="230" y="731" on="0"/>
        <pt x="273" y="731" on="1"/>
        <pt x="314" y="731" on="0"/>
        <pt x="384" y="710" on="0"/>
        <pt x="411" y="687" on="1"/>
        <pt x="448" y="758" on="1"/>
        <pt x="453" y="768" on="0"/>
      </contour>
      <contour>
        <pt x="425" y="521" on="1"/>
        <pt x="425" y="564" on="0"/>
        <pt x="413" y="596" on="1"/>
        <pt x="153" y="91" on="1"/>
        <pt x="192" y="42" on="0"/>
        <pt x="273" y="42" on="1"/>
        <pt x="345" y="42" on="0"/>
        <pt x="425" y="120" on="0"/>
        <pt x="425" y="204" on="1"/>
      </contour>
      <contour>
        <pt x="122" y="204" on="1"/>
        <pt x="122" y="169" on="0"/>
        <pt x="130" y="139" on="1"/>
        <pt x="387" y="640" on="1"/>
        <pt x="348" y="683" on="0"/>
        <pt x="273" y="683" on="1"/>
        <pt x="201" y="683" on="0"/>
        <pt x="122" y="605" on="0"/>
        <pt x="122" y="521" on="1"/>
      </contour>
      <contour>
        <pt x="236" y="856" on="1"/>
        <pt x="231" y="853" on="0"/>
        <pt x="226" y="853" on="1"/>
        <pt x="217" y="853" on="0"/>
        <pt x="204" y="867" on="0"/>
        <pt x="204" y="876" on="1"/>
        <pt x="204" y="887" on="0"/>
        <pt x="213" y="891" on="1"/>
        <pt x="320" y="952" on="1"/>
        <pt x="324" y="954" on="0"/>
        <pt x="328" y="954" on="1"/>
        <pt x="337" y="954" on="0"/>
        <pt x="347" y="939" on="0"/>
        <pt x="347" y="931" on="1"/>
        <pt x="347" y="918" on="0"/>
        <pt x="336" y="911" on="1"/>
      </contour>
    </TTGlyph>
    <TTGlyph name="Otilde" xMin="72" yMin="-6" xMax="475" yMax="949">
      <contour>
        <pt x="273" y="-6" on="1"/>
        <pt x="230" y="-6" on="0"/>
        <pt x="157" y="17" on="0"/>
        <pt x="103" y="67" on="0"/>
        <pt x="72" y="147" on="0"/>
        <pt x="72" y="204" on="1"/>
        <pt x="72" y="521" on="1"/>
        <pt x="72" y="578" on="0"/>
        <pt x="103" y="658" on="0"/>
        <pt x="157" y="708" on="0"/>
        <pt x="230" y="731" on="0"/>
        <pt x="273" y="731" on="1"/>
        <pt x="315" y="731" on="0"/>
        <pt x="389" y="708" on="0"/>
        <pt x="444" y="658" on="0"/>
        <pt x="475" y="578" on="0"/>
        <pt x="475" y="521" on="1"/>
        <pt x="475" y="204" on="1"/>
        <pt x="475" y="147" on="0"/>
        <pt x="444" y="67" on="0"/>
        <pt x="389" y="17" on="0"/>
        <pt x="315" y="-6" on="0"/>
      </contour>
      <contour>
        <pt x="425" y="521" on="1"/>
        <pt x="425" y="605" on="0"/>
        <pt x="345" y="683" on="0"/>
        <pt x="273" y="683" on="1"/>
        <pt x="201" y="683" on="0"/>
        <pt x="122" y="605" on="0"/>
        <pt x="122" y="521" on="1"/>
        <pt x="122" y="204" on="1"/>
        <pt x="122" y="120" on="0"/>
        <pt x="201" y="42" on="0"/>
        <pt x="273" y="42" on="1"/>
        <pt x="345" y="42" on="0"/>
        <pt x="425" y="120" on="0"/>
        <pt x="425" y="204" on="1"/>
      </contour>
      <contour>
        <pt x="209" y="907" on="1"/>
        <pt x="193" y="907" on="0"/>
        <pt x="171" y="897" on="0"/>
        <pt x="155" y="884" on="0"/>
        <pt x="144" y="874" on="0"/>
        <pt x="138" y="874" on="1"/>
        <pt x="130" y="874" on="0"/>
        <pt x="122" y="887" on="0"/>
        <pt x="122" y="895" on="1"/>
        <pt x="122" y="907" on="0"/>
        <pt x="140" y="926" on="0"/>
        <pt x="167" y="941" on="0"/>
        <pt x="198" y="949" on="0"/>
        <pt x="211" y="949" on="1"/>
        <pt x="230" y="949" on="0"/>
        <pt x="260" y="938" on="0"/>
        <pt x="289" y="924" on="0"/>
        <pt x="320" y="913" on="0"/>
        <pt x="340" y="913" on="1"/>
        <pt x="357" y="913" on="0"/>
        <pt x="377" y="923" on="0"/>
        <pt x="391" y="934" on="0"/>
        <pt x="401" y="944" on="0"/>
        <pt x="407" y="944" on="1"/>
        <pt x="415" y="944" on="0"/>
        <pt x="424" y="932" on="0"/>
        <pt x="424" y="925" on="1"/>
        <pt x="424" y="911" on="0"/>
        <pt x="406" y="891" on="0"/>
        <pt x="380" y="878" on="0"/>
        <pt x="351" y="871" on="0"/>
        <pt x="340" y="871" on="1"/>
        <pt x="321" y="871" on="0"/>
        <pt x="291" y="882" on="0"/>
        <pt x="261" y="896" on="0"/>
        <pt x="230" y="907" on="0"/>
      </contour>
    </TTGlyph>
    <TTGlyph name="P" xMin="79" yMin="0" xMax="483" yMax="731">
      <contour>
        <pt x="79" y="710" on="1"/>
        <pt x="79" y="729" on="0"/>
        <pt x="102" y="731" on="1"/>
        <pt x="282" y="731" on="1"/>
        <pt x="324" y="731" on="0"/>
        <pt x="398" y="708" on="0"/>
        <pt x="452" y="659" on="0"/>
        <pt x="483" y="579" on="0"/>
        <pt x="483" y="522" on="1"/>
        <pt x="483" y="511" on="1"/>
        <pt x="483" y="454" on="0"/>
        <pt x="452" y="374" on="0"/>
        <pt x="397" y="324" on="0"/>
        <pt x="323" y="301" on="0"/>
        <pt x="281" y="301" on="1"/>
        <pt x="129" y="301" on="1"/>
        <pt x="129" y="22" on="1"/>
        <pt x="129" y="11" on="0"/>
        <pt x="114" y="0" on="0"/>
        <pt x="104" y="0" on="1"/>
        <pt x="95" y="0" on="0"/>
        <pt x="79" y="11" on="0"/>
        <pt x="79" y="22" on="1"/>
      </contour>
      <contour>
        <pt x="129" y="683" on="1"/>
        <pt x="129" y="347" on="1"/>
        <pt x="281" y="347" on="1"/>
        <pt x="353" y="347" on="0"/>
        <pt x="433" y="426" on="0"/>
        <pt x="433" y="510" on="1"/>
        <pt x="433" y="521" on="1"/>
        <pt x="433" y="605" on="0"/>
        <pt x="353" y="683" on="0"/>
        <pt x="281" y="683" on="1"/>
      </contour>
    </TTGlyph>
    <TTGlyph name="Q" xMin="72" yMin="-109" xMax="475" yMax="731">
      <contour>
        <pt x="274" y="-109" on="1"/>
        <pt x="266" y="-109" on="0"/>
        <pt x="252" y="-98" on="0"/>
        <pt x="252" y="-87" on="1"/>
        <pt x="252" y="-5" on="1"/>
        <pt x="213" y="-3" on="0"/>
        <pt x="147" y="22" on="0"/>
        <pt x="99" y="72" on="0"/>
        <pt x="72" y="150" on="0"/>
        <pt x="72" y="204" on="1"/>
        <pt x="72" y="521" on="1"/>
        <pt x="72" y="578" on="0"/>
        <pt x="103" y="658" on="0"/>
        <pt x="157" y="708" on="0"/>
        <pt x="230" y="731" on="0"/>
        <pt x="273" y="731" on="1"/>
        <pt x="315" y="731" on="0"/>
        <pt x="389" y="708" on="0"/>
        <pt x="444" y="658" on="0"/>
        <pt x="475" y="578" on="0"/>
        <pt x="475" y="521" on="1"/>
        <pt x="475" y="204" on="1"/>
        <pt x="475" y="150" on="0"/>
        <pt x="448" y="73" on="0"/>
        <pt x="400" y="23" on="0"/>
        <pt x="334" y="-3" on="0"/>
        <pt x="295" y="-5" on="1"/>
        <pt x="295" y="-87" on="1"/>
        <pt x="295" y="-98" on="0"/>
        <pt x="282" y="-109" on="0"/>
      </contour>
      <contour>
        <pt x="425" y="521" on="1"/>
        <pt x="425" y="605" on="0"/>
        <pt x="345" y="683" on="0"/>
        <pt x="273" y="683" on="1"/>
        <pt x="201" y="683" on="0"/>
        <pt x="122" y="605" on="0"/>
        <pt x="122" y="521" on="1"/>
        <pt x="122" y="204" on="1"/>
        <pt x="122" y="126" on="0"/>
        <pt x="189" y="48" on="0"/>
        <pt x="252" y="43" on="1"/>
        <pt x="252" y="122" on="1"/>
        <pt x="252" y="133" on="0"/>
        <pt x="266" y="143" on="0"/>
        <pt x="274" y="143" on="1"/>
        <pt x="282" y="143" on="0"/>
        <pt x="295" y="133" on="0"/>
        <pt x="295" y="122" on="1"/>
        <pt x="295" y="44" on="1"/>
        <pt x="356" y="49" on="0"/>
        <pt x="425" y="127" on="0"/>
        <pt x="425" y="204" on="1"/>
      </contour>
    </TTGlyph>
    <TTGlyph name="R" xMin="79" yMin="-1" xMax="483" yMax="731">
      <contour>
        <pt x="79" y="710" on="1"/>
        <pt x="79" y="718" on="0"/>
        <pt x="90" y="731" on="0"/>
        <pt x="101" y="731" on="1"/>
        <pt x="272" y="731" on="1"/>
        <pt x="314" y="731" on="0"/>
        <pt x="391" y="712" on="0"/>
        <pt x="449" y="667" on="0"/>
        <pt x="483" y="592" on="0"/>
        <pt x="483" y="537" on="1"/>
        <pt x="483" y="490" on="0"/>
        <pt x="458" y="422" on="0"/>
        <pt x="414" y="376" on="0"/>
        <pt x="354" y="351" on="0"/>
        <pt x="320" y="346" on="1"/>
        <pt x="480" y="36" on="1"/>
        <pt x="483" y="30" on="0"/>
        <pt x="483" y="24" on="1"/>
        <pt x="483" y="14" on="0"/>
        <pt x="469" y="-1" on="0"/>
        <pt x="456" y="-1" on="1"/>
        <pt x="447" y="-1" on="0"/>
        <pt x="431" y="23" on="0"/>
        <pt x="425" y="34" on="1"/>
        <pt x="268" y="341" on="1"/>
        <pt x="129" y="341" on="1"/>
        <pt x="129" y="22" on="1"/>
        <pt x="129" y="11" on="0"/>
        <pt x="114" y="0" on="0"/>
        <pt x="104" y="0" on="1"/>
        <pt x="95" y="0" on="0"/>
        <pt x="79" y="11" on="0"/>
        <pt x="79" y="22" on="1"/>
      </contour>
      <contour>
        <pt x="129" y="683" on="1"/>
        <pt x="129" y="387" on="1"/>
        <pt x="272" y="387" on="1"/>
        <pt x="308" y="387" on="0"/>
        <pt x="367" y="403" on="0"/>
        <pt x="409" y="439" on="0"/>
        <pt x="433" y="496" on="0"/>
        <pt x="433" y="536" on="1"/>
        <pt x="433" y="576" on="0"/>
        <pt x="409" y="632" on="0"/>
        <pt x="367" y="667" on="0"/>
        <pt x="308" y="683" on="0"/>
        <pt x="272" y="683" on="1"/>
      </contour>
    </TTGlyph>
    <TTGlyph name="Racute" xMin="79" yMin="-1" xMax="483" yMax="954">
      <contour>
        <pt x="244" y="856" on="1"/>
        <pt x="239" y="853" on="0"/>
        <pt x="234" y="853" on="1"/>
        <pt x="225" y="853" on="0"/>
        <pt x="212" y="867" on="0"/>
        <pt x="212" y="876" on="1"/>
        <pt x="212" y="887" on="0"/>
        <pt x="221" y="891" on="1"/>
        <pt x="328" y="952" on="1"/>
        <pt x="332" y="954" on="0"/>
        <pt x="336" y="954" on="1"/>
        <pt x="345" y="954" on="0"/>
        <pt x="355" y="939" on="0"/>
        <pt x="355" y="931" on="1"/>
        <pt x="355" y="918" on="0"/>
        <pt x="344" y="911" on="1"/>
      </contour>
      <contour>
        <pt x="79" y="710" on="1"/>
        <pt x="79" y="718" on="0"/>
        <pt x="90" y="731" on="0"/>
        <pt x="101" y="731" on="1"/>
        <pt x="272" y="731" on="1"/>
        <pt x="314" y="731" on="0"/>
        <pt x="391" y="712" on="0"/>
        <pt x="449" y="667" on="0"/>
        <pt x="483" y="592" on="0"/>
        <pt x="483" y="537" on="1"/>
        <pt x="483" y="490" on="0"/>
        <pt x="458" y="422" on="0"/>
        <pt x="414" y="376" on="0"/>
        <pt x="354" y="351" on="0"/>
        <pt x="320" y="346" on="1"/>
        <pt x="480" y="36" on="1"/>
        <pt x="483" y="30" on="0"/>
        <pt x="483" y="24" on="1"/>
        <pt x="483" y="14" on="0"/>
        <pt x="469" y="-1" on="0"/>
        <pt x="456" y="-1" on="1"/>
        <pt x="447" y="-1" on="0"/>
        <pt x="431" y="23" on="0"/>
        <pt x="425" y="34" on="1"/>
        <pt x="268" y="341" on="1"/>
        <pt x="129" y="341" on="1"/>
        <pt x="129" y="22" on="1"/>
        <pt x="129" y="11" on="0"/>
        <pt x="114" y="0" on="0"/>
        <pt x="104" y="0" on="1"/>
        <pt x="95" y="0" on="0"/>
        <pt x="79" y="11" on="0"/>
        <pt x="79" y="22" on="1"/>
      </contour>
      <contour>
        <pt x="129" y="683" on="1"/>
        <pt x="129" y="387" on="1"/>
        <pt x="272" y="387" on="1"/>
        <pt x="308" y="387" on="0"/>
        <pt x="367" y="403" on="0"/>
        <pt x="409" y="439" on="0"/>
        <pt x="433" y="496" on="0"/>
        <pt x="433" y="536" on="1"/>
        <pt x="433" y="576" on="0"/>
        <pt x="409" y="632" on="0"/>
        <pt x="367" y="667" on="0"/>
        <pt x="308" y="683" on="0"/>
        <pt x="272" y="683" on="1"/>
      </contour>
    </TTGlyph>
    <TTGlyph name="Rcaron" xMin="79" yMin="-1" xMax="483" yMax="988">
      <contour>
        <pt x="276" y="883" on="1"/>
        <pt x="374" y="981" on="1"/>
        <pt x="381" y="988" on="0"/>
        <pt x="390" y="988" on="1"/>
        <pt x="398" y="988" on="0"/>
        <pt x="407" y="976" on="0"/>
        <pt x="407" y="969" on="1"/>
        <pt x="407" y="962" on="0"/>
        <pt x="397" y="950" on="1"/>
        <pt x="296" y="854" on="1"/>
        <pt x="284" y="844" on="0"/>
        <pt x="276" y="844" on="1"/>
        <pt x="265" y="844" on="0"/>
        <pt x="255" y="854" on="1"/>
        <pt x="155" y="950" on="1"/>
        <pt x="145" y="960" on="0"/>
        <pt x="145" y="969" on="1"/>
        <pt x="145" y="976" on="0"/>
        <pt x="154" y="988" on="0"/>
        <pt x="162" y="988" on="1"/>
        <pt x="170" y="988" on="0"/>
        <pt x="177" y="981" on="1"/>
      </contour>
      <contour>
        <pt x="79" y="710" on="1"/>
        <pt x="79" y="718" on="0"/>
        <pt x="90" y="731" on="0"/>
        <pt x="101" y="731" on="1"/>
        <pt x="272" y="731" on="1"/>
        <pt x="314" y="731" on="0"/>
        <pt x="391" y="712" on="0"/>
        <pt x="449" y="667" on="0"/>
        <pt x="483" y="592" on="0"/>
        <pt x="483" y="537" on="1"/>
        <pt x="483" y="490" on="0"/>
        <pt x="458" y="422" on="0"/>
        <pt x="414" y="376" on="0"/>
        <pt x="354" y="351" on="0"/>
        <pt x="320" y="346" on="1"/>
        <pt x="480" y="36" on="1"/>
        <pt x="483" y="30" on="0"/>
        <pt x="483" y="24" on="1"/>
        <pt x="483" y="14" on="0"/>
        <pt x="469" y="-1" on="0"/>
        <pt x="456" y="-1" on="1"/>
        <pt x="447" y="-1" on="0"/>
        <pt x="431" y="23" on="0"/>
        <pt x="425" y="34" on="1"/>
        <pt x="268" y="341" on="1"/>
        <pt x="129" y="341" on="1"/>
        <pt x="129" y="22" on="1"/>
        <pt x="129" y="11" on="0"/>
        <pt x="114" y="0" on="0"/>
        <pt x="104" y="0" on="1"/>
        <pt x="95" y="0" on="0"/>
        <pt x="79" y="11" on="0"/>
        <pt x="79" y="22" on="1"/>
      </contour>
      <contour>
        <pt x="129" y="683" on="1"/>
        <pt x="129" y="387" on="1"/>
        <pt x="272" y="387" on="1"/>
        <pt x="308" y="387" on="0"/>
        <pt x="367" y="403" on="0"/>
        <pt x="409" y="439" on="0"/>
        <pt x="433" y="496" on="0"/>
        <pt x="433" y="536" on="1"/>
        <pt x="433" y="576" on="0"/>
        <pt x="409" y="632" on="0"/>
        <pt x="367" y="667" on="0"/>
        <pt x="308" y="683" on="0"/>
        <pt x="272" y="683" on="1"/>
      </contour>
    </TTGlyph>
    <TTGlyph name="Rcommaaccent" xMin="79" yMin="-149" xMax="483" yMax="731">
      <contour>
        <pt x="206" y="-146" on="1"/>
        <pt x="201" y="-149" on="0"/>
        <pt x="197" y="-149" on="1"/>
        <pt x="188" y="-149" on="0"/>
        <pt x="174" y="-135" on="0"/>
        <pt x="174" y="-126" on="1"/>
        <pt x="174" y="-115" on="0"/>
        <pt x="184" y="-111" on="1"/>
        <pt x="290" y="-50" on="1"/>
        <pt x="296" y="-48" on="0"/>
        <pt x="298" y="-48" on="1"/>
        <pt x="307" y="-48" on="0"/>
        <pt x="318" y="-63" on="0"/>
        <pt x="318" y="-71" on="1"/>
        <pt x="318" y="-84" on="0"/>
        <pt x="306" y="-91" on="1"/>
      </contour>
      <contour>
        <pt x="79" y="710" on="1"/>
        <pt x="79" y="718" on="0"/>
        <pt x="90" y="731" on="0"/>
        <pt x="101" y="731" on="1"/>
        <pt x="272" y="731" on="1"/>
        <pt x="314" y="731" on="0"/>
        <pt x="391" y="712" on="0"/>
        <pt x="449" y="667" on="0"/>
        <pt x="483" y="592" on="0"/>
        <pt x="483" y="537" on="1"/>
        <pt x="483" y="490" on="0"/>
        <pt x="458" y="422" on="0"/>
        <pt x="414" y="376" on="0"/>
        <pt x="354" y="351" on="0"/>
        <pt x="320" y="346" on="1"/>
        <pt x="480" y="36" on="1"/>
        <pt x="483" y="30" on="0"/>
        <pt x="483" y="24" on="1"/>
        <pt x="483" y="14" on="0"/>
        <pt x="469" y="-1" on="0"/>
        <pt x="456" y="-1" on="1"/>
        <pt x="447" y="-1" on="0"/>
        <pt x="431" y="23" on="0"/>
        <pt x="425" y="34" on="1"/>
        <pt x="268" y="341" on="1"/>
        <pt x="129" y="341" on="1"/>
        <pt x="129" y="22" on="1"/>
        <pt x="129" y="11" on="0"/>
        <pt x="114" y="0" on="0"/>
        <pt x="104" y="0" on="1"/>
        <pt x="95" y="0" on="0"/>
        <pt x="79" y="11" on="0"/>
        <pt x="79" y="22" on="1"/>
      </contour>
      <contour>
        <pt x="129" y="683" on="1"/>
        <pt x="129" y="387" on="1"/>
        <pt x="272" y="387" on="1"/>
        <pt x="308" y="387" on="0"/>
        <pt x="367" y="403" on="0"/>
        <pt x="409" y="439" on="0"/>
        <pt x="433" y="496" on="0"/>
        <pt x="433" y="536" on="1"/>
        <pt x="433" y="576" on="0"/>
        <pt x="409" y="632" on="0"/>
        <pt x="367" y="667" on="0"/>
        <pt x="308" y="683" on="0"/>
        <pt x="272" y="683" on="1"/>
      </contour>
    </TTGlyph>
    <TTGlyph name="S" xMin="39" yMin="-6" xMax="442" yMax="732">
      <contour>
        <pt x="233" y="42" on="1"/>
        <pt x="310" y="42" on="0"/>
        <pt x="392" y="117" on="0"/>
        <pt x="392" y="192" on="1"/>
        <pt x="392" y="237" on="0"/>
        <pt x="363" y="296" on="0"/>
        <pt x="316" y="335" on="0"/>
        <pt x="256" y="360" on="0"/>
        <pt x="193" y="382" on="0"/>
        <pt x="133" y="408" on="0"/>
        <pt x="86" y="448" on="0"/>
        <pt x="57" y="509" on="0"/>
        <pt x="57" y="555" on="1"/>
        <pt x="57" y="609" on="0"/>
        <pt x="96" y="678" on="0"/>
        <pt x="156" y="717" on="0"/>
        <pt x="228" y="732" on="0"/>
        <pt x="261" y="732" on="1"/>
        <pt x="291" y="732" on="0"/>
        <pt x="349" y="723" on="0"/>
        <pt x="395" y="707" on="0"/>
        <pt x="424" y="686" on="0"/>
        <pt x="424" y="675" on="1"/>
        <pt x="424" y="667" on="0"/>
        <pt x="411" y="646" on="0"/>
        <pt x="401" y="646" on="1"/>
        <pt x="395" y="646" on="0"/>
        <pt x="374" y="658" on="0"/>
        <pt x="341" y="672" on="0"/>
        <pt x="293" y="684" on="0"/>
        <pt x="260" y="684" on="1"/>
        <pt x="232" y="684" on="0"/>
        <pt x="177" y="673" on="0"/>
        <pt x="134" y="644" on="0"/>
        <pt x="107" y="596" on="0"/>
        <pt x="107" y="559" on="1"/>
        <pt x="107" y="509" on="0"/>
        <pt x="157" y="455" on="0"/>
        <pt x="231" y="421" on="0"/>
        <pt x="318" y="395" on="0"/>
        <pt x="392" y="348" on="0"/>
        <pt x="442" y="267" on="0"/>
        <pt x="442" y="197" on="1"/>
        <pt x="442" y="144" on="0"/>
        <pt x="411" y="67" on="0"/>
        <pt x="357" y="17" on="0"/>
        <pt x="282" y="-6" on="0"/>
        <pt x="238" y="-6" on="1"/>
        <pt x="190" y="-6" on="0"/>
        <pt x="116" y="17" on="0"/>
        <pt x="65" y="50" on="0"/>
        <pt x="39" y="86" on="0"/>
        <pt x="39" y="98" on="1"/>
        <pt x="39" y="108" on="0"/>
        <pt x="54" y="126" on="0"/>
        <pt x="62" y="126" on="1"/>
        <pt x="71" y="126" on="0"/>
        <pt x="90" y="100" on="0"/>
        <pt x="125" y="68" on="0"/>
        <pt x="184" y="42" on="0"/>
      </contour>
    </TTGlyph>
    <TTGlyph name="Sacute" xMin="39" yMin="-6" xMax="442" yMax="954">
      <contour>
        <pt x="204" y="856" on="1"/>
        <pt x="199" y="853" on="0"/>
        <pt x="194" y="853" on="1"/>
        <pt x="185" y="853" on="0"/>
        <pt x="172" y="867" on="0"/>
        <pt x="172" y="876" on="1"/>
        <pt x="172" y="887" on="0"/>
        <pt x="181" y="891" on="1"/>
        <pt x="288" y="952" on="1"/>
        <pt x="292" y="954" on="0"/>
        <pt x="296" y="954" on="1"/>
        <pt x="305" y="954" on="0"/>
        <pt x="315" y="939" on="0"/>
        <pt x="315" y="931" on="1"/>
        <pt x="315" y="918" on="0"/>
        <pt x="304" y="911" on="1"/>
      </contour>
      <contour>
        <pt x="233" y="42" on="1"/>
        <pt x="310" y="42" on="0"/>
        <pt x="392" y="117" on="0"/>
        <pt x="392" y="192" on="1"/>
        <pt x="392" y="237" on="0"/>
        <pt x="363" y="296" on="0"/>
        <pt x="316" y="335" on="0"/>
        <pt x="256" y="360" on="0"/>
        <pt x="193" y="382" on="0"/>
        <pt x="133" y="408" on="0"/>
        <pt x="86" y="448" on="0"/>
        <pt x="57" y="509" on="0"/>
        <pt x="57" y="555" on="1"/>
        <pt x="57" y="609" on="0"/>
        <pt x="96" y="678" on="0"/>
        <pt x="156" y="717" on="0"/>
        <pt x="228" y="732" on="0"/>
        <pt x="261" y="732" on="1"/>
        <pt x="291" y="732" on="0"/>
        <pt x="349" y="723" on="0"/>
        <pt x="395" y="707" on="0"/>
        <pt x="424" y="686" on="0"/>
        <pt x="424" y="675" on="1"/>
        <pt x="424" y="667" on="0"/>
        <pt x="411" y="646" on="0"/>
        <pt x="401" y="646" on="1"/>
        <pt x="395" y="646" on="0"/>
        <pt x="374" y="658" on="0"/>
        <pt x="341" y="672" on="0"/>
        <pt x="293" y="684" on="0"/>
        <pt x="260" y="684" on="1"/>
        <pt x="232" y="684" on="0"/>
        <pt x="177" y="673" on="0"/>
        <pt x="134" y="644" on="0"/>
        <pt x="107" y="596" on="0"/>
        <pt x="107" y="559" on="1"/>
        <pt x="107" y="509" on="0"/>
        <pt x="157" y="455" on="0"/>
        <pt x="231" y="421" on="0"/>
        <pt x="318" y="395" on="0"/>
        <pt x="392" y="348" on="0"/>
        <pt x="442" y="267" on="0"/>
        <pt x="442" y="197" on="1"/>
        <pt x="442" y="144" on="0"/>
        <pt x="411" y="67" on="0"/>
        <pt x="357" y="17" on="0"/>
        <pt x="282" y="-6" on="0"/>
        <pt x="238" y="-6" on="1"/>
        <pt x="190" y="-6" on="0"/>
        <pt x="116" y="17" on="0"/>
        <pt x="65" y="50" on="0"/>
        <pt x="39" y="86" on="0"/>
        <pt x="39" y="98" on="1"/>
        <pt x="39" y="108" on="0"/>
        <pt x="54" y="126" on="0"/>
        <pt x="62" y="126" on="1"/>
        <pt x="71" y="126" on="0"/>
        <pt x="90" y="100" on="0"/>
        <pt x="125" y="68" on="0"/>
        <pt x="184" y="42" on="0"/>
      </contour>
    </TTGlyph>
    <TTGlyph name="Scaron" xMin="39" yMin="-6" xMax="442" yMax="988">
      <contour>
        <pt x="240" y="883" on="1"/>
        <pt x="338" y="981" on="1"/>
        <pt x="345" y="988" on="0"/>
        <pt x="354" y="988" on="1"/>
        <pt x="362" y="988" on="0"/>
        <pt x="371" y="976" on="0"/>
        <pt x="371" y="969" on="1"/>
        <pt x="371" y="962" on="0"/>
        <pt x="361" y="950" on="1"/>
        <pt x="260" y="854" on="1"/>
        <pt x="248" y="844" on="0"/>
        <pt x="240" y="844" on="1"/>
        <pt x="229" y="844" on="0"/>
        <pt x="219" y="854" on="1"/>
        <pt x="119" y="950" on="1"/>
        <pt x="109" y="960" on="0"/>
        <pt x="109" y="969" on="1"/>
        <pt x="109" y="976" on="0"/>
        <pt x="118" y="988" on="0"/>
        <pt x="126" y="988" on="1"/>
        <pt x="134" y="988" on="0"/>
        <pt x="141" y="981" on="1"/>
      </contour>
      <contour>
        <pt x="233" y="42" on="1"/>
        <pt x="310" y="42" on="0"/>
        <pt x="392" y="117" on="0"/>
        <pt x="392" y="192" on="1"/>
        <pt x="392" y="237" on="0"/>
        <pt x="363" y="296" on="0"/>
        <pt x="316" y="335" on="0"/>
        <pt x="256" y="360" on="0"/>
        <pt x="193" y="382" on="0"/>
        <pt x="133" y="408" on="0"/>
        <pt x="86" y="448" on="0"/>
        <pt x="57" y="509" on="0"/>
        <pt x="57" y="555" on="1"/>
        <pt x="57" y="609" on="0"/>
        <pt x="96" y="678" on="0"/>
        <pt x="156" y="717" on="0"/>
        <pt x="228" y="732" on="0"/>
        <pt x="261" y="732" on="1"/>
        <pt x="291" y="732" on="0"/>
        <pt x="349" y="723" on="0"/>
        <pt x="395" y="707" on="0"/>
        <pt x="424" y="686" on="0"/>
        <pt x="424" y="675" on="1"/>
        <pt x="424" y="667" on="0"/>
        <pt x="411" y="646" on="0"/>
        <pt x="401" y="646" on="1"/>
        <pt x="395" y="646" on="0"/>
        <pt x="374" y="658" on="0"/>
        <pt x="341" y="672" on="0"/>
        <pt x="293" y="684" on="0"/>
        <pt x="260" y="684" on="1"/>
        <pt x="232" y="684" on="0"/>
        <pt x="177" y="673" on="0"/>
        <pt x="134" y="644" on="0"/>
        <pt x="107" y="596" on="0"/>
        <pt x="107" y="559" on="1"/>
        <pt x="107" y="509" on="0"/>
        <pt x="157" y="455" on="0"/>
        <pt x="231" y="421" on="0"/>
        <pt x="318" y="395" on="0"/>
        <pt x="392" y="348" on="0"/>
        <pt x="442" y="267" on="0"/>
        <pt x="442" y="197" on="1"/>
        <pt x="442" y="144" on="0"/>
        <pt x="411" y="67" on="0"/>
        <pt x="357" y="17" on="0"/>
        <pt x="282" y="-6" on="0"/>
        <pt x="238" y="-6" on="1"/>
        <pt x="190" y="-6" on="0"/>
        <pt x="116" y="17" on="0"/>
        <pt x="65" y="50" on="0"/>
        <pt x="39" y="86" on="0"/>
        <pt x="39" y="98" on="1"/>
        <pt x="39" y="108" on="0"/>
        <pt x="54" y="126" on="0"/>
        <pt x="62" y="126" on="1"/>
        <pt x="71" y="126" on="0"/>
        <pt x="90" y="100" on="0"/>
        <pt x="125" y="68" on="0"/>
        <pt x="184" y="42" on="0"/>
      </contour>
    </TTGlyph>
    <TTGlyph name="Scedilla" xMin="39" yMin="-208" xMax="442" yMax="732">
      <contour>
        <pt x="233" y="42" on="1"/>
        <pt x="310" y="42" on="0"/>
        <pt x="392" y="117" on="0"/>
        <pt x="392" y="192" on="1"/>
        <pt x="392" y="237" on="0"/>
        <pt x="363" y="296" on="0"/>
        <pt x="316" y="335" on="0"/>
        <pt x="256" y="360" on="0"/>
        <pt x="193" y="382" on="0"/>
        <pt x="133" y="408" on="0"/>
        <pt x="86" y="448" on="0"/>
        <pt x="57" y="509" on="0"/>
        <pt x="57" y="555" on="1"/>
        <pt x="57" y="609" on="0"/>
        <pt x="96" y="678" on="0"/>
        <pt x="156" y="717" on="0"/>
        <pt x="228" y="732" on="0"/>
        <pt x="261" y="732" on="1"/>
        <pt x="291" y="732" on="0"/>
        <pt x="349" y="723" on="0"/>
        <pt x="395" y="707" on="0"/>
        <pt x="424" y="686" on="0"/>
        <pt x="424" y="675" on="1"/>
        <pt x="424" y="667" on="0"/>
        <pt x="411" y="646" on="0"/>
        <pt x="401" y="646" on="1"/>
        <pt x="395" y="646" on="0"/>
        <pt x="374" y="658" on="0"/>
        <pt x="341" y="672" on="0"/>
        <pt x="293" y="684" on="0"/>
        <pt x="260" y="684" on="1"/>
        <pt x="232" y="684" on="0"/>
        <pt x="177" y="673" on="0"/>
        <pt x="134" y="644" on="0"/>
        <pt x="107" y="596" on="0"/>
        <pt x="107" y="559" on="1"/>
        <pt x="107" y="509" on="0"/>
        <pt x="157" y="455" on="0"/>
        <pt x="231" y="421" on="0"/>
        <pt x="318" y="395" on="0"/>
        <pt x="392" y="348" on="0"/>
        <pt x="442" y="267" on="0"/>
        <pt x="442" y="197" on="1"/>
        <pt x="442" y="104" on="0"/>
        <pt x="353" y="7" on="0"/>
        <pt x="282" y="-3" on="1"/>
        <pt x="267" y="-63" on="1"/>
        <pt x="318" y="-65" on="0"/>
        <pt x="362" y="-108" on="0"/>
        <pt x="362" y="-134" on="1"/>
        <pt x="362" y="-162" on="0"/>
        <pt x="319" y="-208" on="0"/>
        <pt x="277" y="-208" on="1"/>
        <pt x="268" y="-208" on="0"/>
        <pt x="242" y="-205" on="0"/>
        <pt x="218" y="-199" on="0"/>
        <pt x="201" y="-190" on="0"/>
        <pt x="201" y="-184" on="1"/>
        <pt x="201" y="-179" on="0"/>
        <pt x="209" y="-163" on="0"/>
        <pt x="215" y="-163" on="1"/>
        <pt x="220" y="-163" on="0"/>
        <pt x="246" y="-176" on="0"/>
        <pt x="271" y="-176" on="1"/>
        <pt x="301" y="-176" on="0"/>
        <pt x="325" y="-152" on="0"/>
        <pt x="325" y="-136" on="1"/>
        <pt x="325" y="-114" on="0"/>
        <pt x="289" y="-94" on="0"/>
        <pt x="258" y="-92" on="1"/>
        <pt x="225" y="-90" on="1"/>
        <pt x="246" y="-6" on="1"/>
        <pt x="238" y="-6" on="1"/>
        <pt x="190" y="-6" on="0"/>
        <pt x="116" y="17" on="0"/>
        <pt x="65" y="50" on="0"/>
        <pt x="39" y="86" on="0"/>
        <pt x="39" y="98" on="1"/>
        <pt x="39" y="108" on="0"/>
        <pt x="54" y="126" on="0"/>
        <pt x="62" y="126" on="1"/>
        <pt x="71" y="126" on="0"/>
        <pt x="90" y="100" on="0"/>
        <pt x="125" y="68" on="0"/>
        <pt x="184" y="42" on="0"/>
      </contour>
    </TTGlyph>
    <TTGlyph name="Scircumflex" xMin="39" yMin="-6" xMax="442" yMax="954">
      <contour>
        <pt x="136" y="856" on="1"/>
        <pt x="134" y="855" on="0"/>
        <pt x="130" y="853" on="0"/>
        <pt x="128" y="853" on="1"/>
        <pt x="120" y="853" on="0"/>
        <pt x="108" y="866" on="0"/>
        <pt x="108" y="876" on="1"/>
        <pt x="108" y="887" on="0"/>
        <pt x="119" y="893" on="1"/>
        <pt x="223" y="949" on="1"/>
        <pt x="231" y="954" on="0"/>
        <pt x="240" y="954" on="1"/>
        <pt x="249" y="954" on="0"/>
        <pt x="257" y="949" on="1"/>
        <pt x="361" y="894" on="1"/>
        <pt x="372" y="888" on="0"/>
        <pt x="372" y="874" on="1"/>
        <pt x="372" y="866" on="0"/>
        <pt x="361" y="854" on="0"/>
        <pt x="353" y="854" on="1"/>
        <pt x="351" y="854" on="0"/>
        <pt x="346" y="856" on="0"/>
        <pt x="344" y="857" on="1"/>
        <pt x="240" y="912" on="1"/>
      </contour>
      <contour>
        <pt x="233" y="42" on="1"/>
        <pt x="310" y="42" on="0"/>
        <pt x="392" y="117" on="0"/>
        <pt x="392" y="192" on="1"/>
        <pt x="392" y="237" on="0"/>
        <pt x="363" y="296" on="0"/>
        <pt x="316" y="335" on="0"/>
        <pt x="256" y="360" on="0"/>
        <pt x="193" y="382" on="0"/>
        <pt x="133" y="408" on="0"/>
        <pt x="86" y="448" on="0"/>
        <pt x="57" y="509" on="0"/>
        <pt x="57" y="555" on="1"/>
        <pt x="57" y="609" on="0"/>
        <pt x="96" y="678" on="0"/>
        <pt x="156" y="717" on="0"/>
        <pt x="228" y="732" on="0"/>
        <pt x="261" y="732" on="1"/>
        <pt x="291" y="732" on="0"/>
        <pt x="349" y="723" on="0"/>
        <pt x="395" y="707" on="0"/>
        <pt x="424" y="686" on="0"/>
        <pt x="424" y="675" on="1"/>
        <pt x="424" y="667" on="0"/>
        <pt x="411" y="646" on="0"/>
        <pt x="401" y="646" on="1"/>
        <pt x="395" y="646" on="0"/>
        <pt x="374" y="658" on="0"/>
        <pt x="341" y="672" on="0"/>
        <pt x="293" y="684" on="0"/>
        <pt x="260" y="684" on="1"/>
        <pt x="232" y="684" on="0"/>
        <pt x="177" y="673" on="0"/>
        <pt x="134" y="644" on="0"/>
        <pt x="107" y="596" on="0"/>
        <pt x="107" y="559" on="1"/>
        <pt x="107" y="509" on="0"/>
        <pt x="157" y="455" on="0"/>
        <pt x="231" y="421" on="0"/>
        <pt x="318" y="395" on="0"/>
        <pt x="392" y="348" on="0"/>
        <pt x="442" y="267" on="0"/>
        <pt x="442" y="197" on="1"/>
        <pt x="442" y="144" on="0"/>
        <pt x="411" y="67" on="0"/>
        <pt x="357" y="17" on="0"/>
        <pt x="282" y="-6" on="0"/>
        <pt x="238" y="-6" on="1"/>
        <pt x="190" y="-6" on="0"/>
        <pt x="116" y="17" on="0"/>
        <pt x="65" y="50" on="0"/>
        <pt x="39" y="86" on="0"/>
        <pt x="39" y="98" on="1"/>
        <pt x="39" y="108" on="0"/>
        <pt x="54" y="126" on="0"/>
        <pt x="62" y="126" on="1"/>
        <pt x="71" y="126" on="0"/>
        <pt x="90" y="100" on="0"/>
        <pt x="125" y="68" on="0"/>
        <pt x="184" y="42" on="0"/>
      </contour>
    </TTGlyph>
    <TTGlyph name="Scommaaccent" xMin="39" yMin="-149" xMax="442" yMax="732">
      <contour>
        <pt x="214" y="-146" on="1"/>
        <pt x="209" y="-149" on="0"/>
        <pt x="205" y="-149" on="1"/>
        <pt x="196" y="-149" on="0"/>
        <pt x="182" y="-135" on="0"/>
        <pt x="182" y="-126" on="1"/>
        <pt x="182" y="-115" on="0"/>
        <pt x="192" y="-111" on="1"/>
        <pt x="298" y="-50" on="1"/>
        <pt x="304" y="-48" on="0"/>
        <pt x="306" y="-48" on="1"/>
        <pt x="315" y="-48" on="0"/>
        <pt x="326" y="-63" on="0"/>
        <pt x="326" y="-71" on="1"/>
        <pt x="326" y="-84" on="0"/>
        <pt x="314" y="-91" on="1"/>
      </contour>
      <contour>
        <pt x="233" y="42" on="1"/>
        <pt x="310" y="42" on="0"/>
        <pt x="392" y="117" on="0"/>
        <pt x="392" y="192" on="1"/>
        <pt x="392" y="237" on="0"/>
        <pt x="363" y="296" on="0"/>
        <pt x="316" y="335" on="0"/>
        <pt x="256" y="360" on="0"/>
        <pt x="193" y="382" on="0"/>
        <pt x="133" y="408" on="0"/>
        <pt x="86" y="448" on="0"/>
        <pt x="57" y="509" on="0"/>
        <pt x="57" y="555" on="1"/>
        <pt x="57" y="609" on="0"/>
        <pt x="96" y="678" on="0"/>
        <pt x="156" y="717" on="0"/>
        <pt x="228" y="732" on="0"/>
        <pt x="261" y="732" on="1"/>
        <pt x="291" y="732" on="0"/>
        <pt x="349" y="723" on="0"/>
        <pt x="395" y="707" on="0"/>
        <pt x="424" y="686" on="0"/>
        <pt x="424" y="675" on="1"/>
        <pt x="424" y="667" on="0"/>
        <pt x="411" y="646" on="0"/>
        <pt x="401" y="646" on="1"/>
        <pt x="395" y="646" on="0"/>
        <pt x="374" y="658" on="0"/>
        <pt x="341" y="672" on="0"/>
        <pt x="293" y="684" on="0"/>
        <pt x="260" y="684" on="1"/>
        <pt x="232" y="684" on="0"/>
        <pt x="177" y="673" on="0"/>
        <pt x="134" y="644" on="0"/>
        <pt x="107" y="596" on="0"/>
        <pt x="107" y="559" on="1"/>
        <pt x="107" y="509" on="0"/>
        <pt x="157" y="455" on="0"/>
        <pt x="231" y="421" on="0"/>
        <pt x="318" y="395" on="0"/>
        <pt x="392" y="348" on="0"/>
        <pt x="442" y="267" on="0"/>
        <pt x="442" y="197" on="1"/>
        <pt x="442" y="144" on="0"/>
        <pt x="411" y="67" on="0"/>
        <pt x="357" y="17" on="0"/>
        <pt x="282" y="-6" on="0"/>
        <pt x="238" y="-6" on="1"/>
        <pt x="190" y="-6" on="0"/>
        <pt x="116" y="17" on="0"/>
        <pt x="65" y="50" on="0"/>
        <pt x="39" y="86" on="0"/>
        <pt x="39" y="98" on="1"/>
        <pt x="39" y="108" on="0"/>
        <pt x="54" y="126" on="0"/>
        <pt x="62" y="126" on="1"/>
        <pt x="71" y="126" on="0"/>
        <pt x="90" y="100" on="0"/>
        <pt x="125" y="68" on="0"/>
        <pt x="184" y="42" on="0"/>
      </contour>
    </TTGlyph>
    <TTGlyph name="T" xMin="15" yMin="0" xMax="453" yMax="731">
      <contour>
        <pt x="432" y="731" on="1"/>
        <pt x="443" y="731" on="0"/>
        <pt x="453" y="717" on="0"/>
        <pt x="453" y="708" on="1"/>
        <pt x="453" y="699" on="0"/>
        <pt x="443" y="683" on="0"/>
        <pt x="432" y="683" on="1"/>
        <pt x="260" y="683" on="1"/>
        <pt x="260" y="22" on="1"/>
        <pt x="260" y="11" on="0"/>
        <pt x="244" y="0" on="0"/>
        <pt x="235" y="0" on="1"/>
        <pt x="225" y="0" on="0"/>
        <pt x="210" y="11" on="0"/>
        <pt x="210" y="22" on="1"/>
        <pt x="210" y="683" on="1"/>
        <pt x="36" y="683" on="1"/>
        <pt x="26" y="683" on="0"/>
        <pt x="15" y="698" on="0"/>
        <pt x="15" y="707" on="1"/>
        <pt x="15" y="716" on="0"/>
        <pt x="26" y="731" on="0"/>
        <pt x="36" y="731" on="1"/>
      </contour>
    </TTGlyph>
</ttFont>
